SplineFontDB: 3.0
FontName: Topmarks-Book
FullName: Topmarks Book
FamilyName: Topmarks
Weight: Book
Copyright: Copyright (c) 2012-13 by vernon adams. All rights reserved.
Version: 
ItalicAngle: 0
UnderlinePosition: 0
UnderlineWidth: 0
Ascent: 1638
Descent: 410
sfntRevision: 0x00010000
LayerCount: 2
Layer: 0 1 "Back"  1
Layer: 1 1 "Fore"  0
XUID: [1021 913 -2060267417 11521017]
FSType: 0
OS2Version: 4
OS2_WeightWidthSlopeOnly: 0
OS2_UseTypoMetrics: 1
CreationTime: 1364657173
ModificationTime: 1364660757
PfmFamily: 17
TTFWeight: 400
TTFWidth: 5
LineGap: 0
VLineGap: 0
Panose: 2 0 6 3 0 0 0 0 0 0
OS2TypoAscent: 1960
OS2TypoAOffset: 0
OS2TypoDescent: -656
OS2TypoDOffset: 0
OS2TypoLinegap: 0
OS2WinAscent: 1960
OS2WinAOffset: 0
OS2WinDescent: 656
OS2WinDOffset: 0
HheadAscent: 1960
HheadAOffset: 0
HheadDescent: -656
HheadDOffset: 0
OS2SubXSize: 1331
OS2SubYSize: 1433
OS2SubXOff: 0
OS2SubYOff: 286
OS2SupXSize: 1331
OS2SupYSize: 1433
OS2SupXOff: 0
OS2SupYOff: 983
OS2StrikeYSize: 102
OS2StrikeYPos: 530
OS2Vendor: 'newt'
OS2CodePages: 20000093.00000000
OS2UnicodeRanges: a00000ef.1000204b.00000000.00000000
Lookup: 4 0 0 "'frac' Diagonal Fractions lookup 0"  {"'frac' Diagonal Fractions lookup 0 subtable"  } ['frac' ('DFLT' <'dflt' > 'grek' <'dflt' > 'latn' <'dflt' > ) ]
Lookup: 258 0 0 "'kern' Horizontal Kerning in Latin lookup 0"  {"'kern' Horizontal Kerning in Latin lookup 0 per glyph data 0"  "'kern' Horizontal Kerning in Latin lookup 0 kerning class 1"  } ['kern' ('latn' <'dflt' > ) ]
Lookup: 260 0 0 "'mark' Mark Positioning lookup 1"  {"'mark' Mark Positioning lookup 1 subtable"  } ['mark' ('DFLT' <'dflt' > 'grek' <'dflt' > 'latn' <'dflt' > ) ]
MarkAttachClasses: 1
DEI: 91125
KernClass2: 15 22 "'kern' Horizontal Kerning in Latin lookup 0 kerning class 1" 
 89 A Agrave Aacute Acircumflex Atilde Adieresis Aring Amacron Abreve Aogonek uni0200 uni0202
 1 D
 1 F
 14 G Gcommaaccent
 1 K
 1 L
 1 P
 9 T uni021A
 1 V
 1 W
 18 Y Yacute Ydieresis
 24 c ccedilla cacute ccaron

StartChar: .notdef
Encoding: 65536 -1 0
Width: 748
Flags: W
LayerCount: 2
UndoRedoHistory
Layer: 1
Undoes
EndUndoes
Redoes
EndRedoes
EndUndoRedoHistory
Fore
SplineSet
136 68 m 1,0,-1
 544 68 l 1,1,-1
 544 1297 l 1,2,-1
 136 1297 l 1,3,-1
 136 68 l 1,0,-1
68 0 m 1,4,-1
 68 1365 l 1,5,-1
 612 1365 l 1,6,-1
 612 0 l 1,7,-1
 68 0 l 1,4,-1
EndSplineSet
EndChar

StartChar: exclam
Encoding: 33 33 4
Width: 747
GlyphClass: 2
Flags: W
LayerCount: 2
UndoRedoHistory
Layer: 1
Undoes
EndUndoes
Redoes
EndRedoes
EndUndoRedoHistory
Fore
SplineSet
331 373 m 1,0,-1
 280 1456 l 1,1,-1
 467 1456 l 1,2,-1
 417 373 l 1,3,-1
 331 373 l 1,0,-1
378 -6 m 0,4,5
 325 -6 325 -6 295 26.5 c 128,-1,6
 265 59 265 59 265 106 c 0,7,8
 265 156 265 156 299.5 186.5 c 128,-1,9
 334 217 334 217 379 217 c 0,10,11
 432 217 432 217 462 184.5 c 128,-1,12
 492 152 492 152 492 105 c 0,13,14
 492 55 492 55 457.5 24.5 c 128,-1,15
 423 -6 423 -6 378 -6 c 0,4,5
EndSplineSet
EndChar

StartChar: quotedbl
Encoding: 34 34 5
Width: 730
GlyphClass: 2
Flags: W
LayerCount: 2
UndoRedoHistory
Layer: 1
Undoes
EndUndoes
Redoes
EndRedoes
EndUndoRedoHistory
Fore
SplineSet
467 931 m 1,0,-1
 431 1456 l 1,1,-1
 598 1456 l 1,2,-1
 575 931 l 1,3,-1
 467 931 l 1,0,-1
168 931 m 1,4,-1
 132 1456 l 1,5,-1
 298 1456 l 1,6,-1
 277 931 l 1,7,-1
 168 931 l 1,4,-1
EndSplineSet
EndChar

StartChar: numbersign
Encoding: 35 35 6
Width: 1268
GlyphClass: 2
Flags: W
LayerCount: 2
UndoRedoHistory
Layer: 1
Undoes
EndUndoes
Redoes
EndRedoes
EndUndoRedoHistory
Fore
SplineSet
474 583 m 1,0,-1
 748 583 l 1,1,-1
 800 899 l 1,2,-1
 529 899 l 1,3,-1
 474 583 l 1,0,-1
244 0 m 1,4,-1
 328 465 l 1,5,-1
 76 465 l 1,6,-1
 84 583 l 1,7,-1
 348 583 l 1,8,-1
 399 899 l 1,9,-1
 141 899 l 1,10,-1
 154 1026 l 1,11,-1
 420 1026 l 1,12,-1
 496 1455 l 1,13,-1
 626 1455 l 1,14,-1
 552 1026 l 1,15,-1
 823 1026 l 1,16,-1
 896 1455 l 1,17,-1
 1029 1455 l 1,18,-1
 951 1026 l 1,19,-1
 1192 1026 l 1,20,-1
 1178 899 l 1,21,-1
 929 899 l 1,22,-1
 877 583 l 1,23,-1
 1126 583 l 1,24,-1
 1115 465 l 1,25,-1
 859 465 l 1,26,-1
 779 0 l 1,27,-1
 650 0 l 1,28,-1
 727 465 l 1,29,-1
 456 465 l 1,30,-1
 377 0 l 1,31,-1
 244 0 l 1,4,-1
EndSplineSet
EndChar

StartChar: dollar
Encoding: 36 36 7
Width: 1244
GlyphClass: 2
Flags: W
LayerCount: 2
UndoRedoHistory
Layer: 1
Undoes
EndUndoes
Redoes
EndRedoes
EndUndoRedoHistory
Fore
SplineSet
682 128 m 1,0,1
 786 138 786 138 846 198 c 0,2,3
 919 270 919 270 919 394 c 0,4,5
 919 443 919 443 906 478 c 128,-1,6
 893 513 893 513 856 549 c 0,7,8
 819 586 819 586 749 618 c 0,9,10
 719 632 719 632 682 646 c 1,11,-1
 682 128 l 1,0,1
682 1478 m 1,12,13
 884 1465 884 1465 1046 1348 c 1,14,-1
 980 1217 l 1,15,16
 912 1266 912 1266 826 1298 c 0,17,18
 755 1325 755 1325 682 1329 c 1,19,-1
 682 821 l 1,20,21
 796 784 796 784 874 742 c 0,22,23
 956 698 956 698 1003.5 643.5 c 128,-1,24
 1051 589 1051 589 1069.5 529.5 c 128,-1,25
 1088 470 1088 470 1088 391 c 0,26,27
 1088 204 1088 204 968 90 c 0,28,29
 860 -13 860 -13 682 -23 c 1,30,-1
 682 -196 l 1,31,-1
 573 -196 l 1,32,-1
 573 -21 l 1,33,34
 476 -12 476 -12 384 22 c 0,35,36
 258 68 258 68 180 128 c 1,37,-1
 231 278 l 1,38,39
 306 216 306 216 420 171 c 0,40,41
 499 140 499 140 573 130 c 1,42,-1
 573 683 l 1,43,44
 571 684 571 684 568 685 c 0,45,46
 354 753 354 753 264 847 c 0,47,48
 175 940 175 940 176 1101 c 0,49,50
 176 1220 176 1220 238 1308 c 0,51,52
 300 1394 300 1394 402 1438 c 0,53,54
 480 1470 480 1470 573 1478 c 1,55,-1
 573 1627 l 1,56,-1
 682 1627 l 1,57,-1
 682 1478 l 1,12,13
573 1325 m 1,58,59
 489 1313 489 1313 433 1275 c 0,60,61
 352 1220 352 1220 350 1114 c 0,62,63
 350 1109 350 1109 350 1104 c 0,64,65
 350 1065 350 1065 357 1036 c 0,66,67
 365 1003 365 1003 385 974 c 128,-1,68
 405 945 405 945 442.5 920.5 c 128,-1,69
 480 896 480 896 534 874 c 0,70,71
 552 866 552 866 573 858 c 1,72,-1
 573 1325 l 1,58,59
EndSplineSet
EndChar

StartChar: percent
Encoding: 37 37 8
Width: 1749
GlyphClass: 2
Flags: W
LayerCount: 2
UndoRedoHistory
Layer: 1
Undoes
EndUndoes
Redoes
EndRedoes
EndUndoRedoHistory
Fore
SplineSet
412 718 m 0,0,1
 248 718 248 718 158 826 c 128,-1,2
 68 934 68 934 68 1096 c 0,3,4
 68 1273 68 1273 164.5 1376.5 c 128,-1,5
 261 1480 261 1480 417 1480 c 0,6,7
 579 1480 579 1480 669.5 1376.5 c 128,-1,8
 760 1273 760 1273 760 1101 c 0,9,10
 760 925 760 925 663.5 821.5 c 128,-1,11
 567 718 567 718 412 718 c 0,0,1
1336 89 m 128,-1,13
 1436 89 1436 89 1486.5 165.5 c 128,-1,14
 1537 242 1537 242 1537 360 c 128,-1,15
 1537 478 1537 478 1487 551.5 c 128,-1,16
 1437 625 1437 625 1337 625 c 0,17,18
 1236 625 1236 625 1184.5 548 c 128,-1,19
 1133 471 1133 471 1133 353 c 0,20,21
 1133 232 1133 232 1184.5 160.5 c 128,-1,12
 1236 89 1236 89 1336 89 c 128,-1,13
415 831 m 128,-1,23
 515 831 515 831 565.5 907.5 c 128,-1,24
 616 984 616 984 616 1102 c 128,-1,25
 616 1220 616 1220 566 1293.5 c 128,-1,26
 516 1367 516 1367 416 1367 c 0,27,28
 315 1367 315 1367 263.5 1290 c 128,-1,29
 212 1213 212 1213 212 1095 c 0,30,31
 212 974 212 974 263.5 902.5 c 128,-1,22
 315 831 315 831 415 831 c 128,-1,23
1333 -24 m 0,32,33
 1169 -24 1169 -24 1079 84 c 128,-1,34
 989 192 989 192 989 354 c 0,35,36
 989 531 989 531 1085.5 634.5 c 128,-1,37
 1182 738 1182 738 1338 738 c 0,38,39
 1500 738 1500 738 1590.5 634.5 c 128,-1,40
 1681 531 1681 531 1681 359 c 0,41,42
 1681 183 1681 183 1584.5 79.5 c 128,-1,43
 1488 -24 1488 -24 1333 -24 c 0,32,33
346 0 m 1,44,-1
 1246 1456 l 1,45,-1
 1395 1456 l 1,46,-1
 500 0 l 1,47,-1
 346 0 l 1,44,-1
EndSplineSet
EndChar

StartChar: ampersand
Encoding: 38 38 9
Width: 1576
GlyphClass: 2
Flags: W
LayerCount: 2
UndoRedoHistory
Layer: 1
Undoes
EndUndoes
Redoes
EndRedoes
EndUndoRedoHistory
Fore
SplineSet
619 921 m 1,0,1
 664 948 664 948 697 972 c 128,-1,2
 730 996 730 996 766 1029.5 c 128,-1,3
 802 1063 802 1063 821 1103 c 128,-1,4
 840 1143 840 1143 840 1186 c 0,5,6
 840 1265 840 1265 790.5 1307 c 128,-1,7
 741 1349 741 1349 663 1349 c 0,8,9
 584 1349 584 1349 534.5 1307.5 c 128,-1,10
 485 1266 485 1266 485 1186 c 0,11,12
 485 1140 485 1140 494.5 1102 c 128,-1,13
 504 1064 504 1064 526 1030.5 c 128,-1,14
 548 997 548 997 566 976.5 c 128,-1,15
 584 956 584 956 619 921 c 1,0,1
652 126 m 0,16,17
 772 126 772 126 856 169 c 128,-1,18
 940 212 940 212 1013 292 c 1,19,-1
 595 755 l 1,20,21
 549 729 549 729 516.5 707.5 c 128,-1,22
 484 686 484 686 445 653 c 128,-1,23
 406 620 406 620 382 586.5 c 128,-1,24
 358 553 358 553 341.5 507 c 128,-1,25
 325 461 325 461 325 409 c 0,26,27
 325 349 325 349 343 300.5 c 128,-1,28
 361 252 361 252 391 220 c 128,-1,29
 421 188 421 188 463.5 166.5 c 128,-1,30
 506 145 506 145 552.5 135.5 c 128,-1,31
 599 126 599 126 652 126 c 0,16,17
655 -24 m 0,32,33
 435 -24 435 -24 295 91.5 c 128,-1,34
 155 207 155 207 155 401 c 0,35,36
 155 443 155 443 161.5 481 c 128,-1,37
 168 519 168 519 183.5 552.5 c 128,-1,38
 199 586 199 586 214 613 c 128,-1,39
 229 640 229 640 255.5 667.5 c 128,-1,40
 282 695 282 695 300.5 713.5 c 128,-1,41
 319 732 319 732 352.5 756 c 128,-1,42
 386 780 386 780 403 792 c 128,-1,43
 420 804 420 804 456 827 c 128,-1,44
 492 850 492 850 504 858 c 1,45,46
 501 861 501 861 480 884.5 c 128,-1,47
 459 908 459 908 454 913.5 c 128,-1,48
 449 919 449 919 430.5 941 c 128,-1,49
 412 963 412 963 406.5 971.5 c 128,-1,50
 401 980 401 980 386 1001.5 c 128,-1,51
 371 1023 371 1023 366 1035.5 c 128,-1,52
 361 1048 361 1048 351.5 1069 c 128,-1,53
 342 1090 342 1090 338.5 1107.5 c 128,-1,54
 335 1125 335 1125 331.5 1146.5 c 128,-1,55
 328 1168 328 1168 328 1190 c 0,56,57
 328 1333 328 1333 420 1408 c 128,-1,58
 512 1483 512 1483 655 1483 c 0,59,60
 805 1483 805 1483 899.5 1404.5 c 128,-1,61
 994 1326 994 1326 994 1190 c 0,62,63
 994 1127 994 1127 969 1071 c 128,-1,64
 944 1015 944 1015 898 968.5 c 128,-1,65
 852 922 852 922 810.5 891 c 128,-1,66
 769 860 769 860 713 825 c 1,67,-1
 1092 401 l 1,68,69
 1189 552 1189 552 1219 761 c 0,70,71
 1230 832 1230 832 1230 890 c 1,72,-1
 1387 869 l 1,73,74
 1376 536 1376 536 1197 286 c 1,75,76
 1258 219 1258 219 1308.5 179.5 c 128,-1,77
 1359 140 1359 140 1430 115 c 0,78,79
 1467 102 1467 102 1533 87 c 1,80,-1
 1409 -12 l 1,81,82
 1388 -9 1388 -9 1368 -3 c 128,-1,83
 1348 3 1348 3 1332.5 8 c 128,-1,84
 1317 13 1317 13 1298 25 c 128,-1,85
 1279 37 1279 37 1268 42.5 c 128,-1,86
 1257 48 1257 48 1238 64 c 128,-1,87
 1219 80 1219 80 1212 85.5 c 128,-1,88
 1205 91 1205 91 1185 111 c 128,-1,89
 1165 131 1165 131 1161 135 c 128,-1,90
 1157 139 1157 139 1135.5 162 c 128,-1,91
 1114 185 1114 185 1112 187 c 1,92,93
 1021 89 1021 89 911.5 32.5 c 128,-1,94
 802 -24 802 -24 655 -24 c 0,32,33
EndSplineSet
EndChar

StartChar: quotesingle
Encoding: 39 39 10
Width: 564
GlyphClass: 2
Flags: W
LayerCount: 2
UndoRedoHistory
Layer: 1
Undoes
EndUndoes
Redoes
EndRedoes
EndUndoRedoHistory
Fore
SplineSet
235 994 m 1,0,-1
 199 1456 l 1,1,-1
 365 1456 l 1,2,-1
 349 994 l 1,3,-1
 235 994 l 1,0,-1
EndSplineSet
EndChar

StartChar: parenleft
Encoding: 40 40 11
Width: 636
GlyphClass: 2
Flags: W
LayerCount: 2
UndoRedoHistory
Layer: 1
Undoes
EndUndoes
Redoes
EndRedoes
EndUndoRedoHistory
Fore
SplineSet
431 -214 m 1,0,1
 156 219 156 219 156 664 c 0,2,3
 156 1104 156 1104 437 1551 c 1,4,-1
 584 1551 l 1,5,6
 323 1131 323 1131 323 668 c 0,7,8
 324 664 324 664 324 660 c 0,9,10
 326 192 326 192 580 -214 c 1,11,-1
 431 -214 l 1,0,1
EndSplineSet
EndChar

StartChar: parenright
Encoding: 41 41 12
Width: 636
GlyphClass: 2
Flags: W
LayerCount: 2
UndoRedoHistory
Layer: 1
Undoes
EndUndoes
Redoes
EndRedoes
EndUndoRedoHistory
Fore
SplineSet
86 -214 m 1,0,1
 340 192 340 192 342 660 c 0,2,3
 342 664 342 664 343 668 c 0,4,5
 343 1131 343 1131 82 1551 c 1,6,-1
 229 1551 l 1,7,8
 510 1103 510 1103 510 664 c 0,9,10
 510 220 510 220 235 -214 c 1,11,-1
 86 -214 l 1,0,1
EndSplineSet
EndChar

StartChar: asterisk
Encoding: 42 42 13
Width: 1120
GlyphClass: 2
Flags: W
LayerCount: 2
UndoRedoHistory
Layer: 1
Undoes
EndUndoes
Redoes
EndRedoes
EndUndoRedoHistory
Fore
SplineSet
734 742 m 1,0,-1
 576 1008 l 1,1,-1
 421 740 l 1,2,-1
 297 815 l 1,3,-1
 494 1063 l 1,4,-1
 202 1151 l 1,5,-1
 243 1276 l 1,6,-1
 525 1153 l 1,7,-1
 489 1456 l 1,8,-1
 643 1456 l 1,9,-1
 622 1158 l 1,10,-1
 854 1279 l 1,11,-1
 918 1154 l 1,12,-1
 656 1066 l 1,13,-1
 860 815 l 1,14,-1
 734 742 l 1,0,-1
EndSplineSet
EndChar

StartChar: plus
Encoding: 43 43 14
Width: 1243
GlyphClass: 2
Flags: W
LayerCount: 2
UndoRedoHistory
Layer: 1
Undoes
EndUndoes
Redoes
EndRedoes
EndUndoRedoHistory
Fore
SplineSet
551 202 m 1,0,-1
 551 675 l 1,1,-1
 130 675 l 1,2,-1
 130 814 l 1,3,-1
 554 814 l 1,4,-1
 554 1282 l 1,5,-1
 702 1282 l 1,6,-1
 702 814 l 1,7,-1
 1123 814 l 1,8,-1
 1123 675 l 1,9,-1
 700 675 l 1,10,-1
 700 202 l 1,11,-1
 551 202 l 1,0,-1
EndSplineSet
EndChar

StartChar: comma
Encoding: 44 44 15
Width: 550
GlyphClass: 2
Flags: W
AnchorPoint: "Anchor-1" 268 346 mark 0
LayerCount: 2
UndoRedoHistory
Layer: 1
Undoes
EndUndoes
Redoes
EndRedoes
EndUndoRedoHistory
Fore
SplineSet
100 -310 m 1,0,-1
 207 207 l 1,1,-1
 394 207 l 1,2,-1
 231 -310 l 1,3,-1
 100 -310 l 1,0,-1
EndSplineSet
EndChar

StartChar: hyphen
Encoding: 45 45 16
Width: 1247
GlyphClass: 2
Flags: W
LayerCount: 2
UndoRedoHistory
Layer: 1
Undoes
EndUndoes
Redoes
EndRedoes
EndUndoRedoHistory
Fore
SplineSet
229 637 m 1,0,-1
 229 780 l 1,1,-1
 1028 780 l 1,2,-1
 1028 637 l 1,3,-1
 229 637 l 1,0,-1
EndSplineSet
EndChar

StartChar: period
Encoding: 46 46 17
Width: 550
GlyphClass: 2
Flags: W
LayerCount: 2
UndoRedoHistory
Layer: 1
Undoes
EndUndoes
Redoes
EndRedoes
EndUndoRedoHistory
Fore
SplineSet
261 -16 m 0,0,1
 211 -16 211 -16 182.5 14.5 c 128,-1,2
 154 45 154 45 154 90 c 0,3,4
 154 137 154 137 186.5 166 c 128,-1,5
 219 195 219 195 262 195 c 0,6,7
 312 195 312 195 340.5 164.5 c 128,-1,8
 369 134 369 134 369 89 c 0,9,10
 369 42 369 42 336.5 13 c 128,-1,11
 304 -16 304 -16 261 -16 c 0,0,1
EndSplineSet
EndChar

StartChar: slash
Encoding: 47 47 18
Width: 863
GlyphClass: 2
Flags: W
LayerCount: 2
UndoRedoHistory
Layer: 1
Undoes
EndUndoes
Redoes
EndRedoes
EndUndoRedoHistory
Fore
SplineSet
41 0 m 1,0,-1
 666 1456 l 1,1,-1
 833 1456 l 1,2,-1
 204 0 l 1,3,-1
 41 0 l 1,0,-1
EndSplineSet
EndChar

StartChar: zero
Encoding: 48 48 19
Width: 1244
GlyphClass: 2
Flags: W
LayerCount: 2
UndoRedoHistory
Layer: 1
Undoes
EndUndoes
Redoes
EndRedoes
EndUndoRedoHistory
Fore
SplineSet
618 -24 m 0,0,1
 509 -24 509 -24 423.5 17 c 128,-1,2
 338 58 338 58 282.5 127 c 128,-1,3
 227 196 227 196 191.5 293.5 c 128,-1,4
 156 391 156 391 141 497 c 128,-1,5
 126 603 126 603 126 726 c 0,6,7
 126 848 126 848 141.5 955.5 c 128,-1,8
 157 1063 157 1063 194 1161 c 128,-1,9
 231 1259 231 1259 287 1328.5 c 128,-1,10
 343 1398 343 1398 429 1439 c 128,-1,11
 515 1480 515 1480 623 1480 c 0,12,13
 737 1480 737 1480 824.5 1440 c 128,-1,14
 912 1400 912 1400 967 1332.5 c 128,-1,15
 1022 1265 1022 1265 1056.5 1166.5 c 128,-1,16
 1091 1068 1091 1068 1104.5 961.5 c 128,-1,17
 1118 855 1118 855 1118 726 c 0,18,19
 1118 607 1118 607 1101.5 500 c 128,-1,20
 1085 393 1085 393 1047 296 c 128,-1,21
 1009 199 1009 199 952.5 129 c 128,-1,22
 896 59 896 59 810.5 17.5 c 128,-1,23
 725 -24 725 -24 618 -24 c 0,0,1
623 126 m 0,24,25
 684 126 684 126 733 151 c 128,-1,26
 782 176 782 176 815.5 222 c 128,-1,27
 849 268 849 268 872.5 324.5 c 128,-1,28
 896 381 896 381 909 451 c 128,-1,29
 922 521 922 521 928 587.5 c 128,-1,30
 934 654 934 654 934 726 c 0,31,32
 934 793 934 793 931 850 c 128,-1,33
 928 907 928 907 919.5 970.5 c 128,-1,34
 911 1034 911 1034 897 1084 c 128,-1,35
 883 1134 883 1134 859.5 1181.5 c 128,-1,36
 836 1229 836 1229 804 1260.5 c 128,-1,37
 772 1292 772 1292 726 1311 c 128,-1,38
 680 1330 680 1330 623 1330 c 0,39,40
 549 1330 549 1330 492.5 1293 c 128,-1,41
 436 1256 436 1256 402.5 1197 c 128,-1,42
 369 1138 369 1138 347.5 1056 c 128,-1,43
 326 974 326 974 318 894.5 c 128,-1,44
 310 815 310 815 310 726 c 0,45,46
 310 659 310 659 313 602 c 128,-1,47
 316 545 316 545 324.5 482 c 128,-1,48
 333 419 333 419 347 369 c 128,-1,49
 361 319 361 319 385 272 c 128,-1,50
 409 225 409 225 441.5 194 c 128,-1,51
 474 163 474 163 520 144.5 c 128,-1,52
 566 126 566 126 623 126 c 0,24,25
EndSplineSet
EndChar

StartChar: one
Encoding: 49 49 20
Width: 819
GlyphClass: 2
Flags: W
LayerCount: 2
UndoRedoHistory
Layer: 1
Undoes
EndUndoes
Redoes
EndRedoes
EndUndoRedoHistory
Fore
SplineSet
391 0 m 1,0,-1
 391 1308 l 1,1,-1
 272 1308 l 1,2,-1
 272 1456 l 1,3,-1
 398 1456 l 1,4,-1
 563 1456 l 1,5,-1
 563 0 l 1,6,-1
 391 0 l 1,0,-1
EndSplineSet
EndChar

StartChar: two
Encoding: 50 50 21
Width: 1244
GlyphClass: 2
Flags: W
LayerCount: 2
UndoRedoHistory
Layer: 1
Undoes
EndUndoes
Redoes
EndRedoes
EndUndoRedoHistory
Fore
SplineSet
594 1480 m 0,0,1
 790 1480 790 1480 903 1368.5 c 128,-1,2
 1016 1257 1016 1257 1021 1062 c 0,3,4
 1021 1054 1021 1054 1021 1046 c 0,5,6
 1021 978 1021 978 1006 914 c 0,7,8
 989 844 989 844 947.5 770 c 128,-1,9
 906 696 906 696 863 636 c 128,-1,10
 820 576 820 576 746 484 c 2,11,-1
 472 138 l 1,12,-1
 1036 138 l 1,13,-1
 1036 0 l 1,14,-1
 256 0 l 1,15,-1
 256 128 l 1,16,-1
 636 604 l 2,17,18
 750 746 750 746 803 858 c 0,19,20
 851 958 851 958 851 1050 c 0,21,22
 851 1060 851 1060 850 1071 c 1,23,24
 845 1190 845 1190 780 1260 c 128,-1,25
 715 1330 715 1330 597 1330 c 0,26,27
 565 1330 565 1330 534.5 1323.5 c 128,-1,28
 504 1317 504 1317 479.5 1305.5 c 128,-1,29
 455 1294 455 1294 432 1279.5 c 128,-1,30
 409 1265 409 1265 391 1248.5 c 128,-1,31
 373 1232 373 1232 357.5 1216 c 128,-1,32
 342 1200 342 1200 331 1185.5 c 128,-1,33
 320 1171 320 1171 312 1159.5 c 128,-1,34
 304 1148 304 1148 300 1142 c 2,35,-1
 296 1135 l 1,36,-1
 198 1263 l 1,37,38
 204 1272 204 1272 214.5 1286.5 c 128,-1,39
 225 1301 225 1301 263 1338.5 c 128,-1,40
 301 1376 301 1376 343.5 1404.5 c 128,-1,41
 386 1433 386 1433 454 1456.5 c 128,-1,42
 522 1480 522 1480 594 1480 c 0,0,1
EndSplineSet
EndChar

StartChar: three
Encoding: 51 51 22
Width: 1244
GlyphClass: 2
Flags: W
LayerCount: 2
UndoRedoHistory
Layer: 1
Undoes
EndUndoes
Redoes
EndRedoes
EndUndoRedoHistory
Fore
SplineSet
599 -24 m 0,0,1
 375 -24 375 -24 193 85 c 1,2,-1
 246 225 l 1,3,4
 435 125 435 125 604 125 c 0,5,6
 742 125 742 125 825 196.5 c 128,-1,7
 908 268 908 268 908 406 c 0,8,9
 908 549 908 549 807.5 622.5 c 128,-1,10
 707 696 707 696 524 696 c 2,11,-1
 446 696 l 1,12,-1
 446 844 l 1,13,-1
 510 844 l 2,14,15
 687 844 687 844 773 901 c 128,-1,16
 859 958 859 958 859 1095 c 2,17,-1
 859 1111 l 1,18,19
 855 1213 855 1213 775.5 1271.5 c 128,-1,20
 696 1330 696 1330 579 1330 c 0,21,22
 490 1330 490 1330 400 1294 c 128,-1,23
 310 1258 310 1258 239 1186 c 1,24,-1
 143 1295 l 1,25,26
 218 1385 218 1385 334.5 1433 c 128,-1,27
 451 1481 451 1481 576 1481 c 0,28,29
 662 1481 662 1481 740.5 1457.5 c 128,-1,30
 819 1434 819 1434 882 1389 c 128,-1,31
 945 1344 945 1344 983 1271.5 c 128,-1,32
 1021 1199 1021 1199 1024 1109 c 1,33,-1
 1024 1093 l 2,34,35
 1024 839 1024 839 789 769 c 1,36,37
 929 740 929 740 1003.5 644 c 128,-1,38
 1078 548 1078 548 1078 404 c 0,39,40
 1078 293 1078 293 1038.5 208.5 c 128,-1,41
 999 124 999 124 931 74.5 c 128,-1,42
 863 25 863 25 779.5 0.5 c 128,-1,43
 696 -24 696 -24 599 -24 c 0,0,1
EndSplineSet
EndChar

StartChar: four
Encoding: 52 52 23
Width: 1240
GlyphClass: 2
Flags: W
LayerCount: 2
UndoRedoHistory
Layer: 1
Undoes
EndUndoes
Redoes
EndRedoes
EndUndoRedoHistory
Fore
SplineSet
929 868 m 1,0,-1
 929 509 l 1,1,-1
 1158 509 l 1,2,-1
 1158 370 l 1,3,-1
 930 370 l 1,4,-1
 930 0 l 1,5,-1
 758 0 l 1,6,-1
 758 370 l 1,7,-1
 161 370 l 1,8,-1
 161 499 l 1,9,-1
 596 1456 l 1,10,-1
 764 1456 l 1,11,-1
 362 509 l 1,12,-1
 758 509 l 1,13,-1
 758 868 l 1,14,-1
 929 868 l 1,0,-1
EndSplineSet
EndChar

StartChar: five
Encoding: 53 53 24
Width: 1244
GlyphClass: 2
Flags: W
LayerCount: 2
UndoRedoHistory
Layer: 1
Undoes
EndUndoes
Redoes
EndRedoes
EndUndoRedoHistory
Fore
SplineSet
627 -24 m 0,0,1
 503 -24 503 -24 381 29 c 128,-1,2
 259 82 259 82 172 179 c 1,3,-1
 263 295 l 1,4,5
 340 207 340 207 434.5 165 c 128,-1,6
 529 123 529 123 625 123 c 0,7,8
 773 123 773 123 854.5 218 c 128,-1,9
 936 313 936 313 936 468 c 0,10,11
 936 599 936 599 868 685.5 c 128,-1,12
 800 772 800 772 674 772 c 0,13,14
 585 772 585 772 514.5 738.5 c 128,-1,15
 444 705 444 705 411 656 c 1,16,-1
 254 698 l 1,17,-1
 269 1456 l 1,18,-1
 1000 1456 l 1,19,-1
 1000 1306 l 1,20,-1
 422 1306 l 1,21,-1
 401 814 l 1,22,23
 446 862 446 862 521.5 889.5 c 128,-1,24
 597 917 597 917 671 917 c 0,25,26
 859 917 859 917 977.5 793 c 128,-1,27
 1096 669 1096 669 1096 468 c 0,28,29
 1096 329 1096 329 1044 219.5 c 128,-1,30
 992 110 992 110 884 43 c 128,-1,31
 776 -24 776 -24 627 -24 c 0,0,1
EndSplineSet
EndChar

StartChar: six
Encoding: 54 54 25
Width: 1244
GlyphClass: 2
Flags: W
LayerCount: 2
UndoRedoHistory
Layer: 1
Undoes
EndUndoes
Redoes
EndRedoes
EndUndoRedoHistory
Fore
SplineSet
673 126 m 0,0,1
 806 126 806 126 883 215.5 c 128,-1,2
 960 305 960 305 960 459 c 0,3,4
 960 612 960 612 886 707 c 128,-1,5
 812 802 812 802 665 802 c 0,6,7
 526 802 526 802 430.5 707 c 128,-1,8
 335 612 335 612 335 469 c 0,9,10
 335 379 335 379 373.5 302 c 128,-1,11
 412 225 412 225 490.5 175.5 c 128,-1,12
 569 126 569 126 673 126 c 0,0,1
675 -24 m 0,13,14
 575 -24 575 -24 492.5 6 c 128,-1,15
 410 36 410 36 353.5 85.5 c 128,-1,16
 297 135 297 135 256 203.5 c 128,-1,17
 215 272 215 272 194.5 346 c 128,-1,18
 174 420 174 420 168 501 c 0,19,20
 165 545 165 545 165 589 c 0,21,22
 165 667 165 667 175 745 c 0,23,24
 191 866 191 866 242 990.5 c 128,-1,25
 293 1115 293 1115 374.5 1215 c 128,-1,26
 456 1315 456 1315 590 1390 c 128,-1,27
 724 1465 724 1465 895 1492 c 1,28,-1
 929 1359 l 1,29,30
 684 1325 684 1325 533 1165 c 128,-1,31
 382 1005 382 1005 342 768 c 1,32,33
 387 852 387 852 491 899 c 128,-1,34
 595 946 595 946 687 946 c 0,35,36
 878 946 878 946 1002.5 807.5 c 128,-1,37
 1127 669 1127 669 1127 464 c 0,38,39
 1127 251 1127 251 996 113.5 c 128,-1,40
 865 -24 865 -24 675 -24 c 0,13,14
EndSplineSet
EndChar

StartChar: seven
Encoding: 55 55 26
Width: 1244
GlyphClass: 2
Flags: W
LayerCount: 2
UndoRedoHistory
Layer: 1
Undoes
EndUndoes
Redoes
EndRedoes
EndUndoRedoHistory
Fore
SplineSet
395 0 m 1,0,-1
 919 1311 l 1,1,-1
 197 1311 l 1,2,-1
 197 1456 l 1,3,-1
 1119 1456 l 1,4,-1
 1119 1365 l 1,5,-1
 581 0 l 1,6,-1
 395 0 l 1,0,-1
EndSplineSet
EndChar

StartChar: eight
Encoding: 56 56 27
Width: 1244
GlyphClass: 2
Flags: W
LayerCount: 2
UndoRedoHistory
Layer: 1
Undoes
EndUndoes
Redoes
EndRedoes
EndUndoRedoHistory
Fore
SplineSet
621 840 m 1,0,1
 890 892 890 892 890 1116 c 0,2,3
 890 1228 890 1228 815 1286 c 128,-1,4
 740 1344 740 1344 621 1344 c 0,5,6
 499 1344 499 1344 426.5 1283 c 128,-1,7
 354 1222 354 1222 354 1116 c 0,8,9
 354 891 354 891 621 840 c 1,0,1
621 120 m 0,10,11
 759 120 759 120 839 191.5 c 128,-1,12
 919 263 919 263 919 390 c 0,13,14
 919 457 919 457 894.5 511 c 128,-1,15
 870 565 870 565 826 600.5 c 128,-1,16
 782 636 782 636 732 658 c 128,-1,17
 682 680 682 680 621 693 c 1,18,19
 489 665 489 665 407 589 c 128,-1,20
 325 513 325 513 325 390 c 0,21,22
 325 259 325 259 406 189.5 c 128,-1,23
 487 120 487 120 621 120 c 0,10,11
621 -24 m 0,24,25
 412 -24 412 -24 280 86 c 128,-1,26
 148 196 148 196 148 377 c 0,27,28
 148 529 148 529 230 627 c 128,-1,29
 312 725 312 725 450 767 c 1,30,31
 328 806 328 806 255.5 894.5 c 128,-1,32
 183 983 183 983 183 1121 c 0,33,34
 183 1215 183 1215 219 1286 c 128,-1,35
 255 1357 255 1357 317.5 1398.5 c 128,-1,36
 380 1440 380 1440 456.5 1460 c 128,-1,37
 533 1480 533 1480 621 1480 c 0,38,39
 818 1480 818 1480 939.5 1383.5 c 128,-1,40
 1061 1287 1061 1287 1061 1121 c 0,41,42
 1061 984 1061 984 985 895.5 c 128,-1,43
 909 807 909 807 785 767 c 1,44,45
 925 724 925 724 1010.5 626 c 128,-1,46
 1096 528 1096 528 1096 377 c 0,47,48
 1096 276 1096 276 1059.5 198 c 128,-1,49
 1023 120 1023 120 957.5 72.5 c 128,-1,50
 892 25 892 25 807 0.5 c 128,-1,51
 722 -24 722 -24 621 -24 c 0,24,25
EndSplineSet
EndChar

StartChar: nine
Encoding: 57 57 28
Width: 1244
GlyphClass: 2
Flags: W
LayerCount: 2
UndoRedoHistory
Layer: 1
Undoes
EndUndoes
Redoes
EndRedoes
EndUndoRedoHistory
Fore
SplineSet
818 1306 m 1,0,1
 802 1316 802 1316 761.5 1326.5 c 128,-1,2
 721 1337 721 1337 666 1337 c 0,3,4
 589 1337 589 1337 526.5 1306.5 c 128,-1,5
 464 1276 464 1276 426 1225.5 c 128,-1,6
 388 1175 388 1175 368 1115 c 128,-1,7
 348 1055 348 1055 348 991 c 0,8,9
 348 887 348 887 401.5 822.5 c 128,-1,10
 455 758 455 758 540 758 c 0,11,12
 589 758 589 758 637 783.5 c 128,-1,13
 685 809 685 809 726 857.5 c 128,-1,14
 767 906 767 906 792.5 988 c 128,-1,15
 818 1070 818 1070 818 1173 c 2,16,-1
 818 1306 l 1,0,1
990 1330 m 1,17,-1
 990 1245 l 1,18,-1
 990 0 l 1,19,-1
 824 0 l 1,20,-1
 824 768 l 1,21,22
 756 696 756 696 678.5 659.5 c 128,-1,23
 601 623 601 623 519 623 c 0,24,25
 378 623 378 623 277.5 722.5 c 128,-1,26
 177 822 177 822 177 983 c 0,27,28
 177 1074 177 1074 207.5 1161 c 128,-1,29
 238 1248 238 1248 294.5 1320 c 128,-1,30
 351 1392 351 1392 443 1436 c 128,-1,31
 535 1480 535 1480 647 1480 c 0,32,33
 861 1480 861 1480 990 1383 c 1,34,-1
 990 1330 l 1,17,-1
EndSplineSet
EndChar

StartChar: colon
Encoding: 58 58 29
Width: 550
GlyphClass: 2
Flags: W
LayerCount: 2
UndoRedoHistory
Layer: 1
Undoes
EndUndoes
Redoes
EndRedoes
EndUndoRedoHistory
Fore
SplineSet
169 816 m 1,0,-1
 169 1026 l 1,1,-1
 386 1026 l 1,2,-1
 386 816 l 1,3,-1
 169 816 l 1,0,-1
169 0 m 1,4,-1
 169 210 l 1,5,-1
 386 210 l 1,6,-1
 386 0 l 1,7,-1
 169 0 l 1,4,-1
EndSplineSet
EndChar

StartChar: semicolon
Encoding: 59 59 30
Width: 550
GlyphClass: 2
Flags: W
LayerCount: 2
UndoRedoHistory
Layer: 1
Undoes
EndUndoes
Redoes
EndRedoes
EndUndoRedoHistory
Fore
SplineSet
169 816 m 1,0,-1
 169 1026 l 1,1,-1
 386 1026 l 1,2,-1
 386 816 l 1,3,-1
 169 816 l 1,0,-1
110 -256 m 1,4,-1
 216 207 l 1,5,-1
 404 207 l 1,6,-1
 241 -256 l 1,7,-1
 110 -256 l 1,4,-1
EndSplineSet
EndChar

StartChar: less
Encoding: 60 60 31
Width: 1410
GlyphClass: 2
Flags: W
LayerCount: 2
UndoRedoHistory
Layer: 1
Undoes
EndUndoes
Redoes
EndRedoes
EndUndoRedoHistory
Fore
SplineSet
1174 48 m 1,0,-1
 192 508 l 1,1,-1
 192 595 l 1,2,-1
 1178 1067 l 1,3,-1
 1178 914 l 1,4,-1
 411 552 l 1,5,-1
 1174 200 l 1,6,-1
 1174 48 l 1,0,-1
EndSplineSet
EndChar

StartChar: equal
Encoding: 61 61 32
Width: 1242
GlyphClass: 2
Flags: W
LayerCount: 2
UndoRedoHistory
Layer: 1
Undoes
EndUndoes
Redoes
EndRedoes
EndUndoRedoHistory
Fore
SplineSet
189 809 m 1,0,-1
 189 947 l 1,1,-1
 1062 947 l 1,2,-1
 1062 809 l 1,3,-1
 189 809 l 1,0,-1
190 403 m 1,4,-1
 190 540 l 1,5,-1
 1063 540 l 1,6,-1
 1063 403 l 1,7,-1
 190 403 l 1,4,-1
EndSplineSet
EndChar

StartChar: greater
Encoding: 62 62 33
Width: 1411
GlyphClass: 2
Flags: W
LayerCount: 2
UndoRedoHistory
Layer: 1
Undoes
EndUndoes
Redoes
EndRedoes
EndUndoRedoHistory
Fore
SplineSet
232 58 m 1,0,-1
 232 212 l 1,1,-1
 1000 555 l 1,2,-1
 237 926 l 1,3,-1
 237 1078 l 1,4,-1
 1221 594 l 1,5,-1
 1221 505 l 1,6,-1
 232 58 l 1,0,-1
EndSplineSet
EndChar

StartChar: question
Encoding: 63 63 34
Width: 1035
GlyphClass: 2
Flags: W
LayerCount: 2
UndoRedoHistory
Layer: 1
Undoes
EndUndoes
Redoes
EndRedoes
EndUndoRedoHistory
Fore
SplineSet
428 0 m 0,0,1
 378 0 378 0 349.5 30.5 c 128,-1,2
 321 61 321 61 321 106 c 0,3,4
 321 153 321 153 353.5 182 c 128,-1,5
 386 211 386 211 429 211 c 0,6,7
 478 211 478 211 506 180.5 c 128,-1,8
 534 150 534 150 534 105 c 0,9,10
 534 58 534 58 502.5 29 c 128,-1,11
 471 0 471 0 428 0 c 0,0,1
359 368 m 1,12,13
 359 441 359 441 379 505.5 c 128,-1,14
 399 570 399 570 431.5 618 c 128,-1,15
 464 666 464 666 503 711.5 c 128,-1,16
 542 757 542 757 581.5 801 c 128,-1,17
 621 845 621 845 653.5 891 c 128,-1,18
 686 937 686 937 706 997 c 128,-1,19
 726 1057 726 1057 726 1125 c 0,20,21
 726 1178 726 1178 705.5 1218 c 128,-1,22
 685 1258 685 1258 648.5 1281.5 c 128,-1,23
 612 1305 612 1305 567.5 1317 c 128,-1,24
 523 1329 523 1329 471 1330 c 0,25,26
 465 1330 465 1330 458 1330 c 0,27,28
 307 1330 307 1330 186 1262 c 1,29,-1
 186 1413 l 1,30,31
 330 1483 330 1483 467 1483 c 0,32,33
 670 1483 670 1483 782.5 1387 c 128,-1,34
 895 1291 895 1291 895 1133 c 0,35,36
 895 1057 895 1057 872.5 990 c 128,-1,37
 850 923 850 923 813.5 872 c 128,-1,38
 777 821 777 821 733.5 773.5 c 128,-1,39
 690 726 690 726 646 681 c 128,-1,40
 602 636 602 636 565.5 590.5 c 128,-1,41
 529 545 529 545 506.5 488 c 128,-1,42
 484 431 484 431 484 368 c 1,43,-1
 359 368 l 1,12,13
EndSplineSet
EndChar

StartChar: at
Encoding: 64 64 35
Width: 1859
GlyphClass: 2
Flags: W
LayerCount: 2
UndoRedoHistory
Layer: 1
Undoes
EndUndoes
Redoes
EndRedoes
EndUndoRedoHistory
Fore
SplineSet
852 410 m 0,0,1
 917 410 917 410 976 453 c 128,-1,2
 1035 496 1035 496 1074.5 563 c 128,-1,3
 1114 630 1114 630 1137.5 710.5 c 128,-1,4
 1161 791 1161 791 1161 866 c 0,5,6
 1161 959 1161 959 1118 1023.5 c 128,-1,7
 1075 1088 1075 1088 996 1088 c 0,8,9
 906 1088 906 1088 829.5 1026 c 128,-1,10
 753 964 753 964 709 859.5 c 128,-1,11
 665 755 665 755 665 635 c 0,12,13
 665 527 665 527 716 468.5 c 128,-1,14
 767 410 767 410 852 410 c 0,0,1
966 -61 m 0,15,16
 796 -61 796 -61 645.5 -2.5 c 128,-1,17
 495 56 495 56 386 159 c 128,-1,18
 277 262 277 262 213.5 409.5 c 128,-1,19
 150 557 150 557 150 727 c 0,20,21
 150 954 150 954 261 1137.5 c 128,-1,22
 372 1321 372 1321 559 1422.5 c 128,-1,23
 746 1524 746 1524 970 1524 c 0,24,25
 1125 1524 1125 1524 1264 1474.5 c 128,-1,26
 1403 1425 1403 1425 1507 1337.5 c 128,-1,27
 1611 1250 1611 1250 1672 1120.5 c 128,-1,28
 1733 991 1733 991 1733 839 c 0,29,30
 1733 724 1733 724 1698 624 c 128,-1,31
 1663 524 1663 524 1605 456 c 128,-1,32
 1547 388 1547 388 1470 349 c 128,-1,33
 1393 310 1393 310 1311 310 c 0,34,35
 1225 310 1225 310 1179 368.5 c 128,-1,36
 1133 427 1133 427 1133 525 c 1,37,38
 1092 428 1092 428 1002 365 c 128,-1,39
 912 302 912 302 826 302 c 0,40,41
 748 302 748 302 687.5 334 c 128,-1,42
 627 366 627 366 593 418.5 c 128,-1,43
 559 471 559 471 542.5 531 c 128,-1,44
 526 591 526 591 526 655 c 0,45,46
 526 795 526 795 592 917.5 c 128,-1,47
 658 1040 658 1040 766 1111.5 c 128,-1,48
 874 1183 874 1183 993 1183 c 0,49,50
 1068 1183 1068 1183 1126.5 1151.5 c 128,-1,51
 1185 1120 1185 1120 1213 1067 c 1,52,-1
 1231 1152 l 1,53,-1
 1371 1152 l 1,54,55
 1351 1059 1351 1059 1324.5 939 c 128,-1,56
 1298 819 1298 819 1284.5 758 c 128,-1,57
 1271 697 1271 697 1257 630 c 128,-1,58
 1243 563 1243 563 1237.5 527 c 128,-1,59
 1232 491 1232 491 1232 471 c 0,60,61
 1232 428 1232 428 1250.5 406.5 c 128,-1,62
 1269 385 1269 385 1311 385 c 0,63,64
 1441 385 1441 385 1531 514 c 128,-1,65
 1621 643 1621 643 1621 842 c 0,66,67
 1621 975 1621 975 1567.5 1087 c 128,-1,68
 1514 1199 1514 1199 1423.5 1273.5 c 128,-1,69
 1333 1348 1333 1348 1215 1389 c 128,-1,70
 1097 1430 1097 1430 968 1430 c 0,71,72
 773 1430 773 1430 615 1338.5 c 128,-1,73
 457 1247 457 1247 367 1085.5 c 128,-1,74
 277 924 277 924 277 725 c 0,75,76
 277 416 277 416 470.5 228 c 128,-1,77
 664 40 664 40 971 40 c 0,78,79
 1150 40 1150 40 1265 88.5 c 128,-1,80
 1380 137 1380 137 1484 230 c 1,81,-1
 1541 170 l 1,82,83
 1446 62 1446 62 1298 0.5 c 128,-1,84
 1150 -61 1150 -61 966 -61 c 0,15,16
EndSplineSet
EndChar

StartChar: A
Encoding: 65 65 36
Width: 1397
GlyphClass: 2
Flags: W
AnchorPoint: "Anchor-2" 1260 0 basechar 0
AnchorPoint: "Anchor-1" 736 0 basechar 0
AnchorPoint: "Anchor-0" 702 1536 basechar 0
LayerCount: 2
UndoRedoHistory
Layer: 1
Undoes
EndUndoes
Redoes
EndRedoes
EndUndoRedoHistory
Fore
SplineSet
427 531 m 1,0,-1
 964 531 l 1,1,-1
 794 997 l 1,2,-1
 698 1271 l 1,3,-1
 596 996 l 1,4,-1
 427 531 l 1,0,-1
40 0 m 1,5,-1
 609 1456 l 1,6,-1
 787 1456 l 1,7,-1
 1357 0 l 1,8,-1
 1166 0 l 1,9,-1
 1016 395 l 1,10,-1
 375 395 l 1,11,-1
 226 0 l 1,12,-1
 40 0 l 1,5,-1
EndSplineSet
EndChar

StartChar: B
Encoding: 66 66 37
Width: 1294
GlyphClass: 2
Flags: W
AnchorPoint: "Anchor-1" 676 0 basechar 0
AnchorPoint: "Anchor-0" 700 1536 basechar 0
LayerCount: 2
UndoRedoHistory
Layer: 1
Undoes
EndUndoes
Redoes
EndRedoes
EndUndoRedoHistory
Fore
SplineSet
372 825 m 1,0,-1
 555 825 l 2,1,2
 758 825 758 825 845.5 883.5 c 128,-1,3
 933 942 933 942 933 1077 c 0,4,5
 933 1207 933 1207 850 1262.5 c 128,-1,6
 767 1318 767 1318 571 1318 c 2,7,-1
 372 1318 l 1,8,-1
 372 825 l 1,0,-1
372 138 m 1,9,-1
 628 138 l 2,10,11
 822 138 822 138 910 200.5 c 128,-1,12
 998 263 998 263 998 406 c 0,13,14
 998 554 998 554 902 619 c 128,-1,15
 806 684 806 684 584 684 c 2,16,-1
 372 684 l 1,17,-1
 372 138 l 1,9,-1
200 0 m 1,18,-1
 200 1456 l 1,19,-1
 571 1456 l 2,20,21
 847 1456 847 1456 980.5 1373 c 128,-1,22
 1114 1290 1114 1290 1114 1105 c 0,23,24
 1114 967 1114 967 1058 888.5 c 128,-1,25
 1002 810 1002 810 881 769 c 1,26,27
 1032 739 1032 739 1106 652.5 c 128,-1,28
 1180 566 1180 566 1180 403 c 0,29,30
 1180 0 1180 0 634 0 c 2,31,-1
 200 0 l 1,18,-1
EndSplineSet
EndChar

StartChar: C
Encoding: 67 67 38
Width: 1369
GlyphClass: 2
Flags: W
AnchorPoint: "Anchor-1" 826 0 basechar 0
AnchorPoint: "Anchor-0" 790 1536 basechar 0
LayerCount: 2
UndoRedoHistory
Layer: 1
Undoes
EndUndoes
Redoes
EndRedoes
EndUndoRedoHistory
Fore
SplineSet
804 -24 m 0,0,1
 656 -24 656 -24 529.5 28 c 128,-1,2
 403 80 403 80 311.5 175 c 128,-1,3
 220 270 220 270 168 411 c 128,-1,4
 116 552 116 552 116 722 c 0,5,6
 116 885 116 885 166 1025.5 c 128,-1,7
 216 1166 216 1166 305.5 1266 c 128,-1,8
 395 1366 395 1366 523 1423 c 128,-1,9
 651 1480 651 1480 802 1480 c 0,10,11
 1067 1480 1067 1480 1255 1332 c 1,12,-1
 1177 1210 l 1,13,14
 1017 1330 1017 1330 820 1330 c 0,15,16
 697 1330 697 1330 597.5 1282.5 c 128,-1,17
 498 1235 498 1235 433.5 1152 c 128,-1,18
 369 1069 369 1069 334 959 c 128,-1,19
 299 849 299 849 299 722 c 0,20,21
 299 454 299 454 436.5 290 c 128,-1,22
 574 126 574 126 811 126 c 0,23,24
 1038 126 1038 126 1217 271 c 1,25,-1
 1277 129 l 1,26,27
 1080 -24 1080 -24 804 -24 c 0,0,1
EndSplineSet
EndChar

StartChar: D
Encoding: 68 68 39
Width: 1518
GlyphClass: 2
Flags: W
AnchorPoint: "Anchor-1" 676 0 basechar 0
AnchorPoint: "Anchor-0" 700 1536 basechar 0
LayerCount: 2
UndoRedoHistory
Layer: 1
Undoes
EndUndoes
Redoes
EndRedoes
EndUndoRedoHistory
Fore
SplineSet
200 0 m 1,0,-1
 200 1456 l 1,1,-1
 509 1456 l 2,2,3
 672 1456 672 1456 804.5 1433 c 128,-1,4
 937 1410 937 1410 1050 1356.5 c 128,-1,5
 1163 1303 1163 1303 1239.5 1219.5 c 128,-1,6
 1316 1136 1316 1136 1359 1011 c 128,-1,7
 1402 886 1402 886 1402 724 c 0,8,9
 1402 546 1402 546 1343.5 407.5 c 128,-1,10
 1285 269 1285 269 1179 180.5 c 128,-1,11
 1073 92 1073 92 928 46 c 128,-1,12
 783 0 783 0 607 0 c 2,13,-1
 200 0 l 1,0,-1
372 138 m 1,14,-1
 623 138 l 2,15,16
 905 138 905 138 1062.5 286.5 c 128,-1,17
 1220 435 1220 435 1220 721 c 0,18,19
 1220 856 1220 856 1189 958.5 c 128,-1,20
 1158 1061 1158 1061 1101.5 1129 c 128,-1,21
 1045 1197 1045 1197 958.5 1239.5 c 128,-1,22
 872 1282 872 1282 767.5 1300 c 128,-1,23
 663 1318 663 1318 529 1318 c 2,24,-1
 372 1318 l 1,25,-1
 372 138 l 1,14,-1
EndSplineSet
EndChar

StartChar: E
Encoding: 69 69 40
Width: 1191
GlyphClass: 2
Flags: W
AnchorPoint: "Anchor-2" 850 0 basechar 0
AnchorPoint: "Anchor-1" 826 0 basechar 0
AnchorPoint: "Anchor-0" 656 1536 basechar 0
LayerCount: 2
UndoRedoHistory
Layer: 1
Undoes
EndUndoes
Redoes
EndRedoes
EndUndoRedoHistory
Fore
SplineSet
200 0 m 1,0,-1
 200 1456 l 1,1,-1
 1047 1456 l 1,2,-1
 1047 1318 l 1,3,-1
 372 1318 l 1,4,-1
 372 820 l 1,5,-1
 1009 820 l 1,6,-1
 1009 672 l 1,7,-1
 372 672 l 1,8,-1
 372 138 l 1,9,-1
 1097 138 l 1,10,-1
 1097 0 l 1,11,-1
 200 0 l 1,0,-1
EndSplineSet
EndChar

StartChar: F
Encoding: 70 70 41
Width: 1116
GlyphClass: 2
Flags: W
AnchorPoint: "Anchor-1" 676 0 basechar 0
AnchorPoint: "Anchor-0" 700 1536 basechar 0
LayerCount: 2
UndoRedoHistory
Layer: 1
Undoes
EndUndoes
Redoes
EndRedoes
EndUndoRedoHistory
Fore
SplineSet
200 0 m 1,0,-1
 200 1456 l 1,1,-1
 1026 1456 l 1,2,-1
 1026 1318 l 1,3,-1
 372 1318 l 1,4,-1
 372 815 l 1,5,-1
 992 815 l 1,6,-1
 992 667 l 1,7,-1
 372 667 l 1,8,-1
 372 0 l 1,9,-1
 200 0 l 1,0,-1
EndSplineSet
EndChar

StartChar: G
Encoding: 71 71 42
Width: 1485
GlyphClass: 2
Flags: W
AnchorPoint: "Anchor-1" 826 0 basechar 0
AnchorPoint: "Anchor-0" 830 1536 basechar 0
LayerCount: 2
UndoRedoHistory
Layer: 1
Undoes
EndUndoes
Redoes
EndRedoes
EndUndoRedoHistory
Fore
SplineSet
827 -24 m 0,0,1
 491 -24 491 -24 303.5 166 c 128,-1,2
 116 356 116 356 116 701 c 0,3,4
 116 932 116 932 203 1108 c 128,-1,5
 290 1284 290 1284 454 1382 c 128,-1,6
 618 1480 618 1480 837 1480 c 0,7,8
 989 1480 989 1480 1097 1441 c 128,-1,9
 1205 1402 1205 1402 1292 1315 c 1,10,-1
 1220 1198 l 1,11,12
 1084 1330 1084 1330 834 1330 c 0,13,14
 666 1330 666 1330 542.5 1249.5 c 128,-1,15
 419 1169 419 1169 356.5 1031 c 128,-1,16
 294 893 294 893 294 714 c 0,17,18
 294 434 294 434 434.5 280 c 128,-1,19
 575 126 575 126 840 126 c 0,20,21
 1030 126 1030 126 1145 174 c 1,22,-1
 1145 608 l 1,23,-1
 798 608 l 1,24,-1
 798 757 l 1,25,-1
 1317 757 l 1,26,-1
 1317 81 l 1,27,28
 1093 -24 1093 -24 827 -24 c 0,0,1
EndSplineSet
EndChar

StartChar: H
Encoding: 72 72 43
Width: 1514
GlyphClass: 2
Flags: W
AnchorPoint: "Anchor-1" 788 0 basechar 0
AnchorPoint: "Anchor-0" 793 1536 basechar 0
LayerCount: 2
UndoRedoHistory
Layer: 1
Undoes
EndUndoes
Redoes
EndRedoes
EndUndoRedoHistory
Fore
SplineSet
200 0 m 1,0,-1
 200 1456 l 1,1,-1
 372 1456 l 1,2,-1
 372 822 l 1,3,-1
 1142 822 l 1,4,-1
 1142 1456 l 1,5,-1
 1314 1456 l 1,6,-1
 1314 0 l 1,7,-1
 1142 0 l 1,8,-1
 1142 674 l 1,9,-1
 372 674 l 1,10,-1
 372 0 l 1,11,-1
 200 0 l 1,0,-1
EndSplineSet
EndChar

StartChar: I
Encoding: 73 73 44
Width: 576
GlyphClass: 2
Flags: W
AnchorPoint: "Anchor-1" 286 1 basechar 0
AnchorPoint: "Anchor-0" 289 1536 basechar 0
LayerCount: 2
UndoRedoHistory
Layer: 1
Undoes
EndUndoes
Redoes
EndRedoes
EndUndoRedoHistory
Fore
SplineSet
202 0 m 1,0,-1
 202 1456 l 1,1,-1
 374 1456 l 1,2,-1
 374 0 l 1,3,-1
 202 0 l 1,0,-1
EndSplineSet
EndChar

StartChar: J
Encoding: 74 74 45
Width: 1078
GlyphClass: 2
Flags: W
AnchorPoint: "Anchor-0" 550 1536 basechar 0
LayerCount: 2
UndoRedoHistory
Layer: 1
Undoes
EndUndoes
Redoes
EndRedoes
EndUndoRedoHistory
Fore
SplineSet
44 130 m 1,0,1
 131 248 l 1,2,3
 180 188 180 188 246 157 c 128,-1,4
 312 126 312 126 378 126 c 0,5,6
 503 126 503 126 560.5 202.5 c 128,-1,7
 618 279 618 279 618 467 c 2,8,-1
 618 1318 l 1,9,-1
 211 1318 l 1,10,-1
 211 1456 l 1,11,-1
 1054 1456 l 1,12,-1
 1054 1318 l 1,13,-1
 783 1318 l 1,14,-1
 783 434 l 2,15,16
 783 204 783 204 681.5 90 c 128,-1,17
 580 -24 580 -24 388 -24 c 0,18,19
 290 -24 290 -24 197.5 15 c 128,-1,20
 105 54 105 54 44 130 c 1,0,1
EndSplineSet
EndChar

StartChar: K
Encoding: 75 75 46
Width: 1250
GlyphClass: 2
Flags: W
AnchorPoint: "Anchor-1" 726 0 basechar 0
AnchorPoint: "Anchor-0" 667 1536 basechar 0
LayerCount: 2
UndoRedoHistory
Layer: 1
Undoes
EndUndoes
Redoes
EndRedoes
EndUndoRedoHistory
Fore
SplineSet
200 0 m 1,0,-1
 200 1456 l 1,1,-1
 372 1456 l 1,2,-1
 372 796 l 1,3,-1
 990 1456 l 1,4,-1
 1201 1456 l 1,5,-1
 550 764 l 1,6,-1
 1241 0 l 1,7,-1
 1023 0 l 1,8,-1
 372 725 l 1,9,-1
 372 0 l 1,10,-1
 200 0 l 1,0,-1
EndSplineSet
EndChar

StartChar: L
Encoding: 76 76 47
Width: 1076
GlyphClass: 2
Flags: W
AnchorPoint: "Anchor-1" 696 0 basechar 0
AnchorPoint: "Anchor-0" 580 1536 basechar 0
LayerCount: 2
UndoRedoHistory
Layer: 1
Undoes
EndUndoes
Redoes
EndRedoes
EndUndoRedoHistory
Fore
SplineSet
200 0 m 1,0,-1
 200 1456 l 1,1,-1
 372 1456 l 1,2,-1
 372 138 l 1,3,-1
 1053 138 l 1,4,-1
 1053 0 l 1,5,-1
 200 0 l 1,0,-1
EndSplineSet
EndChar

StartChar: M
Encoding: 77 77 48
Width: 1946
GlyphClass: 2
Flags: W
AnchorPoint: "Anchor-1" 976 0 basechar 0
AnchorPoint: "Anchor-0" 970 1536 basechar 0
LayerCount: 2
UndoRedoHistory
Layer: 1
Undoes
EndUndoes
Redoes
EndRedoes
EndUndoRedoHistory
Fore
SplineSet
200 0 m 1,0,-1
 200 1456 l 1,1,-1
 426 1456 l 1,2,-1
 891 579 l 1,3,-1
 974 420 l 1,4,-1
 1055 582 l 1,5,-1
 1534 1456 l 1,6,-1
 1746 1456 l 1,7,-1
 1746 0 l 1,8,-1
 1578 0 l 1,9,-1
 1578 1251 l 1,10,-1
 1503 1096 l 1,11,-1
 1032 220 l 1,12,-1
 911 220 l 1,13,-1
 437 1108 l 1,14,-1
 370 1268 l 1,15,-1
 370 0 l 1,16,-1
 200 0 l 1,0,-1
EndSplineSet
EndChar

StartChar: N
Encoding: 78 78 49
Width: 1587
GlyphClass: 2
Flags: W
AnchorPoint: "Anchor-1" 804 0 basechar 0
AnchorPoint: "Anchor-0" 809 1536 basechar 0
LayerCount: 2
UndoRedoHistory
Layer: 1
Undoes
EndUndoes
Redoes
EndRedoes
EndUndoRedoHistory
Fore
SplineSet
200 0 m 1,0,-1
 200 1456 l 1,1,-1
 405 1456 l 1,2,-1
 1141 342 l 1,3,-1
 1216 215 l 1,4,-1
 1216 1456 l 1,5,-1
 1387 1456 l 1,6,-1
 1387 0 l 1,7,-1
 1180 0 l 1,8,-1
 441 1113 l 1,9,-1
 372 1237 l 1,10,-1
 372 0 l 1,11,-1
 200 0 l 1,0,-1
EndSplineSet
EndChar

StartChar: O
Encoding: 79 79 50
Width: 1626
GlyphClass: 2
Flags: W
AnchorPoint: "Anchor-1" 826 0 basechar 0
AnchorPoint: "Anchor-0" 822 1536 basechar 0
LayerCount: 2
UndoRedoHistory
Layer: 1
Undoes
EndUndoes
Redoes
EndRedoes
EndUndoRedoHistory
Fore
SplineSet
813 -24 m 128,-1,1
 680 -24 680 -24 566 16.5 c 128,-1,2
 452 57 452 57 370.5 128 c 128,-1,3
 289 199 289 199 231 294 c 128,-1,4
 173 389 173 389 144.5 499.5 c 128,-1,5
 116 610 116 610 116 728 c 0,6,7
 116 878 116 878 162 1012 c 128,-1,8
 208 1146 208 1146 293 1251 c 128,-1,9
 378 1356 378 1356 513 1418 c 128,-1,10
 648 1480 648 1480 813 1480 c 128,-1,11
 978 1480 978 1480 1113 1418 c 128,-1,12
 1248 1356 1248 1356 1333 1251 c 128,-1,13
 1418 1146 1418 1146 1464 1012 c 128,-1,14
 1510 878 1510 878 1510 728 c 0,15,16
 1510 610 1510 610 1481.5 499.5 c 128,-1,17
 1453 389 1453 389 1395 294 c 128,-1,18
 1337 199 1337 199 1255.5 128 c 128,-1,19
 1174 57 1174 57 1060 16.5 c 128,-1,0
 946 -24 946 -24 813 -24 c 128,-1,1
813 126 m 128,-1,21
 915 126 915 126 1006 165 c 128,-1,22
 1097 204 1097 204 1169 277 c 128,-1,23
 1241 350 1241 350 1283.5 467 c 128,-1,24
 1326 584 1326 584 1326 729 c 128,-1,25
 1326 874 1326 874 1283.5 990.5 c 128,-1,26
 1241 1107 1241 1107 1169 1180 c 128,-1,27
 1097 1253 1097 1253 1006 1291.5 c 128,-1,28
 915 1330 915 1330 813 1330 c 128,-1,29
 711 1330 711 1330 620 1291.5 c 128,-1,30
 529 1253 529 1253 457 1180 c 128,-1,31
 385 1107 385 1107 342.5 990.5 c 128,-1,32
 300 874 300 874 300 729 c 128,-1,33
 300 584 300 584 342.5 467 c 128,-1,34
 385 350 385 350 457 277 c 128,-1,35
 529 204 529 204 620 165 c 128,-1,20
 711 126 711 126 813 126 c 128,-1,21
EndSplineSet
EndChar

StartChar: P
Encoding: 80 80 51
Width: 1245
GlyphClass: 2
Flags: W
AnchorPoint: "Anchor-1" 676 0 basechar 0
AnchorPoint: "Anchor-0" 700 1536 basechar 0
LayerCount: 2
UndoRedoHistory
Layer: 1
Undoes
EndUndoes
Redoes
EndRedoes
EndUndoRedoHistory
Fore
SplineSet
372 736 m 1,0,-1
 623 736 l 2,1,2
 987 736 987 736 987 1018 c 0,3,4
 987 1174 987 1174 898 1246 c 128,-1,5
 809 1318 809 1318 603 1318 c 2,6,-1
 372 1318 l 1,7,-1
 372 736 l 1,0,-1
200 0 m 1,8,-1
 200 1456 l 1,9,-1
 580 1456 l 2,10,11
 889 1456 889 1456 1030 1350 c 128,-1,12
 1171 1244 1171 1244 1171 1020 c 0,13,14
 1171 806 1171 806 1026.5 696.5 c 128,-1,15
 882 587 882 587 604 587 c 2,16,-1
 372 587 l 1,17,-1
 372 0 l 1,18,-1
 200 0 l 1,8,-1
EndSplineSet
EndChar

StartChar: Q
Encoding: 81 81 52
Width: 1626
GlyphClass: 2
Flags: W
LayerCount: 2
UndoRedoHistory
Layer: 1
Undoes
EndUndoes
Redoes
EndRedoes
EndUndoRedoHistory
Fore
SplineSet
813 -24 m 128,-1,1
 680 -24 680 -24 566 16.5 c 128,-1,2
 452 57 452 57 370.5 128 c 128,-1,3
 289 199 289 199 231 294 c 128,-1,4
 173 389 173 389 144.5 499.5 c 128,-1,5
 116 610 116 610 116 728 c 0,6,7
 116 878 116 878 162 1012 c 128,-1,8
 208 1146 208 1146 293 1251 c 128,-1,9
 378 1356 378 1356 513 1418 c 128,-1,10
 648 1480 648 1480 813 1480 c 128,-1,11
 978 1480 978 1480 1113 1418 c 128,-1,12
 1248 1356 1248 1356 1333 1251 c 128,-1,13
 1418 1146 1418 1146 1464 1012 c 128,-1,14
 1510 878 1510 878 1510 728 c 0,15,16
 1510 610 1510 610 1481.5 499.5 c 128,-1,17
 1453 389 1453 389 1395 294 c 0,18,19
 1338 199 1338 199 1256 128 c 0,20,21
 1236 110 1236 110 1213 94 c 1,22,-1
 1355 -168 l 1,23,-1
 1227 -237 l 1,24,-1
 1080 24 l 1,25,26
 1070 20 1070 20 1060 16 c 0,27,0
 946 -24 946 -24 813 -24 c 128,-1,1
1132 243 m 1,28,29
 1151 259 1151 259 1169 277 c 0,30,31
 1241 350 1241 350 1283.5 467 c 128,-1,32
 1326 584 1326 584 1326 729 c 128,-1,33
 1326 874 1326 874 1283.5 990.5 c 128,-1,34
 1241 1107 1241 1107 1169 1180 c 128,-1,35
 1097 1253 1097 1253 1006 1291.5 c 128,-1,36
 915 1330 915 1330 813 1330 c 128,-1,37
 711 1330 711 1330 620 1291.5 c 128,-1,38
 529 1253 529 1253 457 1180 c 128,-1,39
 385 1107 385 1107 342.5 990.5 c 128,-1,40
 300 874 300 874 300 729 c 128,-1,41
 300 584 300 584 342.5 467 c 128,-1,42
 385 350 385 350 457 277 c 128,-1,43
 529 204 529 204 620 165 c 128,-1,44
 711 126 711 126 813 126 c 0,45,46
 913 126 913 126 1002 163 c 1,47,-1
 867 402 l 1,48,-1
 1005 477 l 1,49,-1
 1132 243 l 1,28,29
EndSplineSet
EndChar

StartChar: R
Encoding: 82 82 53
Width: 1317
GlyphClass: 2
Flags: W
AnchorPoint: "Anchor-1" 676 0 basechar 0
AnchorPoint: "Anchor-0" 700 1536 basechar 0
LayerCount: 2
UndoRedoHistory
Layer: 1
Undoes
EndUndoes
Redoes
EndRedoes
EndUndoRedoHistory
Fore
SplineSet
372 799 m 1,0,-1
 627 799 l 2,1,2
 702 799 702 799 763.5 812 c 128,-1,3
 825 825 825 825 876.5 853.5 c 128,-1,4
 928 882 928 882 957 934 c 128,-1,5
 986 986 986 986 986 1058 c 0,6,7
 986 1135 986 1135 960 1187.5 c 128,-1,8
 934 1240 934 1240 884 1267.5 c 128,-1,9
 834 1295 834 1295 775.5 1306.5 c 128,-1,10
 717 1318 717 1318 638 1318 c 2,11,-1
 372 1318 l 1,12,-1
 372 799 l 1,0,-1
200 0 m 1,13,-1
 200 1456 l 1,14,-1
 549 1456 l 2,15,16
 624 1456 624 1456 685 1452.5 c 128,-1,17
 746 1449 746 1449 812 1439 c 128,-1,18
 878 1429 878 1429 928 1411.5 c 128,-1,19
 978 1394 978 1394 1025 1365 c 128,-1,20
 1072 1336 1072 1336 1102 1296.5 c 128,-1,21
 1132 1257 1132 1257 1150 1200.5 c 128,-1,22
 1168 1144 1168 1144 1168 1074 c 0,23,24
 1168 914 1168 914 1072 810 c 0,25,26
 989 720 989 720 831 678 c 1,27,-1
 1253 0 l 1,28,-1
 1065 0 l 1,29,-1
 678 652 l 1,30,-1
 372 652 l 1,31,-1
 372 0 l 1,32,-1
 200 0 l 1,13,-1
EndSplineSet
EndChar

StartChar: S
Encoding: 83 83 54
Width: 1186
GlyphClass: 2
Flags: W
AnchorPoint: "Anchor-1" 587 -1 basechar 0
AnchorPoint: "Anchor-0" 604 1536 basechar 0
LayerCount: 2
UndoRedoHistory
Layer: 1
Undoes
EndUndoes
Redoes
EndRedoes
EndUndoRedoHistory
Fore
SplineSet
615 -24 m 0,0,1
 484 -24 484 -24 358.5 22 c 128,-1,2
 233 68 233 68 154 128 c 1,3,-1
 205 278 l 1,4,5
 280 216 280 216 394 171 c 128,-1,6
 508 126 508 126 611 126 c 0,7,8
 747 126 747 126 820 198 c 128,-1,9
 893 270 893 270 893 394 c 0,10,11
 893 443 893 443 880 478 c 128,-1,12
 867 513 867 513 830 549 c 128,-1,13
 793 585 793 585 723 617.5 c 128,-1,14
 653 650 653 650 542 685 c 0,15,16
 328 753 328 753 238 847 c 0,17,18
 149 940 149 940 150 1101 c 0,19,20
 150 1220 150 1220 212 1308 c 0,21,22
 273 1394 273 1394 375.5 1437 c 128,-1,23
 478 1480 478 1480 607 1480 c 0,24,25
 838 1480 838 1480 1020 1348 c 1,26,-1
 954 1217 l 1,27,28
 886 1266 886 1266 800.5 1298 c 128,-1,29
 715 1330 715 1330 627 1330 c 0,30,31
 488 1330 488 1330 407 1275 c 128,-1,32
 326 1220 326 1220 324 1114 c 0,33,34
 324 1106 324 1106 324 1099 c 0,35,36
 324 1052 324 1052 334 1019 c 0,37,38
 346 981 346 981 383.5 946.5 c 128,-1,39
 421 912 421 912 481 884.5 c 128,-1,40
 541 857 541 857 642 825 c 0,41,42
 766 786 766 786 848.5 741.5 c 128,-1,43
 931 697 931 697 978 643 c 128,-1,44
 1025 589 1025 589 1043.5 529.5 c 128,-1,45
 1062 470 1062 470 1062 391 c 0,46,47
 1062 205 1062 205 942 90.5 c 128,-1,48
 822 -24 822 -24 615 -24 c 0,0,1
EndSplineSet
EndChar

StartChar: T
Encoding: 84 84 55
Width: 1155
GlyphClass: 2
Flags: W
AnchorPoint: "Anchor-1" 696 0 basechar 0
AnchorPoint: "Anchor-0" 580 1536 basechar 0
LayerCount: 2
UndoRedoHistory
Layer: 1
Undoes
EndUndoes
Redoes
EndRedoes
EndUndoRedoHistory
Fore
SplineSet
490 0 m 1,0,-1
 490 1318 l 1,1,-1
 30 1318 l 1,2,-1
 30 1456 l 1,3,-1
 1125 1456 l 1,4,-1
 1125 1318 l 1,5,-1
 662 1318 l 1,6,-1
 662 0 l 1,7,-1
 490 0 l 1,0,-1
EndSplineSet
EndChar

StartChar: U
Encoding: 85 85 56
Width: 1453
GlyphClass: 2
Flags: W
AnchorPoint: "Anchor-2" 850 0 basechar 0
AnchorPoint: "Anchor-1" 826 0 basechar 0
AnchorPoint: "Anchor-0" 756 1536 basechar 0
LayerCount: 2
UndoRedoHistory
Layer: 1
Undoes
EndUndoes
Redoes
EndRedoes
EndUndoRedoHistory
Fore
SplineSet
738 -24 m 0,0,1
 170 -24 170 -24 170 541 c 2,2,-1
 170 1456 l 1,3,-1
 342 1456 l 1,4,-1
 342 546 l 2,5,6
 342 126 342 126 737 126 c 0,7,8
 917 126 917 126 1014.5 234.5 c 128,-1,9
 1112 343 1112 343 1112 539 c 2,10,-1
 1112 1456 l 1,11,-1
 1283 1456 l 1,12,-1
 1283 551 l 1,13,14
 1281 279 1281 279 1139 127.5 c 128,-1,15
 997 -24 997 -24 738 -24 c 0,0,1
EndSplineSet
EndChar

StartChar: V
Encoding: 86 86 57
Width: 1313
GlyphClass: 2
Flags: W
LayerCount: 2
UndoRedoHistory
Layer: 1
Undoes
EndUndoes
Redoes
EndRedoes
EndUndoRedoHistory
Fore
SplineSet
572 1 m 1,0,-1
 18 1456 l 1,1,-1
 206 1456 l 1,2,-1
 618 325 l 1,3,-1
 664 184 l 1,4,-1
 712 324 l 1,5,-1
 1112 1456 l 1,6,-1
 1296 1456 l 1,7,-1
 758 1 l 1,8,-1
 572 1 l 1,0,-1
EndSplineSet
EndChar

StartChar: W
Encoding: 87 87 58
Width: 2073
GlyphClass: 2
Flags: W
AnchorPoint: "Anchor-1" 1017 0 basechar 0
AnchorPoint: "Anchor-0" 1023 1536 basechar 0
LayerCount: 2
UndoRedoHistory
Layer: 1
Undoes
EndUndoes
Redoes
EndRedoes
EndUndoRedoHistory
Fore
SplineSet
446 1 m 1,0,-1
 23 1456 l 1,1,-1
 209 1456 l 1,2,-1
 519 349 l 1,3,-1
 557 189 l 1,4,-1
 607 349 l 1,5,-1
 957 1456 l 1,6,-1
 1130 1456 l 1,7,-1
 1477 345 l 1,8,-1
 1523 190 l 1,9,-1
 1565 349 l 1,10,-1
 1870 1456 l 1,11,-1
 2050 1456 l 1,12,-1
 1627 0 l 1,13,-1
 1415 0 l 1,14,-1
 1038 1247 l 1,15,-1
 659 1 l 1,16,-1
 446 1 l 1,0,-1
EndSplineSet
EndChar

StartChar: X
Encoding: 88 88 59
Width: 1279
GlyphClass: 2
Flags: W
LayerCount: 2
UndoRedoHistory
Layer: 1
Undoes
EndUndoes
Redoes
EndRedoes
EndUndoRedoHistory
Fore
SplineSet
1058 0 m 1,0,-1
 640 623 l 1,1,-1
 224 0 l 1,2,-1
 20 0 l 1,3,-1
 544 741 l 1,4,-1
 59 1456 l 1,5,-1
 265 1456 l 1,6,-1
 653 854 l 1,7,-1
 1053 1456 l 1,8,-1
 1249 1456 l 1,9,-1
 751 742 l 1,10,-1
 1259 0 l 1,11,-1
 1058 0 l 1,0,-1
EndSplineSet
EndChar

StartChar: Y
Encoding: 89 89 60
Width: 1235
GlyphClass: 2
Flags: W
AnchorPoint: "Anchor-1" 625 0 basechar 0
AnchorPoint: "Anchor-0" 620 1536 basechar 0
LayerCount: 2
UndoRedoHistory
Layer: 1
Undoes
EndUndoes
Redoes
EndRedoes
EndUndoRedoHistory
Fore
SplineSet
530 0 m 1,0,-1
 530 582 l 1,1,-1
 8 1456 l 1,2,-1
 200 1456 l 1,3,-1
 616 727 l 1,4,-1
 1036 1456 l 1,5,-1
 1226 1456 l 1,6,-1
 702 585 l 1,7,-1
 702 0 l 1,8,-1
 530 0 l 1,0,-1
EndSplineSet
EndChar

StartChar: Z
Encoding: 90 90 61
Width: 1209
GlyphClass: 2
Flags: W
AnchorPoint: "Anchor-1" 676 0 basechar 0
AnchorPoint: "Anchor-0" 700 1536 basechar 0
LayerCount: 2
UndoRedoHistory
Layer: 1
Undoes
EndUndoes
Redoes
EndRedoes
EndUndoRedoHistory
Fore
SplineSet
102 0 m 1,0,-1
 102 92 l 1,1,-1
 909 1318 l 1,2,-1
 134 1318 l 1,3,-1
 134 1456 l 1,4,-1
 1141 1456 l 1,5,-1
 1141 1368 l 1,6,-1
 330 138 l 1,7,-1
 1133 138 l 1,8,-1
 1133 0 l 1,9,-1
 102 0 l 1,0,-1
EndSplineSet
EndChar

StartChar: bracketleft
Encoding: 91 91 62
Width: 638
GlyphClass: 2
Flags: W
LayerCount: 2
UndoRedoHistory
Layer: 1
Undoes
EndUndoes
Redoes
EndRedoes
EndUndoRedoHistory
Fore
SplineSet
201 -200 m 1,0,-1
 201 1510 l 1,1,-1
 557 1510 l 1,2,-1
 557 1388 l 1,3,-1
 364 1388 l 1,4,-1
 364 -78 l 1,5,-1
 558 -78 l 1,6,-1
 558 -200 l 1,7,-1
 201 -200 l 1,0,-1
EndSplineSet
EndChar

StartChar: backslash
Encoding: 92 92 63
Width: 703
GlyphClass: 2
Flags: W
LayerCount: 2
UndoRedoHistory
Layer: 1
Undoes
EndUndoes
Redoes
EndRedoes
EndUndoRedoHistory
Fore
SplineSet
592 0 m 1,0,-1
 -37 1456 l 1,1,-1
 130 1456 l 1,2,-1
 755 0 l 1,3,-1
 592 0 l 1,0,-1
EndSplineSet
EndChar

StartChar: bracketright
Encoding: 93 93 64
Width: 638
GlyphClass: 2
Flags: W
LayerCount: 2
UndoRedoHistory
Layer: 1
Undoes
EndUndoes
Redoes
EndRedoes
EndUndoRedoHistory
Fore
SplineSet
476 1510 m 1,0,-1
 476 -200 l 1,1,-1
 120 -200 l 1,2,-1
 120 -78 l 1,3,-1
 313 -78 l 1,4,-1
 313 1388 l 1,5,-1
 119 1388 l 1,6,-1
 119 1510 l 1,7,-1
 476 1510 l 1,0,-1
EndSplineSet
EndChar

StartChar: asciicircum
Encoding: 94 94 65
Width: 1304
GlyphClass: 2
Flags: W
LayerCount: 2
UndoRedoHistory
Layer: 1
Undoes
EndUndoes
Redoes
EndRedoes
EndUndoRedoHistory
Fore
SplineSet
128 550 m 1,0,-1
 600 1432 l 1,1,-1
 697 1432 l 1,2,-1
 1176 550 l 1,3,-1
 1021 550 l 1,4,-1
 647 1260 l 1,5,-1
 284 550 l 1,6,-1
 128 550 l 1,0,-1
EndSplineSet
EndChar

StartChar: underscore
Encoding: 95 95 66
Width: 987
GlyphClass: 2
Flags: W
LayerCount: 2
UndoRedoHistory
Layer: 1
Undoes
EndUndoes
Redoes
EndRedoes
EndUndoRedoHistory
Fore
SplineSet
4 -152 m 1,0,-1
 4 -24 l 1,1,-1
 987 -24 l 1,2,-1
 987 -152 l 1,3,-1
 4 -152 l 1,0,-1
EndSplineSet
EndChar

StartChar: grave
Encoding: 96 96 67
Width: 603
GlyphClass: 2
Flags: W
LayerCount: 2
UndoRedoHistory
Layer: 1
Undoes
EndUndoes
Redoes
EndRedoes
EndUndoRedoHistory
Fore
SplineSet
403 1160 m 1,0,-1
 71 1480 l 1,1,-1
 285 1480 l 1,2,-1
 532 1160 l 1,3,-1
 403 1160 l 1,0,-1
EndSplineSet
EndChar

StartChar: a
Encoding: 97 97 68
Width: 1205
GlyphClass: 2
Flags: W
AnchorPoint: "Anchor-2" 994 0 basechar 0
AnchorPoint: "Anchor-1" 616 0 basechar 0
AnchorPoint: "Anchor-0" 637 1152 basechar 0
LayerCount: 2
UndoRedoHistory
Layer: 1
Undoes
EndUndoes
Redoes
EndRedoes
EndUndoRedoHistory
Fore
SplineSet
537 114 m 0,0,1
 674 114 674 114 760 210 c 128,-1,2
 846 306 846 306 846 453 c 2,3,-1
 846 881 l 1,4,5
 779 916 779 916 661 916 c 0,6,7
 491 916 491 916 386.5 786.5 c 128,-1,8
 282 657 282 657 282 448 c 0,9,10
 282 298 282 298 352 206 c 128,-1,11
 422 114 422 114 537 114 c 0,0,1
513 -22 m 0,12,13
 336 -22 336 -22 224 105 c 128,-1,14
 112 232 112 232 112 438 c 0,15,16
 112 712 112 712 266 882 c 128,-1,17
 420 1052 420 1052 664 1052 c 0,18,19
 760 1052 760 1052 855 1028.5 c 128,-1,20
 950 1005 950 1005 1010 966 c 1,21,-1
 1010 278 l 2,22,23
 1010 196 1010 196 1041 158.5 c 128,-1,24
 1072 121 1072 121 1155 121 c 1,25,-1
 1126 -14 l 1,26,27
 1010 -14 1010 -14 948 30 c 128,-1,28
 886 74 886 74 865 161 c 1,29,30
 816 77 816 77 720.5 27.5 c 128,-1,31
 625 -22 625 -22 513 -22 c 0,12,13
EndSplineSet
EndChar

StartChar: b
Encoding: 98 98 69
Width: 1190
GlyphClass: 2
Flags: W
AnchorPoint: "Anchor-1" 826 0 basechar 0
AnchorPoint: "Anchor-0" 686 1249 basechar 0
LayerCount: 2
UndoRedoHistory
Layer: 1
Undoes
EndUndoes
Redoes
EndRedoes
EndUndoRedoHistory
Fore
SplineSet
564 114 m 0,0,1
 672 114 672 114 751.5 175.5 c 128,-1,2
 831 237 831 237 869.5 334 c 128,-1,3
 908 431 908 431 908 550 c 0,4,5
 908 726 908 726 836.5 821 c 128,-1,6
 765 916 765 916 654 916 c 0,7,8
 532 916 532 916 434.5 826.5 c 128,-1,9
 337 737 337 737 337 601 c 2,10,-1
 337 151 l 1,11,-1
 361 142 l 2,12,13
 385 132 385 132 441.5 123 c 128,-1,14
 498 114 498 114 564 114 c 0,0,1
570 -22 m 0,15,16
 505 -22 505 -22 439 -12 c 128,-1,17
 373 -2 373 -2 329.5 10.5 c 128,-1,18
 286 23 286 23 245 39 c 128,-1,19
 204 55 204 55 191.5 61 c 128,-1,20
 179 67 179 67 172 71 c 1,21,-1
 172 1525 l 1,22,-1
 337 1525 l 1,23,-1
 337 868 l 1,24,25
 463 1052 463 1052 677 1052 c 0,26,27
 850 1052 850 1052 964 915 c 128,-1,28
 1078 778 1078 778 1078 545 c 0,29,30
 1078 296 1078 296 937.5 137 c 128,-1,31
 797 -22 797 -22 570 -22 c 0,15,16
EndSplineSet
EndChar

StartChar: c
Encoding: 99 99 70
Width: 1032
GlyphClass: 2
Flags: W
AnchorPoint: "Anchor-1" 599 0 basechar 0
AnchorPoint: "Anchor-0" 597 1152 basechar 0
LayerCount: 2
UndoRedoHistory
Layer: 1
Undoes
EndUndoes
Redoes
EndRedoes
EndUndoRedoHistory
Fore
SplineSet
605 -22 m 0,0,1
 505 -22 505 -22 416 15 c 128,-1,2
 327 52 327 52 259 119.5 c 128,-1,3
 191 187 191 187 151.5 288.5 c 128,-1,4
 112 390 112 390 112 511 c 0,5,6
 112 635 112 635 153 738.5 c 128,-1,7
 194 842 194 842 263.5 909.5 c 128,-1,8
 333 977 333 977 422.5 1014.5 c 128,-1,9
 512 1052 512 1052 611 1052 c 0,10,11
 702 1052 702 1052 788 1021.5 c 128,-1,12
 874 991 874 991 939 928 c 1,13,-1
 877 810 l 1,14,15
 825 860 825 860 758 888 c 128,-1,16
 691 916 691 916 624 916 c 128,-1,17
 557 916 557 916 496.5 889.5 c 128,-1,18
 436 863 436 863 387.5 814 c 128,-1,19
 339 765 339 765 310.5 686 c 128,-1,20
 282 607 282 607 282 510 c 0,21,22
 282 324 282 324 378.5 219 c 128,-1,23
 475 114 475 114 619 114 c 0,24,25
 694 114 694 114 770.5 144.5 c 128,-1,26
 847 175 847 175 904 227 c 1,27,-1
 960 102 l 1,28,29
 802 -22 802 -22 605 -22 c 0,0,1
EndSplineSet
EndChar

StartChar: d
Encoding: 100 100 71
Width: 1237
GlyphClass: 2
Flags: W
AnchorPoint: "Anchor-1" 826 0 basechar 0
AnchorPoint: "Anchor-0" 543 1208 basechar 0
LayerCount: 2
UndoRedoHistory
Layer: 1
Undoes
EndUndoes
Redoes
EndRedoes
EndUndoRedoHistory
Fore
SplineSet
871 161 m 1,0,1
 763 -22 763 -22 524 -22 c 0,2,3
 342 -22 342 -22 227 106.5 c 128,-1,4
 112 235 112 235 112 464 c 0,5,6
 112 607 112 607 157 721.5 c 128,-1,7
 202 836 202 836 278.5 907 c 128,-1,8
 355 978 355 978 450 1015 c 128,-1,9
 545 1052 545 1052 651 1052 c 0,10,11
 744 1052 744 1052 851 1014 c 1,12,-1
 851 1526 l 1,13,-1
 1016 1526 l 1,14,-1
 1016 314 l 2,15,16
 1016 261 1016 261 1020.5 230 c 128,-1,17
 1025 199 1025 199 1039.5 171.5 c 128,-1,18
 1054 144 1054 144 1083.5 132.5 c 128,-1,19
 1113 121 1113 121 1161 121 c 1,20,-1
 1132 -14 l 1,21,22
 911 -14 911 -14 871 161 c 1,0,1
283 463 m 0,23,24
 283 296 283 296 354 205 c 128,-1,25
 425 114 425 114 537 114 c 0,26,27
 680 114 680 114 766 216.5 c 128,-1,28
 852 319 852 319 852 497 c 2,29,30
 852 880 l 1,31,32
 751 916 751 916 661 916 c 0,33,34
 485 916 485 916 384 788 c 128,-1,35
 283 660 283 660 283 463 c 0,23,24
EndSplineSet
EndChar

StartChar: e
Encoding: 101 101 72
Width: 1082
GlyphClass: 2
Flags: W
AnchorPoint: "Anchor-2" 869 56 basechar 0
AnchorPoint: "Anchor-1" 656 0 basechar 0
AnchorPoint: "Anchor-0" 608 1152 basechar 0
LayerCount: 2
UndoRedoHistory
Layer: 1
Undoes
EndUndoes
Redoes
EndRedoes
EndUndoRedoHistory
Fore
SplineSet
285 566 m 1,0,1
 794 566 794 566 794 758 c 0,2,3
 794 830 794 830 746.5 873 c 128,-1,4
 699 916 699 916 614 916 c 0,5,6
 483 916 483 916 389 823 c 128,-1,7
 295 730 295 730 285 566 c 1,0,1
612 -22 m 0,8,9
 509 -22 509 -22 418.5 13.5 c 128,-1,10
 328 49 328 49 259.5 114.5 c 128,-1,11
 191 180 191 180 151.5 281 c 128,-1,12
 112 382 112 382 112 505 c 0,13,14
 112 617 112 617 146 716 c 128,-1,15
 180 815 180 815 243 890 c 128,-1,16
 306 965 306 965 401.5 1008.5 c 128,-1,17
 497 1052 497 1052 613 1052 c 0,18,19
 766 1052 766 1052 861.5 967 c 128,-1,20
 957 882 957 882 957 755 c 0,21,22
 957 667 957 667 900.5 604 c 128,-1,23
 844 541 844 541 744.5 507.5 c 128,-1,24
 645 474 645 474 533 459.5 c 128,-1,25
 421 445 421 445 287 445 c 1,26,27
 305 287 305 287 394.5 200.5 c 128,-1,28
 484 114 484 114 623 114 c 0,29,30
 693 114 693 114 756 134 c 128,-1,31
 819 154 819 154 854 176 c 128,-1,32
 889 198 889 198 930 232 c 1,33,-1
 998 122 l 1,34,35
 905 47 905 47 815.5 12.5 c 128,-1,36
 726 -22 726 -22 612 -22 c 0,8,9
EndSplineSet
EndChar

StartChar: f
Encoding: 102 102 73
Width: 711
GlyphClass: 2
Flags: W
AnchorPoint: "Anchor-1" 366 0 basechar 0
AnchorPoint: "Anchor-0" 543 1464 basechar 0
LayerCount: 2
UndoRedoHistory
Layer: 1
Undoes
EndUndoes
Redoes
EndRedoes
EndUndoRedoHistory
Fore
SplineSet
425 0 m 1,0,-1
 266 0 l 1,1,-1
 266 919 l 1,2,-1
 64 919 l 1,3,-1
 64 1026 l 1,4,-1
 266 1026 l 1,5,-1
 266 1194 l 2,6,7
 266 1273 266 1273 282 1336.5 c 128,-1,8
 298 1400 298 1400 333 1450.5 c 128,-1,9
 368 1501 368 1501 427.5 1528 c 128,-1,10
 487 1555 487 1555 569 1555 c 0,11,12
 655 1555 655 1555 759 1526 c 1,13,-1
 737 1406 l 1,14,15
 651 1429 651 1429 594 1429 c 0,16,17
 504 1429 504 1429 464.5 1374.5 c 128,-1,18
 425 1320 425 1320 425 1206 c 2,19,-1
 425 1026 l 1,20,-1
 671 1026 l 1,21,-1
 671 919 l 1,22,-1
 425 919 l 1,23,-1
 425 0 l 1,0,-1
EndSplineSet
EndChar

StartChar: g
Encoding: 103 103 74
Width: 1170
GlyphClass: 2
Flags: W
AnchorPoint: "Anchor-1" 588 -512 basechar 0
AnchorPoint: "Anchor-0" 652 1027 basechar 0
LayerCount: 2
UndoRedoHistory
Layer: 1
Undoes
EndUndoes
Redoes
EndRedoes
EndUndoRedoHistory
Fore
SplineSet
544 114 m 0,0,1
 692 114 692 114 773 215.5 c 128,-1,2
 854 317 854 317 854 476 c 2,3,-1
 854 881 l 1,4,5
 737 916 737 916 666 916 c 0,6,7
 491 916 491 916 388 791 c 128,-1,8
 285 666 285 666 285 452 c 0,9,10
 285 301 285 301 356 207.5 c 128,-1,11
 427 114 427 114 544 114 c 0,0,1
533 -494 m 0,12,13
 373 -494 373 -494 208 -433 c 1,14,-1
 224 -280 l 1,15,16
 292 -314 292 -314 374 -335.5 c 128,-1,17
 456 -357 456 -357 520 -357 c 0,18,19
 674 -357 674 -357 764 -261 c 128,-1,20
 854 -165 854 -165 854 11 c 2,21,-1
 854 153 l 1,22,23
 748 -22 748 -22 523 -22 c 0,24,25
 343 -22 343 -22 229 107 c 128,-1,26
 115 236 115 236 115 442 c 0,27,28
 115 726 115 726 266 889 c 128,-1,29
 417 1052 417 1052 669 1052 c 0,30,31
 766 1052 766 1052 862 1028.5 c 128,-1,32
 958 1005 958 1005 1018 966 c 1,33,-1
 1018 32 l 2,34,35
 1018 -197 1018 -197 882.5 -345.5 c 128,-1,36
 747 -494 747 -494 533 -494 c 0,12,13
EndSplineSet
EndChar

StartChar: h
Encoding: 104 104 75
Width: 1233
GlyphClass: 2
Flags: W
AnchorPoint: "Anchor-1" 645 0 basechar 0
AnchorPoint: "Anchor-0" 737 1260 basechar 0
LayerCount: 2
UndoRedoHistory
Layer: 1
Undoes
EndUndoes
Redoes
EndRedoes
EndUndoRedoHistory
Fore
SplineSet
1168 -20 m 1,0,-1
 1155 -20 l 2,1,2
 1000 -20 1000 -20 933 54 c 128,-1,3
 866 128 866 128 866 294 c 2,4,-1
 866 566 l 2,5,6
 866 752 866 752 818 834 c 128,-1,7
 770 916 770 916 660 916 c 0,8,9
 603 916 603 916 546 892.5 c 128,-1,10
 489 869 489 869 439.5 824.5 c 128,-1,11
 390 780 390 780 359 707 c 128,-1,12
 328 634 328 634 328 545 c 2,13,-1
 328 0 l 1,14,-1
 164 0 l 1,15,-1
 164 1526 l 1,16,-1
 328 1526 l 1,17,-1
 328 867 l 1,18,19
 377 953 377 953 473.5 1002.5 c 128,-1,20
 570 1052 570 1052 681 1052 c 0,21,22
 1030 1052 1030 1052 1030 569 c 2,23,-1
 1030 320 l 2,24,25
 1030 207 1030 207 1059.5 158.5 c 128,-1,26
 1089 110 1089 110 1165 110 c 2,27,-1
 1189 110 l 1,28,-1
 1168 -20 l 1,0,-1
EndSplineSet
EndChar

StartChar: i
Encoding: 105 105 76
Width: 633
GlyphClass: 2
Flags: W
AnchorPoint: "Anchor-1" 248 1 basechar 0
LayerCount: 2
UndoRedoHistory
Layer: 1
Undoes
EndUndoes
Redoes
EndRedoes
EndUndoRedoHistory
Fore
SplineSet
277 1257 m 128,-1,1
 233 1257 233 1257 201.5 1283.5 c 128,-1,2
 170 1310 170 1310 170 1357 c 128,-1,3
 170 1404 170 1404 202 1430 c 128,-1,4
 234 1456 234 1456 278 1456 c 128,-1,5
 322 1456 322 1456 353.5 1429.5 c 128,-1,6
 385 1403 385 1403 385 1356 c 128,-1,7
 385 1309 385 1309 353 1283 c 128,-1,0
 321 1257 321 1257 277 1257 c 128,-1,1
659 26 m 1,8,9
 570 -10 570 -10 488 -16 c 0,10,11
 472 -17 472 -17 456 -17 c 0,12,13
 394 -18 394 -18 340 2 c 0,14,15
 274 26 274 26 233.5 93 c 128,-1,16
 193 160 193 160 193 262 c 2,17,-1
 193 1026 l 1,18,-1
 357 1026 l 1,19,-1
 357 267 l 2,20,21
 357 198 357 198 380.5 160 c 128,-1,22
 404 122 404 122 447 116 c 0,23,24
 467 113 467 113 487 112 c 0,25,26
 510 112 510 112 534 116 c 0,27,28
 578 124 578 124 636 145 c 1,29,-1
 659 26 l 1,8,9
EndSplineSet
EndChar

StartChar: j
Encoding: 106 106 77
Width: 558
GlyphClass: 2
Flags: W
AnchorPoint: "Anchor-1" 676 0 basechar 0
AnchorPoint: "Anchor-0" 700 1536 basechar 0
LayerCount: 2
UndoRedoHistory
Layer: 1
Undoes
EndUndoes
Redoes
EndRedoes
EndUndoRedoHistory
Fore
SplineSet
300 1257 m 128,-1,1
 256 1257 256 1257 224.5 1283.5 c 128,-1,2
 193 1310 193 1310 193 1357 c 128,-1,3
 193 1404 193 1404 225 1430 c 128,-1,4
 257 1456 257 1456 301 1456 c 128,-1,5
 345 1456 345 1456 376.5 1429.5 c 128,-1,6
 408 1403 408 1403 408 1356 c 128,-1,7
 408 1309 408 1309 376 1283 c 128,-1,0
 344 1257 344 1257 300 1257 c 128,-1,1
101 -464 m 0,8,9
 27 -464 27 -464 -50 -443 c 1,10,-1
 -35 -311 l 1,11,-1
 -20 -316 l 1,12,13
 -4 -320 -4 -320 24 -324.5 c 128,-1,14
 52 -329 52 -329 78 -329 c 0,15,16
 160 -329 160 -329 188 -276 c 128,-1,17
 216 -223 216 -223 216 -76 c 2,18,-1
 216 1026 l 1,19,-1
 381 1026 l 1,20,-1
 381 -84 l 2,21,22
 381 -290 381 -290 316.5 -377 c 128,-1,23
 252 -464 252 -464 101 -464 c 0,8,9
EndSplineSet
EndChar

StartChar: k
Encoding: 107 107 78
Width: 1047
GlyphClass: 2
Flags: W
AnchorPoint: "Anchor-1" 616 -1 basechar 0
AnchorPoint: "Anchor-0" 767 1152 basechar 0
LayerCount: 2
UndoRedoHistory
Layer: 1
Undoes
EndUndoes
Redoes
EndRedoes
EndUndoRedoHistory
Fore
SplineSet
1052 0 m 1,0,-1
 835 0 l 1,1,-1
 336 460 l 1,2,-1
 336 0 l 1,3,-1
 172 0 l 1,4,-1
 172 1526 l 1,5,-1
 336 1526 l 1,6,-1
 336 556 l 1,7,-1
 783 1026 l 1,8,-1
 990 1026 l 1,9,-1
 498 513 l 1,10,-1
 1052 0 l 1,0,-1
EndSplineSet
EndChar

StartChar: l
Encoding: 108 108 79
Width: 711
GlyphClass: 2
Flags: W
AnchorPoint: "Anchor-1" 264 0 basechar 0
AnchorPoint: "Anchor-0" 266 1474 basechar 0
LayerCount: 2
UndoRedoHistory
Layer: 1
Undoes
EndUndoes
Redoes
EndRedoes
EndUndoRedoHistory
Fore
SplineSet
707 152 m 1,0,1
 732 35 l 1,2,3
 611 -18 611 -18 496 -18 c 0,4,5
 356 -18 356 -18 268 63 c 128,-1,6
 180 144 180 144 180 300 c 2,7,-1
 180 1526 l 1,8,-1
 344 1526 l 1,9,-1
 344 292 l 2,10,11
 344 197 344 197 392 152.5 c 128,-1,12
 440 108 440 108 521 108 c 0,13,14
 603 108 603 108 707 152 c 1,0,1
EndSplineSet
EndChar

StartChar: m
Encoding: 109 109 80
Width: 1936
GlyphClass: 2
Flags: W
AnchorPoint: "Anchor-1" 946 0 basechar 0
AnchorPoint: "Anchor-0" 952 1024 basechar 0
LayerCount: 2
UndoRedoHistory
Layer: 1
Undoes
EndUndoes
Redoes
EndRedoes
EndUndoRedoHistory
Fore
SplineSet
1867 -14 m 1,0,-1
 1842 -14 l 2,1,2
 1688 -14 1688 -14 1625.5 66.5 c 128,-1,3
 1563 147 1563 147 1563 324 c 2,4,-1
 1563 579 l 2,5,6
 1563 763 1563 763 1515 839.5 c 128,-1,7
 1467 916 1467 916 1354 916 c 0,8,9
 1297 916 1297 916 1245.5 893.5 c 128,-1,10
 1194 871 1194 871 1151 826.5 c 128,-1,11
 1108 782 1108 782 1082.5 707 c 128,-1,12
 1057 632 1057 632 1057 536 c 2,13,-1
 1057 0 l 1,14,-1
 893 0 l 1,15,-1
 893 566 l 2,16,17
 893 746 893 746 841.5 831 c 128,-1,18
 790 916 790 916 679 916 c 0,19,20
 546 916 546 916 460.5 815 c 128,-1,21
 375 714 375 714 375 529 c 2,22,-1
 375 0 l 1,23,-1
 211 0 l 1,24,-1
 211 680 l 2,25,26
 211 838 211 838 88 945 c 1,27,-1
 230 1026 l 1,28,29
 270 995 270 995 306 939 c 128,-1,30
 342 883 342 883 347 832 c 1,31,32
 466 1052 466 1052 714 1052 c 0,33,34
 829 1052 829 1052 903 989 c 128,-1,35
 977 926 977 926 1009 828 c 1,36,37
 1068 934 1068 934 1165.5 993 c 128,-1,38
 1263 1052 1263 1052 1380 1052 c 0,39,40
 1727 1052 1727 1052 1727 577 c 2,41,-1
 1727 353 l 2,42,43
 1727 215 1727 215 1751.5 168 c 128,-1,44
 1776 121 1776 121 1863 121 c 2,45,-1
 1894 121 l 1,46,-1
 1867 -14 l 1,0,-1
EndSplineSet
EndChar

StartChar: n
Encoding: 110 110 81
Width: 1275
GlyphClass: 2
Flags: W
AnchorPoint: "Anchor-1" 676 0 basechar 0
AnchorPoint: "Anchor-0" 697 1152 basechar 0
LayerCount: 2
UndoRedoHistory
Layer: 1
Undoes
EndUndoes
Redoes
EndRedoes
EndUndoRedoHistory
Fore
SplineSet
1233 121 m 1,0,-1
 1206 -14 l 1,1,-1
 1178 -14 l 2,2,3
 1096 -14 1096 -14 1041.5 8.5 c 128,-1,4
 987 31 987 31 956.5 78 c 128,-1,5
 926 125 926 125 914 186.5 c 128,-1,6
 902 248 902 248 902 338 c 2,7,-1
 902 580 l 2,8,9
 902 759 902 759 846.5 837.5 c 128,-1,10
 791 916 791 916 679 916 c 0,11,12
 621 916 621 916 568.5 893 c 128,-1,13
 516 870 516 870 472 824 c 128,-1,14
 428 778 428 778 401.5 700 c 128,-1,15
 375 622 375 622 375 522 c 2,16,-1
 375 0 l 1,17,-1
 211 0 l 1,18,-1
 211 683 l 2,19,20
 211 839 211 839 88 941 c 1,21,-1
 230 1023 l 1,22,23
 322 943 322 943 338 833 c 1,24,25
 394 934 394 934 488.5 993 c 128,-1,26
 583 1052 583 1052 712 1052 c 0,27,28
 788 1052 788 1052 850.5 1025.5 c 128,-1,29
 913 999 913 999 962 944.5 c 128,-1,30
 1011 890 1011 890 1038.5 799 c 128,-1,31
 1066 708 1066 708 1066 588 c 2,32,-1
 1066 311 l 2,33,34
 1066 208 1066 208 1092.5 164.5 c 128,-1,35
 1119 121 1119 121 1194 121 c 2,36,-1
 1233 121 l 1,0,-1
EndSplineSet
EndChar

StartChar: o
Encoding: 111 111 82
Width: 1216
GlyphClass: 2
Flags: W
AnchorPoint: "Anchor-2" 726 0 basechar 0
AnchorPoint: "Anchor-1" 826 0 basechar 0
AnchorPoint: "Anchor-0" 619 1152 basechar 0
LayerCount: 2
UndoRedoHistory
Layer: 1
Undoes
EndUndoes
Redoes
EndRedoes
EndUndoRedoHistory
Fore
SplineSet
613 -22 m 0,0,1
 392 -22 392 -22 252 125 c 128,-1,2
 112 272 112 272 112 511 c 0,3,4
 112 751 112 751 252 901.5 c 128,-1,5
 392 1052 392 1052 612 1052 c 0,6,7
 829 1052 829 1052 966.5 902.5 c 128,-1,8
 1104 753 1104 753 1104 513 c 0,9,10
 1104 274 1104 274 967 126 c 128,-1,11
 830 -22 830 -22 613 -22 c 0,0,1
613 114 m 0,12,13
 758 114 758 114 845.5 225 c 128,-1,14
 933 336 933 336 933 515 c 0,15,16
 933 696 933 696 845.5 806 c 128,-1,17
 758 916 758 916 612 916 c 0,18,19
 463 916 463 916 372.5 805 c 128,-1,20
 282 694 282 694 282 513 c 0,21,22
 282 335 282 335 373 224.5 c 128,-1,23
 464 114 464 114 613 114 c 0,12,13
EndSplineSet
EndChar

StartChar: p
Encoding: 112 112 83
Width: 1223
GlyphClass: 2
Flags: W
AnchorPoint: "Anchor-1" 826 0 basechar 0
AnchorPoint: "Anchor-0" 673 1014 basechar 0
LayerCount: 2
UndoRedoHistory
Layer: 1
Undoes
EndUndoes
Redoes
EndRedoes
EndUndoRedoHistory
Fore
SplineSet
368 166 m 1,0,1
 484 114 484 114 593 114 c 0,2,3
 748 114 748 114 845 220 c 128,-1,4
 942 326 942 326 942 541 c 0,5,6
 942 723 942 723 869 819.5 c 128,-1,7
 796 916 796 916 662 916 c 0,8,9
 542 916 542 916 455 811 c 128,-1,10
 368 706 368 706 368 508 c 2,11,-1
 368 166 l 1,0,1
205 -508 m 1,12,-1
 205 646 l 2,13,14
 205 757 205 757 167.5 832.5 c 128,-1,15
 130 908 130 908 82 945 c 1,16,-1
 223 1026 l 1,17,18
 257 1000 257 1000 289.5 946.5 c 128,-1,19
 322 893 322 893 332 829 c 1,20,21
 397 942 397 942 495 997 c 128,-1,22
 593 1052 593 1052 697 1052 c 0,23,24
 889 1052 889 1052 1000 914.5 c 128,-1,25
 1111 777 1111 777 1111 543 c 0,26,27
 1111 279 1111 279 975.5 128.5 c 128,-1,28
 840 -22 840 -22 619 -22 c 0,29,30
 500 -22 500 -22 369 24 c 1,31,-1
 369 -508 l 1,32,-1
 205 -508 l 1,12,-1
EndSplineSet
EndChar

StartChar: q
Encoding: 113 113 84
Width: 1189
GlyphClass: 2
Flags: W
LayerCount: 2
UndoRedoHistory
Layer: 1
Undoes
EndUndoes
Redoes
EndRedoes
EndUndoRedoHistory
Fore
SplineSet
541 114 m 0,0,1
 689 114 689 114 770 215.5 c 128,-1,2
 851 317 851 317 851 476 c 2,3,-1
 851 881 l 1,4,5
 734 916 734 916 663 916 c 0,6,7
 489 916 489 916 385.5 789 c 128,-1,8
 282 662 282 662 282 448 c 0,9,10
 282 298 282 298 353 206 c 128,-1,11
 424 114 424 114 541 114 c 0,0,1
1005 -544 m 2,12,13
 982 -554 982 -554 956 -554 c 0,14,15
 955 -554 955 -554 954 -555 c 0,16,17
 930 -555 930 -555 907 -546 c 0,18,19
 883 -537 883 -537 867 -509.5 c 128,-1,20
 851 -482 851 -482 851 -441 c 2,21,-1
 851 153 l 1,22,23
 745 -22 745 -22 520 -22 c 0,24,25
 339 -22 339 -22 225.5 105 c 128,-1,26
 112 232 112 232 112 438 c 0,27,28
 112 722 112 722 263.5 887 c 128,-1,29
 415 1052 415 1052 666 1052 c 0,30,31
 759 1052 759 1052 855.5 1023.5 c 128,-1,32
 952 995 952 995 1015 954 c 1,33,-1
 1015 -386 l 1,34,-1
 1297 -268 l 1,35,-1
 1322 -405 l 1,36,-1
 1005 -544 l 2,12,13
EndSplineSet
EndChar

StartChar: r
Encoding: 114 114 85
Width: 813
GlyphClass: 2
Flags: W
AnchorPoint: "Anchor-1" 338 -3 basechar 0
AnchorPoint: "Anchor-0" 487 1152 basechar 0
LayerCount: 2
UndoRedoHistory
Layer: 1
Undoes
EndUndoes
Redoes
EndRedoes
EndUndoRedoHistory
Fore
SplineSet
211 0 m 1,0,-1
 211 693 l 2,1,2
 211 771 211 771 173 837.5 c 128,-1,3
 135 904 135 904 88 944 c 1,4,-1
 229 1026 l 1,5,6
 318 948 318 948 338 830 c 1,7,8
 377 926 377 926 462.5 987 c 128,-1,9
 548 1048 548 1048 643 1048 c 0,10,11
 725 1048 725 1048 797 1028 c 1,12,-1
 783 883 l 1,13,14
 715 907 715 907 638 907 c 0,15,16
 526 907 526 907 450.5 807.5 c 128,-1,17
 375 708 375 708 375 537 c 2,18,-1
 375 0 l 1,19,-1
 211 0 l 1,0,-1
EndSplineSet
EndChar

StartChar: s
Encoding: 115 115 86
Width: 907
GlyphClass: 2
Flags: W
AnchorPoint: "Anchor-1" 501 0 basechar 0
AnchorPoint: "Anchor-0" 500 1152 basechar 0
LayerCount: 2
UndoRedoHistory
Layer: 1
Undoes
EndUndoes
Redoes
EndRedoes
EndUndoRedoHistory
Fore
SplineSet
475 -22 m 0,0,1
 283 -22 283 -22 118 78 c 1,2,-1
 169 208 l 1,3,4
 334 114 334 114 465 114 c 0,5,6
 546 114 546 114 600.5 152 c 128,-1,7
 655 190 655 190 655 267 c 0,8,9
 655 284 655 284 651.5 299 c 128,-1,10
 648 314 648 314 638 328.5 c 128,-1,11
 628 343 628 343 621 353 c 128,-1,12
 614 363 614 363 594.5 376 c 128,-1,13
 575 389 575 389 565 396 c 128,-1,14
 555 403 555 403 528 416 c 128,-1,15
 501 429 501 429 490 434 c 128,-1,16
 479 439 479 439 445.5 453.5 c 128,-1,17
 412 468 412 468 401 473 c 0,18,19
 350 495 350 495 317.5 511.5 c 128,-1,20
 285 528 285 528 244 556 c 128,-1,21
 203 584 203 584 180 612.5 c 128,-1,22
 157 641 157 641 140.5 683.5 c 128,-1,23
 124 726 124 726 124 777 c 0,24,25
 124 907 124 907 220 979.5 c 128,-1,26
 316 1052 316 1052 458 1052 c 0,27,28
 636 1052 636 1052 782 969 c 1,29,-1
 735 837 l 1,30,31
 681 868 681 868 607 892 c 128,-1,32
 533 916 533 916 470 916 c 0,33,34
 385 916 385 916 336.5 880 c 128,-1,35
 288 844 288 844 288 779 c 0,36,37
 288 747 288 747 302 722 c 128,-1,38
 316 697 316 697 347 675.5 c 128,-1,39
 378 654 378 654 411.5 637.5 c 128,-1,40
 445 621 445 621 499 597 c 0,41,42
 523 587 523 587 536 581 c 0,43,44
 602 554 602 554 644.5 531 c 128,-1,45
 687 508 687 508 731 472 c 128,-1,46
 775 436 775 436 796 388 c 128,-1,47
 817 340 817 340 817 279 c 0,48,49
 817 138 817 138 720 58 c 128,-1,50
 623 -22 623 -22 475 -22 c 0,0,1
EndSplineSet
EndChar

StartChar: t
Encoding: 116 116 87
Width: 856
GlyphClass: 2
Flags: W
AnchorPoint: "Anchor-1" 501 0 basechar 0
AnchorPoint: "Anchor-0" 370 1266 basechar 0
LayerCount: 2
UndoRedoHistory
Layer: 1
Undoes
EndUndoes
Redoes
EndRedoes
EndUndoRedoHistory
Fore
SplineSet
587 -8 m 0,0,1
 417 -8 417 -8 339 65 c 128,-1,2
 261 138 261 138 261 300 c 2,3,-1
 261 919 l 1,4,-1
 58 919 l 1,5,-1
 58 1026 l 1,6,-1
 266 1026 l 1,7,-1
 266 1323 l 1,8,-1
 422 1353 l 1,9,-1
 422 1026 l 1,10,-1
 756 1026 l 1,11,-1
 756 919 l 1,12,-1
 422 919 l 1,13,-1
 425 298 l 2,14,15
 425 204 425 204 468 161.5 c 128,-1,16
 511 119 511 119 606 119 c 0,17,18
 640 119 640 119 701.5 131.5 c 128,-1,19
 763 144 763 144 799 158 c 1,20,-1
 818 35 l 1,21,22
 770 18 770 18 699.5 5 c 128,-1,23
 629 -8 629 -8 587 -8 c 0,0,1
EndSplineSet
EndChar

StartChar: u
Encoding: 117 117 88
Width: 1239
GlyphClass: 2
Flags: W
AnchorPoint: "Anchor-2" 947 0 basechar 0
AnchorPoint: "Anchor-1" 587 0 basechar 0
AnchorPoint: "Anchor-0" 600 1152 basechar 0
LayerCount: 2
UndoRedoHistory
Layer: 1
Undoes
EndUndoes
Redoes
EndRedoes
EndUndoRedoHistory
Fore
SplineSet
541 -22 m 0,0,1
 468 -22 468 -22 404.5 -1 c 128,-1,2
 341 20 341 20 288 64 c 0,3,4
 236 108 236 108 206 185 c 0,5,6
 179 255 179 255 179 346 c 0,7,8
 179 355 179 355 179 365 c 2,9,-1
 185 582 l 2,10,11
 186 613 186 613 186 643 c 0,12,13
 186 698 186 698 182 748 c 0,14,15
 176 824 176 824 168 867 c 128,-1,16
 160 910 160 910 149 944.5 c 128,-1,17
 138 979 138 979 133.5 987.5 c 128,-1,18
 129 996 129 996 126 1000 c 1,19,-1
 291 1026 l 1,20,-1
 298 1015 l 2,21,22
 305 1004 305 1004 314.5 973 c 128,-1,23
 324 942 324 942 333 897 c 128,-1,24
 342 852 342 852 348 772 c 0,25,26
 352 720 352 720 351 661 c 0,27,28
 351 629 351 629 350 595 c 2,29,-1
 344 365 l 2,30,31
 344 358 344 358 344 352 c 0,32,33
 344 114 344 114 561 114 c 0,34,35
 688 114 688 114 775 216 c 128,-1,36
 862 318 862 318 862 482 c 2,37,-1
 862 1026 l 1,38,-1
 1026 1026 l 1,39,-1
 1026 328 l 2,40,41
 1026 211 1026 211 1053.5 166 c 128,-1,42
 1081 121 1081 121 1171 121 c 1,43,-1
 1142 -14 l 1,44,45
 1034 -14 1034 -14 968.5 27 c 128,-1,46
 903 68 903 68 881 161 c 1,47,48
 770 -22 770 -22 541 -22 c 0,0,1
EndSplineSet
EndChar

StartChar: v
Encoding: 118 118 89
Width: 1050
GlyphClass: 2
Flags: W
LayerCount: 2
UndoRedoHistory
Layer: 1
Undoes
EndUndoes
Redoes
EndRedoes
EndUndoRedoHistory
Fore
SplineSet
443 0 m 1,0,-1
 21 1026 l 1,1,-1
 203 1026 l 1,2,-1
 477 336 l 2,3,4
 501 278 501 278 535 163 c 1,5,6
 582 315 582 315 591 336 c 2,7,-1
 852 1026 l 1,8,-1
 1029 1026 l 1,9,-1
 611 0 l 1,10,-1
 443 0 l 1,0,-1
EndSplineSet
EndChar

StartChar: w
Encoding: 119 119 90
Width: 1667
GlyphClass: 2
Flags: W
AnchorPoint: "Anchor-1" 840 0 basechar 0
AnchorPoint: "Anchor-0" 843 1024 basechar 0
LayerCount: 2
UndoRedoHistory
Layer: 1
Undoes
EndUndoes
Redoes
EndRedoes
EndUndoRedoHistory
Fore
SplineSet
392 0 m 1,0,-1
 27 1026 l 1,1,-1
 203 1026 l 1,2,-1
 452 284 l 2,3,4
 457 268 457 268 467 234 c 128,-1,5
 477 200 477 200 481 186 c 1,6,7
 483 192 483 192 494 226 c 128,-1,8
 505 260 505 260 512 276 c 1,9,-1
 768 1026 l 1,10,-1
 927 1026 l 1,11,-1
 1168 286 l 2,12,13
 1173 271 1173 271 1182.5 237 c 128,-1,14
 1192 203 1192 203 1197 189 c 1,15,16
 1204 206 1204 206 1215 240.5 c 128,-1,17
 1226 275 1226 275 1231 287 c 1,18,-1
 1471 1026 l 1,19,-1
 1640 1026 l 1,20,-1
 1272 0 l 1,21,-1
 1112 0 l 1,22,-1
 842 831 l 1,23,-1
 554 0 l 1,24,-1
 392 0 l 1,0,-1
EndSplineSet
EndChar

StartChar: x
Encoding: 120 120 91
Width: 1065
GlyphClass: 2
Flags: W
LayerCount: 2
UndoRedoHistory
Layer: 1
Undoes
EndUndoes
Redoes
EndRedoes
EndUndoRedoHistory
Fore
SplineSet
49 0 m 1,0,-1
 441 514 l 1,1,-1
 68 1026 l 1,2,-1
 270 1026 l 1,3,-1
 546 626 l 1,4,-1
 824 1026 l 1,5,-1
 1003 1026 l 1,6,-1
 633 518 l 1,7,-1
 1016 0 l 1,8,-1
 815 0 l 1,9,-1
 531 408 l 1,10,-1
 239 0 l 1,11,-1
 49 0 l 1,0,-1
EndSplineSet
EndChar

StartChar: y
Encoding: 121 121 92
Width: 1196
GlyphClass: 2
Flags: W
AnchorPoint: "Anchor-0" 536 1024 basechar 0
LayerCount: 2
UndoRedoHistory
Layer: 1
Undoes
EndUndoes
Redoes
EndRedoes
EndUndoRedoHistory
Fore
SplineSet
555 -494 m 0,0,1
 394 -494 394 -494 227 -433 c 1,2,-1
 246 -280 l 1,3,4
 315 -315 315 -315 396 -336 c 128,-1,5
 477 -357 477 -357 541 -357 c 0,6,7
 692 -357 692 -357 784 -271 c 128,-1,8
 876 -185 876 -185 876 -44 c 2,9,-1
 876 116 l 1,10,11
 753 -22 753 -22 559 -22 c 0,12,13
 501 -22 501 -22 447 -9.5 c 128,-1,14
 393 3 393 3 342.5 32.5 c 128,-1,15
 292 62 292 62 255.5 105.5 c 0,16,17
 219 150 219 150 198 216 c 0,18,19
 179 277 179 277 179 351 c 0,20,21
 179 358 179 358 179 365 c 2,22,-1
 185 582 l 2,23,24
 186 613 186 613 186 643 c 0,25,26
 186 698 186 698 182 748 c 0,27,28
 176 824 176 824 168 867 c 128,-1,29
 160 910 160 910 149 944.5 c 128,-1,30
 138 979 138 979 133.5 987.5 c 128,-1,31
 129 996 129 996 126 1000 c 1,32,-1
 291 1026 l 1,33,-1
 298 1015 l 2,34,35
 305 1004 305 1004 314.5 973 c 128,-1,36
 324 942 324 942 333 897 c 128,-1,37
 342 852 342 852 348 772 c 0,38,39
 352 720 352 720 351 661 c 0,40,41
 351 629 351 629 350 595 c 2,42,-1
 344 365 l 2,43,44
 344 359 344 359 344 352 c 0,45,46
 344 289 344 289 362 243 c 0,47,48
 382 192 382 192 418.5 165 c 128,-1,49
 455 138 455 138 495.5 126 c 128,-1,50
 536 114 536 114 583 114 c 0,51,52
 706 114 706 114 791 199 c 128,-1,53
 876 284 876 284 876 427 c 2,54,-1
 876 1026 l 1,55,-1
 1040 1026 l 1,56,-1
 1040 -23 l 2,57,58
 1040 -234 1040 -234 905.5 -364 c 128,-1,59
 771 -494 771 -494 555 -494 c 0,0,1
EndSplineSet
EndChar

StartChar: z
Encoding: 122 122 93
Width: 978
GlyphClass: 2
Flags: W
AnchorPoint: "Anchor-1" 555 0 basechar 0
AnchorPoint: "Anchor-0" 506 1024 basechar 0
LayerCount: 2
UndoRedoHistory
Layer: 1
Undoes
EndUndoes
Redoes
EndRedoes
EndUndoRedoHistory
Fore
SplineSet
90 0 m 1,0,-1
 90 89 l 1,1,-1
 676 891 l 1,2,-1
 116 891 l 1,3,-1
 116 1026 l 1,4,-1
 899 1026 l 1,5,-1
 899 939 l 1,6,-1
 315 134 l 1,7,-1
 916 134 l 1,8,-1
 916 0 l 1,9,-1
 90 0 l 1,0,-1
EndSplineSet
EndChar

StartChar: braceleft
Encoding: 123 123 94
Width: 744
GlyphClass: 2
Flags: W
LayerCount: 2
UndoRedoHistory
Layer: 1
Undoes
EndUndoes
Redoes
EndRedoes
EndUndoRedoHistory
Fore
SplineSet
653 -225 m 1,0,1
 477 -220 477 -220 374 -146.5 c 128,-1,2
 271 -73 271 -73 271 69 c 2,3,-1
 271 319 l 2,4,5
 271 423 271 423 225 487 c 128,-1,6
 179 551 179 551 79 560 c 1,7,-1
 79 695 l 1,8,9
 166 701 166 701 218 758.5 c 128,-1,10
 270 816 270 816 271 912 c 1,11,-1
 271 1156 l 2,12,13
 271 1307 271 1307 367 1393.5 c 128,-1,14
 463 1480 463 1480 654 1480 c 1,15,-1
 654 1337 l 1,16,17
 561 1335 561 1335 499.5 1288.5 c 128,-1,18
 438 1242 438 1242 438 1148 c 2,19,-1
 438 875 l 2,20,21
 438 775 438 775 390 712.5 c 128,-1,22
 342 650 342 650 259 625 c 1,23,24
 343 594 343 594 390.5 519.5 c 128,-1,25
 438 445 438 445 438 360 c 2,26,-1
 438 128 l 2,27,28
 438 -82 438 -82 653 -82 c 1,29,-1
 653 -225 l 1,0,1
EndSplineSet
EndChar

StartChar: bar
Encoding: 124 124 95
Width: 964
GlyphClass: 2
Flags: W
LayerCount: 2
UndoRedoHistory
Layer: 1
Undoes
EndUndoes
Redoes
EndRedoes
EndUndoRedoHistory
Fore
SplineSet
400 -200 m 1,0,-1
 400 1541 l 1,1,-1
 564 1541 l 1,2,-1
 564 -200 l 1,3,-1
 400 -200 l 1,0,-1
EndSplineSet
EndChar

StartChar: braceright
Encoding: 125 125 96
Width: 764
GlyphClass: 2
Flags: W
LayerCount: 2
UndoRedoHistory
Layer: 1
Undoes
EndUndoes
Redoes
EndRedoes
EndUndoRedoHistory
Fore
SplineSet
132 1480 m 1,0,1
 308 1475 308 1475 411 1401.5 c 128,-1,2
 514 1328 514 1328 514 1186 c 2,3,-1
 514 936 l 2,4,5
 514 832 514 832 560 768 c 128,-1,6
 606 704 606 704 706 695 c 1,7,-1
 706 560 l 1,8,9
 619 554 619 554 567 496.5 c 128,-1,10
 515 439 515 439 514 343 c 1,11,-1
 514 99 l 2,12,13
 514 -52 514 -52 418 -138.5 c 128,-1,14
 322 -225 322 -225 131 -225 c 1,15,-1
 131 -82 l 1,16,17
 224 -80 224 -80 285.5 -33.5 c 128,-1,18
 347 13 347 13 347 107 c 2,19,-1
 347 380 l 2,20,21
 347 480 347 480 395 542.5 c 128,-1,22
 443 605 443 605 526 630 c 1,23,24
 442 661 442 661 394.5 735.5 c 128,-1,25
 347 810 347 810 347 895 c 2,26,-1
 347 1127 l 2,27,28
 347 1337 347 1337 132 1337 c 1,29,-1
 132 1480 l 1,0,1
EndSplineSet
EndChar

StartChar: asciitilde
Encoding: 126 126 97
Width: 1298
GlyphClass: 2
Flags: W
LayerCount: 2
UndoRedoHistory
Layer: 1
Undoes
EndUndoes
Redoes
EndRedoes
EndUndoRedoHistory
Fore
SplineSet
247 385 m 1,0,1
 132 440 l 1,2,3
 157 558 157 558 236 631.5 c 128,-1,4
 315 705 315 705 427 705 c 0,5,6
 486 705 486 705 587 664 c 0,7,8
 621 650 621 650 684.5 617 c 128,-1,9
 748 584 748 584 795.5 564.5 c 128,-1,10
 843 545 843 545 874 545 c 0,11,12
 940 545 940 545 982.5 598 c 128,-1,13
 1025 651 1025 651 1041 723 c 1,14,15
 1166 684 l 1,16,17
 1137 561 1137 561 1061 485.5 c 128,-1,18
 985 410 985 410 873 410 c 0,19,20
 821 410 821 410 733 452 c 0,21,22
 709 463 709 463 657.5 489 c 128,-1,23
 606 515 606 515 574.5 530 c 128,-1,24
 543 545 543 545 501 558 c 128,-1,25
 459 571 459 571 429 571 c 0,26,27
 356 571 356 571 310 517 c 128,-1,28
 264 463 264 463 247 385 c 1,0,1
EndSplineSet
EndChar

StartChar: cent
Encoding: 162 162 100
Width: 1180
GlyphClass: 2
Flags: W
LayerCount: 2
UndoRedoHistory
Layer: 1
Undoes
EndUndoes
Redoes
EndRedoes
EndUndoRedoHistory
Fore
SplineSet
602 122 m 1,0,-1
 602 904 l 1,1,2
 470 882 470 882 398.5 774.5 c 128,-1,3
 327 667 327 667 327 508 c 0,4,5
 327 344 327 344 402 243 c 128,-1,6
 477 142 477 142 602 122 c 1,0,-1
602 -235 m 1,7,-1
 602 -20 l 1,8,9
 408 0 408 0 281 144.5 c 128,-1,10
 154 289 154 289 154 503 c 0,11,12
 154 731 154 731 275 880.5 c 128,-1,13
 396 1030 396 1030 602 1049 c 1,14,-1
 602 1281 l 1,15,-1
 710 1281 l 1,16,-1
 710 1049 l 1,17,18
 909 1034 909 1034 1001 912 c 1,19,-1
 924 801 l 1,20,21
 850 893 850 893 710 907 c 1,22,-1
 710 120 l 1,23,24
 851 135 851 135 981 225 c 1,25,-1
 1017 87 l 1,26,27
 867 -3 867 -3 710 -20 c 1,28,-1
 710 -235 l 1,29,-1
 602 -235 l 1,7,-1
EndSplineSet
EndChar

StartChar: sterling
Encoding: 163 163 101
Width: 1244
GlyphClass: 2
Flags: W
LayerCount: 2
UndoRedoHistory
Layer: 1
Undoes
EndUndoes
Redoes
EndRedoes
EndUndoRedoHistory
Fore
SplineSet
215 0 m 1,0,-1
 215 138 l 1,1,2
 292 183 292 183 332 277.5 c 128,-1,3
 372 372 372 372 372 500 c 2,4,-1
 372 660 l 1,5,-1
 189 660 l 1,6,-1
 189 792 l 1,7,-1
 371 792 l 1,8,-1
 371 926 l 2,9,10
 371 1483 371 1483 790 1483 c 0,11,12
 1000 1483 1000 1483 1115 1392 c 1,13,-1
 1063 1261 l 1,14,15
 949 1331 949 1331 800 1331 c 0,16,17
 727 1331 727 1331 676 1306.5 c 128,-1,18
 625 1282 625 1282 596.5 1234 c 128,-1,19
 568 1186 568 1186 555.5 1125 c 128,-1,20
 543 1064 543 1064 543 982 c 2,21,-1
 543 792 l 1,22,-1
 860 792 l 1,23,-1
 860 660 l 1,24,-1
 545 660 l 1,25,-1
 545 551 l 2,26,27
 545 252 545 252 408 141 c 1,28,-1
 1134 141 l 1,29,-1
 1134 0 l 1,30,-1
 215 0 l 1,0,-1
EndSplineSet
EndChar

StartChar: currency
Encoding: 164 164 102
Width: 1223
GlyphClass: 2
Flags: W
LayerCount: 2
UndoRedoHistory
Layer: 1
Undoes
EndUndoes
Redoes
EndRedoes
EndUndoRedoHistory
Fore
SplineSet
562 351 m 128,-1,1
 683 351 683 351 765.5 437.5 c 128,-1,2
 848 524 848 524 851 651 c 0,3,4
 851 655 851 655 851 660 c 0,5,6
 851 781 851 781 772 870 c 0,7,8
 690 962 690 962 570 965 c 0,9,10
 566 965 566 965 562 965 c 0,11,12
 446 964 446 964 361 876 c 0,13,14
 273 784 273 784 273 657.5 c 128,-1,15
 273 531 273 531 357 441 c 128,-1,0
 441 351 441 351 562 351 c 128,-1,1
980 210 m 1,16,-1
 814 371 l 1,17,18
 709 274 709 274 564 274 c 0,19,20
 432 274 432 274 327 363 c 1,21,-1
 167 195 l 1,22,-1
 131 232 l 1,23,-1
 290 398 l 1,24,25
 185 511 185 511 185 661 c 0,26,27
 185 798 185 798 279 908 c 1,28,-1
 116 1065 l 1,29,-1
 155 1104 l 1,30,-1
 315 947 l 1,31,32
 424 1048 424 1048 565 1048 c 0,33,34
 569 1048 569 1048 573 1048 c 0,35,36
 706 1045 706 1045 806 956 c 1,37,-1
 962 1120 l 1,38,-1
 1002 1081 l 1,39,-1
 844 917 l 1,40,41
 943 807 943 807 943 660 c 0,42,43
 943 656 943 656 943 651 c 0,44,45
 940 512 940 512 849 408 c 1,46,-1
 1017 246 l 1,47,-1
 980 210 l 1,16,-1
EndSplineSet
EndChar

StartChar: yen
Encoding: 165 165 103
Width: 1235
GlyphClass: 2
Flags: W
LayerCount: 2
UndoRedoHistory
Layer: 1
Undoes
EndUndoes
Redoes
EndRedoes
EndUndoRedoHistory
Fore
SplineSet
167 283 m 1,0,-1
 167 403 l 1,1,-1
 530 403 l 1,2,-1
 530 574 l 1,3,-1
 161 574 l 1,4,-1
 161 696 l 1,5,-1
 462 696 l 1,6,-1
 8 1456 l 1,7,-1
 200 1456 l 1,8,-1
 616 727 l 1,9,-1
 1036 1456 l 1,10,-1
 1226 1456 l 1,11,-1
 769 696 l 1,12,-1
 1065 696 l 1,13,-1
 1065 574 l 1,14,-1
 702 574 l 1,15,-1
 702 403 l 1,16,-1
 1068 403 l 1,17,-1
 1068 283 l 1,18,-1
 702 283 l 1,19,-1
 702 0 l 1,20,-1
 530 0 l 1,21,-1
 530 283 l 1,22,-1
 167 283 l 1,0,-1
EndSplineSet
EndChar

StartChar: brokenbar
Encoding: 166 166 104
Width: 510
GlyphClass: 2
Flags: W
LayerCount: 2
UndoRedoHistory
Layer: 1
Undoes
EndUndoes
Redoes
EndRedoes
EndUndoRedoHistory
Fore
SplineSet
178 677 m 1,0,-1
 178 1545 l 1,1,-1
 335 1545 l 1,2,-1
 335 677 l 1,3,-1
 178 677 l 1,0,-1
178 -491 m 1,4,-1
 178 393 l 1,5,-1
 335 393 l 1,6,-1
 335 -491 l 1,7,-1
 178 -491 l 1,4,-1
EndSplineSet
EndChar

StartChar: section
Encoding: 167 167 105
Width: 1044
GlyphClass: 2
Flags: W
LayerCount: 2
UndoRedoHistory
Layer: 1
Undoes
EndUndoes
Redoes
EndRedoes
EndUndoRedoHistory
Fore
SplineSet
591 557 m 1,0,1
 620 575 620 575 639.5 590 c 128,-1,2
 659 605 659 605 681.5 627 c 128,-1,3
 704 649 704 649 715.5 674.5 c 128,-1,4
 727 700 727 700 727 728 c 0,5,6
 727 757 727 757 714.5 782 c 128,-1,7
 702 807 702 807 686 823.5 c 128,-1,8
 670 840 670 840 641 857 c 128,-1,9
 612 874 612 874 593 882 c 128,-1,10
 574 890 574 890 541.5 903 c 128,-1,11
 509 916 509 916 499 920 c 1,12,13
 371 852 371 852 371 746 c 0,14,15
 371 723 371 723 376.5 703.5 c 128,-1,16
 382 684 382 684 390 670 c 128,-1,17
 398 656 398 656 413 642.5 c 128,-1,18
 428 629 428 629 440.5 620.5 c 128,-1,19
 453 612 453 612 475 602 c 128,-1,20
 497 592 497 592 511.5 586.5 c 128,-1,21
 526 581 526 581 551.5 572 c 128,-1,22
 577 563 577 563 591 557 c 1,0,1
486 -24 m 0,23,24
 346 -24 346 -24 221 27 c 1,25,-1
 219 172 l 1,26,27
 362 110 362 110 481 110 c 0,28,29
 578 110 578 110 644 152.5 c 128,-1,30
 710 195 710 195 710 260 c 0,31,32
 710 287 710 287 701.5 308.5 c 128,-1,33
 693 330 693 330 681.5 343.5 c 128,-1,34
 670 357 670 357 647.5 370.5 c 128,-1,35
 625 384 625 384 608 391 c 128,-1,36
 591 398 591 398 558.5 410.5 c 128,-1,37
 526 423 526 423 508 431 c 2,38,-1
 428 466 l 2,39,40
 194 568 194 568 194 734 c 0,41,42
 194 882 194 882 383 974 c 1,43,44
 309 1018 309 1018 269.5 1072 c 128,-1,45
 230 1126 230 1126 230 1211 c 0,46,47
 230 1267 230 1267 250.5 1313 c 128,-1,48
 271 1359 271 1359 305.5 1389.5 c 128,-1,49
 340 1420 340 1420 388 1441 c 128,-1,50
 436 1462 436 1462 489.5 1471 c 128,-1,51
 543 1480 543 1480 602 1480 c 0,52,53
 644 1480 644 1480 685.5 1473.5 c 128,-1,54
 727 1467 727 1467 752 1461 c 128,-1,55
 777 1455 777 1455 826 1440 c 1,56,-1
 828 1296 l 1,57,58
 717 1346 717 1346 607 1346 c 0,59,60
 401 1346 401 1346 401 1215 c 0,61,62
 401 1161 401 1161 429 1129.5 c 128,-1,63
 457 1098 457 1098 509 1069 c 0,64,65
 543 1050 543 1050 607.5 1021.5 c 128,-1,66
 672 993 672 993 716 970.5 c 128,-1,67
 760 948 760 948 807.5 915.5 c 128,-1,68
 855 883 855 883 880 839.5 c 128,-1,69
 905 796 905 796 905 742 c 0,70,71
 905 696 905 696 888.5 656.5 c 128,-1,72
 872 617 872 617 841.5 586 c 128,-1,73
 811 555 811 555 784 534.5 c 128,-1,74
 757 514 757 514 719 491 c 1,75,76
 795 453 795 453 838.5 403 c 128,-1,77
 882 353 882 353 882 269 c 0,78,79
 882 192 882 192 850.5 134.5 c 128,-1,80
 819 77 819 77 763 43 c 128,-1,81
 707 9 707 9 637.5 -7.5 c 128,-1,82
 568 -24 568 -24 486 -24 c 0,23,24
EndSplineSet
EndChar

StartChar: dieresis
Encoding: 168 168 106
Width: 753
GlyphClass: 2
Flags: W
AnchorPoint: "Anchor-0" 368 1152 mark 0
LayerCount: 2
UndoRedoHistory
Layer: 1
Undoes
EndUndoes
Redoes
EndRedoes
EndUndoRedoHistory
Fore
SplineSet
463 1293 m 1,0,-1
 463 1456 l 1,1,-1
 627 1456 l 1,2,-1
 627 1293 l 1,3,-1
 463 1293 l 1,0,-1
131 1293 m 1,4,-1
 131 1456 l 1,5,-1
 295 1456 l 1,6,-1
 295 1293 l 1,7,-1
 131 1293 l 1,4,-1
EndSplineSet
EndChar

StartChar: copyright
Encoding: 169 169 107
Width: 1736
GlyphClass: 2
Flags: W
LayerCount: 2
UndoRedoHistory
Layer: 1
Undoes
EndUndoes
Redoes
EndRedoes
EndUndoRedoHistory
Fore
SplineSet
867 80 m 0,0,1
 1039 80 1039 80 1184 167.5 c 128,-1,2
 1329 255 1329 255 1412.5 403.5 c 128,-1,3
 1496 552 1496 552 1496 725 c 0,4,5
 1496 899 1496 899 1412.5 1047.5 c 128,-1,6
 1329 1196 1329 1196 1184 1283.5 c 128,-1,7
 1039 1371 1039 1371 867 1371 c 0,8,9
 694 1371 694 1371 549 1283.5 c 128,-1,10
 404 1196 404 1196 320.5 1047.5 c 128,-1,11
 237 899 237 899 237 725 c 0,12,13
 237 552 237 552 320.5 403.5 c 128,-1,14
 404 255 404 255 549 167.5 c 128,-1,15
 694 80 694 80 867 80 c 0,0,1
868 1480 m 128,-1,17
 1020 1480 1020 1480 1159.5 1420 c 128,-1,18
 1299 1360 1299 1360 1400 1259 c 128,-1,19
 1501 1158 1501 1158 1560.5 1018.5 c 128,-1,20
 1620 879 1620 879 1620 727 c 128,-1,21
 1620 575 1620 575 1560 436 c 128,-1,22
 1500 297 1500 297 1399.5 196 c 128,-1,23
 1299 95 1299 95 1159.5 35 c 128,-1,24
 1020 -25 1020 -25 868 -25 c 128,-1,25
 716 -25 716 -25 576.5 35 c 128,-1,26
 437 95 437 95 336.5 196 c 128,-1,27
 236 297 236 297 176 436 c 128,-1,28
 116 575 116 575 116 727 c 128,-1,29
 116 879 116 879 175.5 1018.5 c 128,-1,30
 235 1158 235 1158 336 1259 c 128,-1,31
 437 1360 437 1360 576.5 1420 c 128,-1,16
 716 1480 716 1480 868 1480 c 128,-1,17
893 249 m 0,32,33
 785 249 785 249 696 288 c 128,-1,34
 607 327 607 327 548.5 393 c 128,-1,35
 490 459 490 459 458 546 c 128,-1,36
 426 633 426 633 426 729 c 0,37,38
 426 956 426 956 559.5 1082 c 128,-1,39
 693 1208 693 1208 903 1208 c 0,40,41
 1070 1208 1070 1208 1186 1105 c 1,42,-1
 1156 985 l 1,43,44
 1050 1080 1050 1080 897 1080 c 0,45,46
 746 1080 746 1080 662.5 980.5 c 128,-1,47
 579 881 579 881 579 733 c 0,48,49
 579 564 579 564 670.5 472 c 128,-1,50
 762 380 762 380 923 380 c 0,51,52
 1057 380 1057 380 1152 460 c 1,53,-1
 1189 339 l 1,54,55
 1064 249 1064 249 893 249 c 0,32,33
EndSplineSet
EndChar

StartChar: guillemotleft
Encoding: 171 171 109
Width: 1153
GlyphClass: 2
Flags: W
LayerCount: 2
UndoRedoHistory
Layer: 1
Undoes
EndUndoes
Redoes
EndRedoes
EndUndoRedoHistory
Fore
SplineSet
853 173 m 1,0,-1
 591 543 l 1,1,-1
 858 916 l 1,2,-1
 1017 916 l 1,3,-1
 754 543 l 1,4,-1
 1010 173 l 1,5,-1
 853 173 l 1,0,-1
494 173 m 1,6,-1
 226 543 l 1,7,-1
 500 916 l 1,8,-1
 653 916 l 1,9,-1
 396 543 l 1,10,-1
 645 173 l 1,11,-1
 494 173 l 1,6,-1
EndSplineSet
EndChar

StartChar: logicalnot
Encoding: 172 172 110
Width: 1441
GlyphClass: 2
Flags: W
LayerCount: 2
UndoRedoHistory
Layer: 1
Undoes
EndUndoes
Redoes
EndRedoes
EndUndoRedoHistory
Fore
SplineSet
1082 238 m 1,0,-1
 1082 659 l 1,1,-1
 210 659 l 1,2,-1
 210 798 l 1,3,-1
 1232 798 l 1,4,-1
 1232 238 l 1,5,-1
 1082 238 l 1,0,-1
EndSplineSet
EndChar

StartChar: registered
Encoding: 174 174 111
Width: 1784
GlyphClass: 2
Flags: W
LayerCount: 2
UndoRedoHistory
Layer: 1
Undoes
EndUndoes
Redoes
EndRedoes
EndUndoRedoHistory
Fore
SplineSet
717 293 m 1,0,-1
 575 293 l 1,1,-1
 575 1192 l 1,2,-1
 789 1192 l 2,3,4
 1000 1192 1000 1192 1101.5 1133 c 128,-1,5
 1203 1074 1203 1074 1203 950 c 0,6,7
 1203 845 1203 845 1142.5 785.5 c 128,-1,8
 1082 726 1082 726 980 706 c 1,9,-1
 1221 293 l 1,10,-1
 1060 293 l 1,11,-1
 845 684 l 1,12,-1
 717 684 l 1,13,-1
 717 293 l 1,0,-1
715 803 m 1,14,-1
 787 803 l 2,15,16
 791 803 791 803 798 803 c 0,17,18
 835 803 835 803 853.5 803.5 c 128,-1,19
 872 804 872 804 904 806 c 128,-1,20
 936 808 936 808 953 813 c 128,-1,21
 970 818 970 818 992.5 827.5 c 128,-1,22
 1015 837 1015 837 1026.5 851 c 128,-1,23
 1038 865 1038 865 1046 886 c 128,-1,24
 1054 907 1054 907 1054 935 c 0,25,26
 1054 965 1054 965 1047 988 c 0,27,28
 1028 1055 1028 1055 941 1068 c 0,29,30
 912 1072 912 1072 786 1072 c 2,31,-1
 715 1072 l 1,32,-1
 715 803 l 1,14,-1
867 80 m 0,33,34
 1039 80 1039 80 1184 167.5 c 128,-1,35
 1329 255 1329 255 1412.5 403.5 c 128,-1,36
 1496 552 1496 552 1496 725 c 0,37,38
 1496 899 1496 899 1412.5 1047.5 c 128,-1,39
 1329 1196 1329 1196 1184 1283.5 c 128,-1,40
 1039 1371 1039 1371 867 1371 c 0,41,42
 694 1371 694 1371 549 1283.5 c 128,-1,43
 404 1196 404 1196 320.5 1047.5 c 128,-1,44
 237 899 237 899 237 725 c 0,45,46
 237 552 237 552 320.5 403.5 c 128,-1,47
 404 255 404 255 549 167.5 c 128,-1,48
 694 80 694 80 867 80 c 0,33,34
868 1480 m 128,-1,50
 1020 1480 1020 1480 1159.5 1420 c 128,-1,51
 1299 1360 1299 1360 1400 1259 c 128,-1,52
 1501 1158 1501 1158 1560.5 1018.5 c 128,-1,53
 1620 879 1620 879 1620 727 c 128,-1,54
 1620 575 1620 575 1560 436 c 128,-1,55
 1500 297 1500 297 1399.5 196 c 128,-1,56
 1299 95 1299 95 1159.5 35 c 128,-1,57
 1020 -25 1020 -25 868 -25 c 128,-1,58
 716 -25 716 -25 576.5 35 c 128,-1,59
 437 95 437 95 336.5 196 c 128,-1,60
 236 297 236 297 176 436 c 128,-1,61
 116 575 116 575 116 727 c 128,-1,62
 116 879 116 879 175.5 1018.5 c 128,-1,63
 235 1158 235 1158 336 1259 c 128,-1,64
 437 1360 437 1360 576.5 1420 c 128,-1,49
 716 1480 716 1480 868 1480 c 128,-1,50
EndSplineSet
EndChar

StartChar: macron
Encoding: 175 175 112
Width: 738
GlyphClass: 2
Flags: W
AnchorPoint: "Anchor-0" 373 1152 mark 0
LayerCount: 2
UndoRedoHistory
Layer: 1
Undoes
EndUndoes
Redoes
EndRedoes
EndUndoRedoHistory
Fore
SplineSet
89 1322 m 1,0,-1
 89 1456 l 1,1,-1
 661 1456 l 1,2,-1
 661 1322 l 1,3,-1
 89 1322 l 1,0,-1
EndSplineSet
EndChar

StartChar: degree
Encoding: 176 176 113
Width: 854
GlyphClass: 2
Flags: W
LayerCount: 2
UndoRedoHistory
Layer: 1
Undoes
EndUndoes
Redoes
EndRedoes
EndUndoRedoHistory
Fore
SplineSet
427 815 m 0,0,1
 278 815 278 815 184.5 914 c 128,-1,2
 91 1013 91 1013 91 1148 c 0,3,4
 91 1252 91 1252 141.5 1329.5 c 128,-1,5
 192 1407 192 1407 267 1443.5 c 128,-1,6
 342 1480 342 1480 427 1480 c 0,7,8
 577 1480 577 1480 670 1382 c 128,-1,9
 763 1284 763 1284 763 1148 c 0,10,11
 763 1044 763 1044 712 966 c 128,-1,12
 661 888 661 888 586 851.5 c 128,-1,13
 511 815 511 815 427 815 c 0,0,1
427 936 m 0,14,15
 523 936 523 936 577 999.5 c 128,-1,16
 631 1063 631 1063 631 1149 c 0,17,18
 631 1246 631 1246 572 1302.5 c 128,-1,19
 513 1359 513 1359 427 1359 c 0,20,21
 331 1359 331 1359 277 1297 c 128,-1,22
 223 1235 223 1235 223 1149 c 0,23,24
 223 1051 223 1051 280 993.5 c 128,-1,25
 337 936 337 936 427 936 c 0,14,15
EndSplineSet
EndChar

StartChar: plusminus
Encoding: 177 177 114
Width: 1451
GlyphClass: 2
Flags: W
LayerCount: 2
UndoRedoHistory
Layer: 1
Undoes
EndUndoes
Redoes
EndRedoes
EndUndoRedoHistory
Fore
SplineSet
210 0 m 1,0,-1
 210 138 l 1,1,-1
 1242 138 l 1,2,-1
 1242 0 l 1,3,-1
 210 0 l 1,0,-1
649 308 m 1,4,-1
 649 680 l 1,5,-1
 210 680 l 1,6,-1
 210 818 l 1,7,-1
 647 818 l 1,8,-1
 647 1192 l 1,9,-1
 796 1192 l 1,10,-1
 796 818 l 1,11,-1
 1238 818 l 1,12,-1
 1238 680 l 1,13,-1
 799 680 l 1,14,-1
 799 308 l 1,15,-1
 649 308 l 1,4,-1
EndSplineSet
EndChar

StartChar: uni00B2
Encoding: 178 178 115
Width: 1200
GlyphClass: 2
Flags: W
LayerCount: 2
UndoRedoHistory
Layer: 1
Undoes
EndUndoes
Redoes
EndRedoes
EndUndoRedoHistory
Fore
SplineSet
293 604 m 1,0,-1
 293 715 l 1,1,2
 510 914 510 914 594 1006 c 0,3,4
 647 1065 647 1065 680 1118 c 0,5,6
 711 1168 711 1168 711 1211 c 0,7,8
 711 1265 711 1265 672 1294 c 128,-1,9
 633 1323 633 1323 571 1323 c 0,10,11
 448 1323 448 1323 386 1192 c 1,12,-1
 301 1270 l 1,13,14
 335 1348 335 1348 406 1394 c 128,-1,15
 477 1440 477 1440 577 1440 c 0,16,17
 664 1440 664 1440 727 1404.5 c 128,-1,18
 790 1369 790 1369 820 1307 c 0,19,20
 840 1264 840 1264 840 1213 c 0,21,22
 840 1142 840 1142 812 1085 c 128,-1,23
 784 1028 784 1028 734 968 c 0,24,25
 716 947 716 947 693.5 923 c 128,-1,26
 671 899 671 899 656 883.5 c 128,-1,27
 641 868 641 868 609.5 840 c 128,-1,28
 578 812 578 812 568 803 c 128,-1,29
 558 794 558 794 519 760.5 c 128,-1,30
 480 727 480 727 475 722 c 1,31,-1
 839 722 l 1,32,-1
 839 604 l 1,33,-1
 293 604 l 1,0,-1
EndSplineSet
EndChar

StartChar: uni00B3
Encoding: 179 179 116
Width: 1200
GlyphClass: 2
Flags: W
LayerCount: 2
UndoRedoHistory
Layer: 1
Undoes
EndUndoes
Redoes
EndRedoes
EndUndoRedoHistory
Fore
SplineSet
491 586 m 0,0,1
 342 586 342 586 245 683 c 1,2,-1
 305 779 l 1,3,4
 389 701 389 701 486 701 c 0,5,6
 561 701 561 701 611 736 c 128,-1,7
 661 771 661 771 661 837 c 0,8,9
 661 890 661 890 629 921 c 128,-1,10
 597 952 597 952 553 961.5 c 128,-1,11
 509 971 509 971 446 971 c 0,12,13
 443 971 443 971 432 970.5 c 128,-1,14
 421 970 421 970 416 970 c 2,15,-1
 390 970 l 1,16,-1
 390 1089 l 1,17,-1
 439 1089 l 2,18,19
 636 1089 636 1089 636 1210 c 0,20,21
 636 1322 636 1322 495 1322 c 0,22,23
 399 1322 399 1322 303 1244 c 1,24,-1
 245 1340 l 1,25,26
 289 1384 289 1384 356 1412.5 c 128,-1,27
 423 1441 423 1441 497 1441 c 0,28,29
 584 1441 584 1441 649 1405.5 c 128,-1,30
 714 1370 714 1370 746 1310 c 0,31,32
 769 1267 769 1267 769 1213 c 0,33,34
 769 1089 769 1089 662 1032 c 1,35,36
 790 975 790 975 790 834 c 0,37,38
 790 745 790 745 738.5 687 c 128,-1,39
 687 629 687 629 606 603 c 0,40,41
 550 586 550 586 491 586 c 0,0,1
EndSplineSet
EndChar

StartChar: acute
Encoding: 180 180 117
Width: 617
GlyphClass: 2
Flags: W
LayerCount: 2
UndoRedoHistory
Layer: 1
Undoes
EndUndoes
Redoes
EndRedoes
EndUndoRedoHistory
Fore
SplineSet
96 1136 m 1,0,-1
 322 1456 l 1,1,-1
 534 1456 l 1,2,-1
 226 1136 l 1,3,-1
 96 1136 l 1,0,-1
EndSplineSet
EndChar

StartChar: paragraph
Encoding: 182 182 118
Width: 1207
GlyphClass: 2
Flags: W
LayerCount: 2
UndoRedoHistory
Layer: 1
Undoes
EndUndoes
Redoes
EndRedoes
EndUndoRedoHistory
Fore
SplineSet
457 0 m 1,0,-1
 457 830 l 1,1,2
 298 830 298 830 212 910.5 c 128,-1,3
 126 991 126 991 126 1134 c 0,4,5
 126 1455 126 1455 631 1455 c 2,6,-1
 1012 1455 l 1,7,-1
 1012 1331 l 1,8,-1
 925 1331 l 1,9,-1
 925 0 l 1,10,-1
 796 0 l 1,11,-1
 796 1331 l 1,12,-1
 595 1331 l 1,13,-1
 595 0 l 1,14,-1
 457 0 l 1,0,-1
EndSplineSet
EndChar

StartChar: periodcentered
Encoding: 183 183 119
Width: 455
GlyphClass: 2
Flags: W
LayerCount: 2
UndoRedoHistory
Layer: 1
Undoes
EndUndoes
Redoes
EndRedoes
EndUndoRedoHistory
Fore
SplineSet
119 816 m 1,0,-1
 119 1026 l 1,1,-1
 336 1026 l 1,2,-1
 336 816 l 1,3,-1
 119 816 l 1,0,-1
EndSplineSet
EndChar

StartChar: cedilla
Encoding: 184 184 120
Width: 539
GlyphClass: 2
Flags: W
AnchorPoint: "Anchor-1" 280 0 mark 0
LayerCount: 2
UndoRedoHistory
Layer: 1
Undoes
EndUndoes
Redoes
EndRedoes
EndUndoRedoHistory
Fore
SplineSet
237 -396 m 0,0,1
 170 -396 170 -396 62 -374 c 1,2,-1
 70 -289 l 1,3,4
 170 -313 170 -313 221 -313 c 0,5,6
 335 -313 335 -313 335 -241 c 0,7,8
 335 -168 335 -168 226 -168 c 0,9,10
 222 -168 222 -168 189 -171 c 2,11,-1
 157 -173 l 1,12,-1
 190 17 l 1,13,-1
 287 17 l 1,14,-1
 269 -90 l 1,15,-1
 278 -90 l 1,16,17
 478 -100 478 -100 478 -239 c 0,18,19
 478 -282 478 -282 458 -314 c 128,-1,20
 438 -346 438 -346 402.5 -363 c 128,-1,21
 367 -380 367 -380 326 -388 c 128,-1,22
 285 -396 285 -396 237 -396 c 0,0,1
EndSplineSet
EndChar

StartChar: uni00B9
Encoding: 185 185 121
Width: 1200
GlyphClass: 2
Flags: W
LayerCount: 2
UndoRedoHistory
Layer: 1
Undoes
EndUndoes
Redoes
EndRedoes
EndUndoRedoHistory
Fore
SplineSet
280 604 m 1,0,-1
 280 723 l 1,1,-1
 402 723 l 1,2,-1
 402 1008 l 2,3,4
 402 1038 402 1038 401.5 1090.5 c 128,-1,5
 401 1143 401 1143 401 1168 c 2,6,-1
 401 1271 l 1,7,8
 329 1233 329 1233 249 1203 c 1,9,-1
 250 1333 l 1,10,11
 325 1356 325 1356 418 1412 c 1,12,-1
 523 1427 l 1,13,-1
 523 720 l 1,14,-1
 645 720 l 1,15,-1
 645 604 l 1,16,-1
 280 604 l 1,0,-1
EndSplineSet
EndChar

StartChar: ordmasculine
Encoding: 186 186 122
Width: 824
GlyphClass: 2
Flags: W
LayerCount: 2
UndoRedoHistory
Layer: 1
Undoes
EndUndoes
Redoes
EndRedoes
EndUndoRedoHistory
Fore
SplineSet
421 879 m 0,0,1
 521 879 521 879 579 947 c 128,-1,2
 637 1015 637 1015 637 1123 c 0,3,4
 637 1234 637 1234 579 1303.5 c 128,-1,5
 521 1373 521 1373 418 1373 c 0,6,7
 318 1373 318 1373 260.5 1304.5 c 128,-1,8
 203 1236 203 1236 203 1127 c 0,9,10
 203 1015 203 1015 260 947 c 128,-1,11
 317 879 317 879 421 879 c 0,0,1
421 771 m 0,12,13
 255 771 255 771 159 866 c 128,-1,14
 63 961 63 961 63 1128 c 128,-1,15
 63 1295 63 1295 161.5 1387.5 c 128,-1,16
 260 1480 260 1480 420 1480 c 0,17,18
 586 1480 586 1480 680.5 1380.5 c 128,-1,19
 775 1281 775 1281 775 1125 c 0,20,21
 775 957 775 957 678 864 c 128,-1,22
 581 771 581 771 421 771 c 0,12,13
EndSplineSet
EndChar

StartChar: guillemotright
Encoding: 187 187 123
Width: 1152
GlyphClass: 2
Flags: W
LayerCount: 2
UndoRedoHistory
Layer: 1
Undoes
EndUndoes
Redoes
EndRedoes
EndUndoRedoHistory
Fore
SplineSet
343 916 m 1,0,-1
 605 544 l 1,1,-1
 338 173 l 1,2,-1
 178 173 l 1,3,-1
 442 544 l 1,4,-1
 185 916 l 1,5,-1
 343 916 l 1,0,-1
726 916 m 1,6,-1
 995 544 l 1,7,-1
 721 173 l 1,8,-1
 570 173 l 1,9,-1
 823 544 l 1,10,-1
 577 916 l 1,11,-1
 726 916 l 1,6,-1
EndSplineSet
EndChar

StartChar: onequarter
Encoding: 188 188 124
Width: 2118
GlyphClass: 2
Flags: W
LayerCount: 2
UndoRedoHistory
Layer: 1
Undoes
EndUndoes
Redoes
EndRedoes
EndUndoRedoHistory
Fore
SplineSet
1737 617 m 1,0,-1
 1737 363 l 1,1,-1
 1926 363 l 1,2,-1
 1926 264 l 1,3,-1
 1738 264 l 1,4,-1
 1738 0 l 1,5,-1
 1606 0 l 1,6,-1
 1606 264 l 1,7,-1
 1167 264 l 1,8,-1
 1167 355 l 1,9,-1
 1528 1026 l 1,10,-1
 1665 1026 l 1,11,-1
 1328 363 l 1,12,-1
 1606 363 l 1,13,-1
 1606 617 l 1,14,-1
 1737 617 l 1,0,-1
369 426 m 1,15,-1
 369 1351 l 1,16,-1
 284 1351 l 1,17,-1
 284 1456 l 1,18,-1
 510 1456 l 1,19,-1
 510 426 l 1,20,-1
 369 426 l 1,15,-1
486 0 m 1,21,-1
 1319 1456 l 1,22,-1
 1468 1456 l 1,23,-1
 637 0 l 1,24,-1
 486 0 l 1,21,-1
EndSplineSet
Ligature2: "'frac' Diagonal Fractions lookup 0 subtable" one slash four
Ligature2: "'frac' Diagonal Fractions lookup 0 subtable" one fraction four
EndChar

StartChar: onehalf
Encoding: 189 189 125
Width: 2185
GlyphClass: 2
Flags: W
LayerCount: 2
UndoRedoHistory
Layer: 1
Undoes
EndUndoes
Redoes
EndRedoes
EndUndoRedoHistory
Fore
SplineSet
1667 1052 m 0,0,1
 1802 1052 1802 1052 1886.5 968 c 128,-1,2
 1971 884 1971 884 1975 747 c 0,3,4
 1975 743 1975 743 1975 739 c 0,5,6
 1976 691 1976 691 1964 649 c 0,7,8
 1952 603 1952 603 1917 549.5 c 128,-1,9
 1882 496 1882 496 1856.5 464 c 128,-1,10
 1831 432 1831 432 1773 364 c 0,11,12
 1762 351 1762 351 1756 344 c 2,13,-1
 1564 119 l 1,14,-1
 1955 119 l 1,15,-1
 1955 0 l 1,16,-1
 1396 0 l 1,17,-1
 1396 126 l 1,18,-1
 1674 451 l 2,19,20
 1760 552 1760 552 1794 616 c 0,21,22
 1824 674 1824 674 1824 737 c 0,23,24
 1824 744 1824 744 1824 752 c 0,25,26
 1816 926 1816 926 1663 926 c 0,27,28
 1624 926 1624 926 1586 916 c 128,-1,29
 1548 906 1548 906 1522 892.5 c 128,-1,30
 1496 879 1496 879 1475.5 865 c 128,-1,31
 1455 851 1455 851 1445 842 c 2,32,-1
 1435 833 l 1,33,-1
 1377 950 l 1,34,35
 1381 954 1381 954 1389 961 c 128,-1,36
 1397 968 1397 968 1424 985.5 c 128,-1,37
 1451 1003 1451 1003 1482 1016.5 c 128,-1,38
 1513 1030 1513 1030 1563.5 1041 c 128,-1,39
 1614 1052 1614 1052 1667 1052 c 0,0,1
369 426 m 1,40,-1
 369 1351 l 1,41,-1
 284 1351 l 1,42,-1
 284 1456 l 1,43,-1
 510 1456 l 1,44,-1
 510 426 l 1,45,-1
 369 426 l 1,40,-1
499 0 m 1,46,-1
 1332 1456 l 1,47,-1
 1481 1456 l 1,48,-1
 650 0 l 1,49,-1
 499 0 l 1,46,-1
EndSplineSet
Ligature2: "'frac' Diagonal Fractions lookup 0 subtable" one slash two
Ligature2: "'frac' Diagonal Fractions lookup 0 subtable" one fraction two
EndChar

StartChar: threequarters
Encoding: 190 190 126
Width: 2319
GlyphClass: 2
Flags: W
LayerCount: 2
UndoRedoHistory
Layer: 1
Undoes
EndUndoes
Redoes
EndRedoes
EndUndoRedoHistory
Fore
SplineSet
500 411 m 0,0,1
 378 411 378 411 263 483 c 1,2,-1
 301 596 l 1,3,4
 403 529 403 529 493 529 c 0,5,6
 579 529 579 529 636 580 c 128,-1,7
 693 631 693 631 693 718 c 0,8,9
 693 914 693 914 475 914 c 0,10,11
 473 914 473 914 471 914 c 1,12,-1
 416 914 l 1,13,-1
 416 1028 l 1,14,-1
 464 1028 l 2,15,16
 568 1028 568 1028 622 1076 c 0,17,18
 672 1120 672 1120 672 1199 c 0,19,20
 672 1206 672 1206 672 1214 c 0,21,22
 669 1280 669 1280 619 1322 c 128,-1,23
 569 1364 569 1364 501 1364 c 0,24,25
 370 1364 370 1364 289 1277 c 1,26,-1
 235 1370 l 1,27,28
 279 1423 279 1423 352.5 1452.5 c 128,-1,29
 426 1482 426 1482 514 1482 c 0,30,31
 585 1482 585 1482 647.5 1455 c 128,-1,32
 710 1428 710 1428 754 1367.5 c 128,-1,33
 798 1307 798 1307 801 1224 c 0,34,35
 801 1218 801 1218 801 1211 c 0,36,37
 801 1126 801 1126 763 1064 c 0,38,39
 722 996 722 996 646 972 c 1,40,41
 730 952 730 952 776 884 c 0,42,43
 823 815 823 815 823 712 c 0,44,45
 823 574 823 574 728 493 c 0,46,47
 632 411 632 411 500 411 c 0,0,1
1938 617 m 1,48,-1
 1938 363 l 1,49,-1
 2127 363 l 1,50,-1
 2127 264 l 1,51,-1
 1939 264 l 1,52,-1
 1939 0 l 1,53,-1
 1807 0 l 1,54,-1
 1807 264 l 1,55,-1
 1368 264 l 1,56,-1
 1368 355 l 1,57,-1
 1729 1026 l 1,58,-1
 1866 1026 l 1,59,-1
 1529 363 l 1,60,-1
 1807 363 l 1,61,-1
 1807 617 l 1,62,-1
 1938 617 l 1,48,-1
696 0 m 1,63,-1
 1529 1456 l 1,64,-1
 1678 1456 l 1,65,-1
 847 0 l 1,66,-1
 696 0 l 1,63,-1
EndSplineSet
Ligature2: "'frac' Diagonal Fractions lookup 0 subtable" three slash four
Ligature2: "'frac' Diagonal Fractions lookup 0 subtable" three fraction four
EndChar

StartChar: AE
Encoding: 198 198 134
Width: 1981
GlyphClass: 2
Flags: W
LayerCount: 2
UndoRedoHistory
Layer: 1
Undoes
EndUndoes
Redoes
EndRedoes
EndUndoRedoHistory
Fore
SplineSet
506 546 m 1,0,-1
 1032 546 l 1,1,-1
 974 1308 l 1,2,-1
 926 1308 l 1,3,-1
 506 546 l 1,0,-1
15 0 m 1,4,-1
 823 1456 l 1,5,-1
 1832 1456 l 1,6,-1
 1832 1308 l 1,7,-1
 1133 1308 l 1,8,-1
 1169 820 l 1,9,-1
 1791 820 l 1,10,-1
 1791 672 l 1,11,-1
 1187 672 l 1,12,-1
 1227 148 l 1,13,-1
 1855 148 l 1,14,-1
 1855 0 l 1,15,-1
 1080 0 l 1,16,-1
 1050 398 l 1,17,-1
 430 398 l 1,18,-1
 211 0 l 1,19,-1
 15 0 l 1,4,-1
EndSplineSet
EndChar

StartChar: Eth
Encoding: 208 208 144
Width: 1518
GlyphClass: 2
Flags: W
LayerCount: 2
UndoRedoHistory
Layer: 1
Undoes
EndUndoes
Redoes
EndRedoes
EndUndoRedoHistory
Fore
SplineSet
372 138 m 1,0,-1
 623 138 l 2,1,2
 905 138 905 138 1062.5 286.5 c 128,-1,3
 1220 435 1220 435 1220 721 c 0,4,5
 1220 856 1220 856 1189 958.5 c 128,-1,6
 1158 1061 1158 1061 1101.5 1129 c 128,-1,7
 1045 1197 1045 1197 958.5 1239.5 c 128,-1,8
 872 1282 872 1282 767.5 1300 c 128,-1,9
 663 1318 663 1318 529 1318 c 2,10,-1
 372 1318 l 1,11,-1
 372 800 l 1,12,-1
 610 800 l 1,13,-1
 610 672 l 1,14,-1
 372 672 l 1,15,-1
 372 138 l 1,0,-1
200 672 m 1,16,-1
 43 672 l 1,17,-1
 43 800 l 1,18,-1
 200 800 l 1,19,-1
 200 1456 l 1,20,-1
 509 1456 l 2,21,22
 672 1456 672 1456 804.5 1433 c 128,-1,23
 937 1410 937 1410 1050 1356.5 c 128,-1,24
 1163 1303 1163 1303 1239.5 1219.5 c 128,-1,25
 1316 1136 1316 1136 1359 1011 c 128,-1,26
 1402 886 1402 886 1402 724 c 0,27,28
 1402 546 1402 546 1343.5 407.5 c 128,-1,29
 1285 269 1285 269 1179 180.5 c 128,-1,30
 1073 92 1073 92 928 46 c 128,-1,31
 783 0 783 0 607 0 c 2,32,-1
 200 0 l 1,33,-1
 200 672 l 1,16,-1
EndSplineSet
EndChar

StartChar: multiply
Encoding: 215 215 151
Width: 1340
GlyphClass: 2
Flags: W
LayerCount: 2
UndoRedoHistory
Layer: 1
Undoes
EndUndoes
Redoes
EndRedoes
EndUndoRedoHistory
Fore
SplineSet
379 154 m 1,0,-1
 276 257 l 1,1,-1
 570 554 l 1,2,-1
 276 851 l 1,3,-1
 379 954 l 1,4,-1
 670 657 l 1,5,-1
 960 954 l 1,6,-1
 1064 850 l 1,7,-1
 769 554 l 1,8,-1
 1064 258 l 1,9,-1
 960 154 l 1,10,-1
 670 450 l 1,11,-1
 379 154 l 1,0,-1
EndSplineSet
EndChar

StartChar: Oslash
Encoding: 216 216 152
Width: 1626
GlyphClass: 2
Flags: W
LayerCount: 2
UndoRedoHistory
Layer: 1
Undoes
EndUndoes
Redoes
EndRedoes
EndUndoRedoHistory
Fore
SplineSet
813 126 m 0,0,1
 915 126 915 126 1006 165 c 128,-1,2
 1097 204 1097 204 1169 277 c 128,-1,3
 1241 350 1241 350 1283.5 467 c 128,-1,4
 1326 584 1326 584 1326 729 c 128,-1,5
 1326 874 1326 874 1283.5 990.5 c 128,-1,6
 1241 1107 1241 1107 1169 1180 c 0,7,8
 1135 1214 1135 1214 1098 1241 c 1,9,-1
 654 152 l 1,10,11
 730 126 730 126 813 126 c 0,0,1
521 -175 m 1,12,-1
 418 -142 l 1,13,-1
 494 47 l 1,14,15
 424 81 424 81 370 128 c 0,16,17
 288 199 288 199 230.5 294 c 128,-1,18
 173 389 173 389 144.5 499.5 c 128,-1,19
 116 610 116 610 116 728 c 0,20,21
 116 878 116 878 162 1012 c 128,-1,22
 208 1146 208 1146 293 1251 c 128,-1,23
 378 1356 378 1356 513 1418 c 128,-1,24
 648 1480 648 1480 813 1480 c 0,25,26
 945 1480 945 1480 1059 1440 c 1,27,-1
 1125 1604 l 1,28,-1
 1232 1571 l 1,29,-1
 1160 1394 l 1,30,31
 1263 1337 1263 1337 1333 1251 c 0,32,33
 1418 1146 1418 1146 1464 1012 c 128,-1,34
 1510 878 1510 878 1510 728 c 0,35,36
 1510 610 1510 610 1481.5 499.5 c 128,-1,37
 1453 389 1453 389 1395 294 c 128,-1,38
 1337 199 1337 199 1255.5 128 c 128,-1,39
 1174 57 1174 57 1060 16.5 c 128,-1,40
 946 -24 946 -24 813 -24 c 0,41,42
 697 -24 697 -24 595 7 c 1,43,-1
 521 -175 l 1,12,-1
1000 1294 m 1,44,45
 912 1330 912 1330 813 1330 c 0,46,47
 711 1330 711 1330 620 1291.5 c 128,-1,48
 529 1253 529 1253 457 1180 c 128,-1,49
 385 1107 385 1107 342.5 990.5 c 128,-1,50
 300 874 300 874 300 729 c 128,-1,51
 300 584 300 584 342.5 467 c 128,-1,52
 385 350 385 350 457 277 c 0,53,54
 503 231 503 231 556 198 c 1,55,-1
 1000 1294 l 1,44,45
EndSplineSet
EndChar

StartChar: Thorn
Encoding: 222 222 158
Width: 1261
GlyphClass: 2
Flags: W
LayerCount: 2
UndoRedoHistory
Layer: 1
Undoes
EndUndoes
Redoes
EndRedoes
EndUndoRedoHistory
Fore
SplineSet
385 592 m 1,0,-1
 689 592 l 2,1,2
 849 592 849 592 926 659 c 128,-1,3
 1003 726 1003 726 1003 874 c 0,4,5
 1003 962 1003 962 980 1020 c 128,-1,6
 957 1078 957 1078 908 1109 c 128,-1,7
 859 1140 859 1140 796.5 1152 c 128,-1,8
 734 1164 734 1164 642 1164 c 2,9,-1
 385 1164 l 1,10,-1
 385 592 l 1,0,-1
213 0 m 1,11,-1
 213 1456 l 1,12,-1
 385 1456 l 1,13,-1
 385 1312 l 1,14,-1
 600 1312 l 2,15,16
 709 1312 709 1312 793 1301 c 128,-1,17
 877 1290 877 1290 953.5 1260.5 c 128,-1,18
 1030 1231 1030 1231 1079.5 1183 c 128,-1,19
 1129 1135 1129 1135 1158 1057.5 c 128,-1,20
 1187 980 1187 980 1187 876 c 0,21,22
 1187 758 1187 758 1149 673 c 128,-1,23
 1111 588 1111 588 1039 538 c 128,-1,24
 967 488 967 488 871.5 465.5 c 128,-1,25
 776 443 776 443 651 443 c 2,26,-1
 385 443 l 1,27,-1
 385 0 l 1,28,-1
 213 0 l 1,11,-1
EndSplineSet
EndChar

StartChar: germandbls
Encoding: 223 223 159
Width: 1263
GlyphClass: 2
Flags: W
LayerCount: 2
UndoRedoHistory
Layer: 1
Undoes
EndUndoes
Redoes
EndRedoes
EndUndoRedoHistory
Fore
SplineSet
1181 341 m 0,0,1
 1181 255 1181 255 1148 184 c 128,-1,2
 1115 113 1115 113 1060.5 69 c 128,-1,3
 1006 25 1006 25 939 1.5 c 128,-1,4
 872 -22 872 -22 800 -22 c 0,5,6
 606 -22 606 -22 479 138 c 1,7,-1
 544 243 l 1,8,9
 661 109 661 109 796 109 c 0,10,11
 890 109 890 109 957 170.5 c 128,-1,12
 1024 232 1024 232 1024 324 c 0,13,14
 1024 385 1024 385 1003.5 435 c 128,-1,15
 983 485 983 485 952.5 517 c 128,-1,16
 922 549 922 549 873 578.5 c 128,-1,17
 824 608 824 608 782 625.5 c 128,-1,18
 740 643 740 643 681 668.5 c 128,-1,19
 622 694 622 694 585 713 c 0,20,21
 550 730 550 730 538 762 c 0,22,23
 533 775 533 775 532 789 c 0,24,25
 532 808 532 808 542 827 c 0,26,27
 559 860 559 860 604 881 c 0,28,29
 708 929 708 929 763.5 1006.5 c 128,-1,30
 819 1084 819 1084 819 1164 c 128,-1,31
 819 1244 819 1244 764 1297.5 c 128,-1,32
 709 1351 709 1351 611 1351 c 0,33,34
 476 1351 476 1351 410 1255.5 c 128,-1,35
 344 1160 344 1160 345 1007 c 2,36,-1
 349 0 l 1,37,-1
 184 0 l 1,38,-1
 182 1040 l 2,39,40
 182 1251 182 1251 296.5 1365.5 c 128,-1,41
 411 1480 411 1480 612 1480 c 0,42,43
 799 1480 799 1480 897.5 1389.5 c 128,-1,44
 996 1299 996 1299 996 1168 c 0,45,46
 996 1057 996 1057 926 958.5 c 128,-1,47
 856 860 856 860 735 819 c 0,48,49
 702 807 702 807 702 796 c 0,50,51
 702 785 702 785 738 775 c 0,52,53
 840 746 840 746 913.5 713 c 128,-1,54
 987 680 987 680 1051 630 c 128,-1,55
 1115 580 1115 580 1148 507.5 c 128,-1,56
 1181 435 1181 435 1181 341 c 0,0,1
EndSplineSet
EndChar

StartChar: ae
Encoding: 230 230 166
Width: 1716
GlyphClass: 2
Flags: W
LayerCount: 2
UndoRedoHistory
Layer: 1
Undoes
EndUndoes
Redoes
EndRedoes
EndUndoRedoHistory
Fore
SplineSet
919 566 m 1,0,1
 1428 566 1428 566 1428 758 c 0,2,3
 1428 830 1428 830 1380.5 873 c 128,-1,4
 1333 916 1333 916 1248 916 c 0,5,6
 1117 916 1117 916 1023 823 c 128,-1,7
 929 730 929 730 919 566 c 1,0,1
1246 -22 m 0,8,9
 1038 -22 1038 -22 915 117 c 0,10,11
 877 159 877 159 851 212 c 1,12,13
 721 -22 721 -22 451 -22 c 0,14,15
 286 -22 286 -22 188.5 61 c 128,-1,16
 91 144 91 144 91 286 c 0,17,18
 91 353 91 353 113 405.5 c 128,-1,19
 135 458 135 458 164.5 491.5 c 128,-1,20
 194 525 194 525 252.5 548.5 c 128,-1,21
 311 572 311 572 356.5 583.5 c 128,-1,22
 402 595 402 595 484.5 601 c 128,-1,23
 567 607 567 607 615 608 c 128,-1,24
 663 609 663 609 756 609 c 0,25,26
 767 609 767 609 773 609 c 1,27,-1
 773 632 l 2,28,29
 773 774 773 774 706 845 c 128,-1,30
 639 916 639 916 531 916 c 0,31,32
 436 916 436 916 355 891.5 c 128,-1,33
 274 867 274 867 198 798 c 1,34,-1
 130 908 l 1,35,36
 232 989 232 989 328 1020.5 c 128,-1,37
 424 1052 424 1052 541 1052 c 0,38,39
 668 1052 668 1052 762 986 c 0,40,41
 839 932 839 932 874 849 c 1,42,43
 886 870 886 870 900 890 c 0,44,45
 954 966 954 966 1043 1009 c 128,-1,46
 1132 1052 1132 1052 1247 1052 c 0,47,48
 1400 1052 1400 1052 1495.5 967 c 128,-1,49
 1591 882 1591 882 1591 755 c 0,50,51
 1591 667 1591 667 1534.5 604 c 128,-1,52
 1478 541 1478 541 1378.5 507.5 c 128,-1,53
 1279 474 1279 474 1167 459.5 c 128,-1,54
 1055 445 1055 445 921 445 c 1,55,56
 939 287 939 287 1028.5 200.5 c 128,-1,57
 1118 114 1118 114 1257 114 c 0,58,59
 1327 114 1327 114 1390 134 c 128,-1,60
 1453 154 1453 154 1488 176 c 128,-1,61
 1523 198 1523 198 1564 232 c 1,62,-1
 1632 122 l 1,63,64
 1539 47 1539 47 1449.5 12.5 c 128,-1,65
 1360 -22 1360 -22 1246 -22 c 0,8,9
474 114 m 0,66,67
 554 114 554 114 613.5 142.5 c 128,-1,68
 673 171 673 171 707.5 223 c 128,-1,69
 742 275 742 275 758.5 342 c 128,-1,70
 775 409 775 409 775 493 c 1,71,-1
 637 490 l 2,72,73
 584 489 584 489 544.5 485.5 c 128,-1,74
 505 482 505 482 458 475 c 128,-1,75
 411 468 411 468 378.5 454 c 128,-1,76
 346 440 346 440 317.5 419.5 c 128,-1,77
 289 399 289 399 274.5 367 c 128,-1,78
 260 335 260 335 260 294 c 0,79,80
 260 202 260 202 317 158 c 128,-1,81
 374 114 374 114 474 114 c 0,66,67
EndSplineSet
EndChar

StartChar: eth
Encoding: 240 240 176
Width: 1173
GlyphClass: 2
Flags: W
LayerCount: 2
UndoRedoHistory
Layer: 1
Undoes
EndUndoes
Redoes
EndRedoes
EndUndoRedoHistory
Fore
SplineSet
467 1156 m 1,0,-1
 626 1258 l 1,1,2
 591 1284 591 1284 555 1306 c 0,3,4
 505 1336 505 1336 465 1354.5 c 128,-1,5
 425 1373 425 1373 392 1383 c 1,6,-1
 467 1490 l 1,7,8
 543 1466 543 1466 615 1428 c 0,9,10
 678 1395 678 1395 749 1338 c 1,11,-1
 933 1456 l 1,12,-1
 994 1361 l 1,13,-1
 837 1259 l 1,14,15
 880 1215 880 1215 916 1166 c 0,16,17
 978 1080 978 1080 1023 951.5 c 128,-1,18
 1068 823 1068 823 1077 672 c 0,19,20
 1079 634 1079 634 1079 597 c 0,21,22
 1079 438 1079 438 1037 312 c 0,23,24
 985 156 985 156 869.5 67 c 128,-1,25
 754 -22 754 -22 589 -22 c 0,26,27
 368 -22 368 -22 233 112 c 128,-1,28
 98 246 98 246 98 446 c 0,29,30
 98 660 98 660 228 787.5 c 128,-1,31
 358 915 358 915 556 915 c 0,32,33
 787 915 787 915 902 723 c 1,34,-1
 902 733 l 2,35,36
 902 817 902 817 881 895 c 128,-1,37
 860 973 860 973 826 1033 c 128,-1,38
 792 1093 792 1093 746 1146 c 0,39,40
 730 1164 730 1164 714 1181 c 1,41,-1
 529 1061 l 1,42,-1
 467 1156 l 1,0,-1
582 118 m 0,43,44
 660 118 660 118 720 151 c 128,-1,45
 780 184 780 184 816 242.5 c 128,-1,46
 852 301 852 301 869.5 375 c 128,-1,47
 887 449 887 449 887 536 c 1,48,49
 853 641 853 641 775 708 c 128,-1,50
 697 775 697 775 582 775 c 0,51,52
 440 775 440 775 357 683 c 128,-1,53
 274 591 274 591 274 441 c 0,54,55
 274 293 274 293 361 205.5 c 128,-1,56
 448 118 448 118 582 118 c 0,43,44
EndSplineSet
EndChar

StartChar: divide
Encoding: 247 247 183
Width: 1445
GlyphClass: 2
Flags: W
LayerCount: 2
UndoRedoHistory
Layer: 1
Undoes
EndUndoes
Redoes
EndRedoes
EndUndoRedoHistory
Fore
SplineSet
622 80 m 1,0,-1
 622 290 l 1,1,-1
 830 290 l 1,2,-1
 830 80 l 1,3,-1
 622 80 l 1,0,-1
208 527 m 1,4,-1
 208 666 l 1,5,-1
 1234 666 l 1,6,-1
 1234 527 l 1,7,-1
 208 527 l 1,4,-1
622 896 m 1,8,-1
 622 1106 l 1,9,-1
 830 1106 l 1,10,-1
 830 896 l 1,11,-1
 622 896 l 1,8,-1
EndSplineSet
EndChar

StartChar: oslash
Encoding: 248 248 184
Width: 1216
GlyphClass: 2
Flags: W
LayerCount: 2
UndoRedoHistory
Layer: 1
Undoes
EndUndoes
Redoes
EndRedoes
EndUndoRedoHistory
Fore
SplineSet
613 114 m 1,0,1
 758 114 758 114 845.5 225 c 128,-1,2
 933 336 933 336 933 515 c 0,3,4
 934 696 934 696 846 806 c 0,5,6
 828 829 828 829 806 847 c 1,7,-1
 512 129 l 1,8,9
 559 114 559 114 613 114 c 1,0,1
353 -261 m 1,10,-1
 257 -229 l 1,11,-1
 365 37 l 1,12,13
 303 71 303 71 252 125 c 0,14,15
 112 272 112 272 112 511 c 0,16,17
 112 751 112 751 252 901.5 c 128,-1,18
 392 1052 392 1052 612 1052 c 0,19,20
 696 1052 696 1052 768 1029 c 1,21,-1
 869 1277 l 1,22,-1
 969 1245 l 1,23,-1
 863 987 l 1,24,25
 918 952 918 952 966 902 c 0,26,27
 1104 752 1104 752 1104 513 c 0,28,29
 1104 274 1104 274 967 126 c 128,-1,30
 830 -22 830 -22 613 -22 c 0,31,32
 530 -22 530 -22 459 -1 c 1,33,-1
 353 -261 l 1,10,-1
716 900 m 1,34,35
 668 916 668 916 612 916 c 1,36,37
 463 916 463 916 372.5 805 c 128,-1,38
 282 694 282 694 282 513 c 0,39,40
 282 334 282 334 373 224 c 0,41,42
 396 197 396 197 422 176 c 1,43,-1
 716 900 l 1,34,35
EndSplineSet
EndChar

StartChar: thorn
Encoding: 254 254 190
Width: 1223
GlyphClass: 2
Flags: W
LayerCount: 2
UndoRedoHistory
Layer: 1
Undoes
EndUndoes
Redoes
EndRedoes
EndUndoRedoHistory
Fore
SplineSet
641 109 m 0,0,1
 720 109 720 109 780 141.5 c 128,-1,2
 840 174 840 174 876 231 c 128,-1,3
 912 288 912 288 929.5 361 c 128,-1,4
 947 434 947 434 947 521 c 128,-1,5
 947 608 947 608 930 678 c 128,-1,6
 913 748 913 748 878 802 c 128,-1,7
 843 856 843 856 784.5 886 c 128,-1,8
 726 916 726 916 647 916 c 0,9,10
 564 916 564 916 502 884 c 128,-1,11
 440 852 440 852 404 793.5 c 128,-1,12
 368 735 368 735 350.5 660.5 c 128,-1,13
 333 586 333 586 333 494 c 0,14,15
 333 317 333 317 414 213 c 128,-1,16
 495 109 495 109 641 109 c 0,0,1
168 -508 m 1,17,-1
 168 1456 l 1,18,-1
 335 1456 l 1,19,-1
 335 882 l 1,20,21
 456 1052 456 1052 664 1052 c 0,22,23
 778 1052 778 1052 867.5 1009.5 c 128,-1,24
 957 967 957 967 1012 894 c 128,-1,25
 1067 821 1067 821 1095 727.5 c 128,-1,26
 1123 634 1123 634 1123 527 c 0,27,28
 1123 277 1123 277 1000.5 127.5 c 128,-1,29
 878 -22 878 -22 664 -22 c 0,30,31
 457 -22 457 -22 333 135 c 1,32,-1
 333 -508 l 1,33,-1
 168 -508 l 1,17,-1
EndSplineSet
EndChar

StartChar: gcommaaccent
Encoding: 291 291 225
Width: 1129
GlyphClass: 2
Flags: W
LayerCount: 2
UndoRedoHistory
Layer: 1
Undoes
EndUndoes
Redoes
EndRedoes
EndUndoRedoHistory
Fore
SplineSet
426 1162 m 1,0,-1
 583 1625 l 1,1,-1
 709 1625 l 1,2,-1
 606 1162 l 1,3,-1
 426 1162 l 1,0,-1
530 116 m 0,4,5
 670 116 670 116 757.5 211.5 c 128,-1,6
 845 307 845 307 845 453 c 2,7,-1
 845 872 l 1,8,9
 778 907 778 907 657 907 c 0,10,11
 483 907 483 907 376.5 780.5 c 128,-1,12
 270 654 270 654 270 448 c 0,13,14
 270 299 270 299 341.5 207.5 c 128,-1,15
 413 116 413 116 530 116 c 0,4,5
524 -494 m 0,16,17
 364 -494 364 -494 199 -433 c 1,18,-1
 218 -280 l 1,19,20
 285 -314 285 -314 366 -335.5 c 128,-1,21
 447 -357 447 -357 511 -357 c 0,22,23
 662 -357 662 -357 753.5 -271 c 128,-1,24
 845 -185 845 -185 845 -44 c 2,25,-1
 845 133 l 1,26,27
 791 62 791 62 699.5 20 c 128,-1,28
 608 -22 608 -22 506 -22 c 0,29,30
 325 -22 325 -22 212.5 105 c 128,-1,31
 100 232 100 232 100 438 c 0,32,33
 100 712 100 712 255 880 c 128,-1,34
 410 1048 410 1048 660 1048 c 0,35,36
 757 1048 757 1048 853 1024.5 c 128,-1,37
 949 1001 949 1001 1009 962 c 1,38,-1
 1009 -23 l 2,39,40
 1009 -234 1009 -234 874.5 -364 c 128,-1,41
 740 -494 740 -494 524 -494 c 0,16,17
EndSplineSet
EndChar

StartChar: hbar
Encoding: 295 295 228
Width: 1233
GlyphClass: 2
Flags: W
LayerCount: 2
UndoRedoHistory
Layer: 1
Undoes
EndUndoes
Redoes
EndRedoes
EndUndoRedoHistory
Fore
SplineSet
1168 -20 m 1,0,-1
 1155 -20 l 2,1,2
 1000 -20 1000 -20 933 54 c 128,-1,3
 866 128 866 128 866 294 c 2,4,-1
 866 566 l 2,5,6
 866 752 866 752 818 834 c 128,-1,7
 770 916 770 916 660 916 c 0,8,9
 603 916 603 916 546 892.5 c 128,-1,10
 489 869 489 869 439.5 824.5 c 128,-1,11
 390 780 390 780 359 707 c 128,-1,12
 328 634 328 634 328 545 c 2,13,-1
 328 0 l 1,14,-1
 164 0 l 1,15,-1
 164 1207 l 1,16,-1
 55 1207 l 1,17,-1
 55 1341 l 1,18,-1
 164 1341 l 1,19,-1
 164 1526 l 1,20,-1
 328 1526 l 1,21,-1
 328 1341 l 1,22,-1
 606 1341 l 1,23,-1
 606 1207 l 1,24,-1
 328 1207 l 1,25,-1
 328 867 l 1,26,27
 377 953 377 953 473.5 1002.5 c 128,-1,28
 570 1052 570 1052 681 1052 c 0,29,30
 1030 1052 1030 1052 1030 569 c 2,31,-1
 1030 320 l 2,32,33
 1030 207 1030 207 1059.5 158.5 c 128,-1,34
 1089 110 1089 110 1165 110 c 2,35,-1
 1189 110 l 1,36,-1
 1168 -20 l 1,0,-1
EndSplineSet
EndChar

StartChar: dotlessi
Encoding: 305 305 238
Width: 633
GlyphClass: 2
Flags: W
AnchorPoint: "Anchor-0" 272 1023 basechar 0
LayerCount: 2
UndoRedoHistory
Layer: 1
Undoes
EndUndoes
Redoes
EndRedoes
EndUndoRedoHistory
Fore
SplineSet
659 26 m 1,0,1
 570 -10 570 -10 488 -16 c 0,2,3
 472 -17 472 -17 456 -17 c 0,4,5
 394 -18 394 -18 340 2 c 0,6,7
 274 26 274 26 233.5 93 c 128,-1,8
 193 160 193 160 193 262 c 2,9,-1
 193 1026 l 1,10,-1
 357 1026 l 1,11,-1
 357 267 l 2,12,13
 357 198 357 198 380.5 160 c 128,-1,14
 404 122 404 122 447 116 c 0,15,16
 467 113 467 113 487 112 c 0,17,18
 510 112 510 112 534 116 c 0,19,20
 578 124 578 124 636 145 c 1,21,-1
 659 26 l 1,0,1
EndSplineSet
EndChar

StartChar: kgreenlandic
Encoding: 312 312 245
Width: 1071
GlyphClass: 2
Flags: W
LayerCount: 2
UndoRedoHistory
Layer: 1
Undoes
EndUndoes
Redoes
EndRedoes
EndUndoRedoHistory
Fore
SplineSet
188 0 m 1,0,-1
 188 1026 l 1,1,-1
 353 1026 l 1,2,-1
 353 557 l 1,3,-1
 800 1026 l 1,4,-1
 1024 1026 l 1,5,-1
 508 512 l 1,6,7
 692 337 692 337 1062 0 c 1,8,-1
 843 0 l 1,9,-1
 353 471 l 1,10,-1
 353 0 l 1,11,-1
 188 0 l 1,0,-1
EndSplineSet
EndChar

StartChar: Lslash
Encoding: 321 321 254
Width: 1076
GlyphClass: 2
Flags: W
LayerCount: 2
UndoRedoHistory
Layer: 1
Undoes
EndUndoes
Redoes
EndRedoes
EndUndoRedoHistory
Fore
SplineSet
200 738 m 1,0,-1
 200 1456 l 1,1,-1
 372 1456 l 1,2,-1
 372 848 l 1,3,-1
 653 1027 l 1,4,-1
 653 890 l 1,5,-1
 372 711 l 1,6,-1
 372 138 l 1,7,-1
 1053 138 l 1,8,-1
 1053 0 l 1,9,-1
 200 0 l 1,10,-1
 200 601 l 1,11,-1
 25 489 l 1,12,-1
 25 626 l 1,13,-1
 200 738 l 1,0,-1
EndSplineSet
EndChar

StartChar: lslash
Encoding: 322 322 255
Width: 513
GlyphClass: 2
Flags: W
LayerCount: 2
UndoRedoHistory
Layer: 1
Undoes
EndUndoes
Redoes
EndRedoes
EndUndoRedoHistory
Fore
SplineSet
178 0 m 1,0,-1
 178 689 l 1,1,-1
 10 589 l 1,2,-1
 10 726 l 1,3,-1
 178 826 l 1,4,-1
 178 1492 l 1,5,-1
 343 1492 l 1,6,-1
 343 925 l 1,7,-1
 514 1027 l 1,8,-1
 514 890 l 1,9,-1
 343 788 l 1,10,-1
 343 0 l 1,11,-1
 178 0 l 1,0,-1
EndSplineSet
EndChar

StartChar: OE
Encoding: 338 338 268
Width: 1998
GlyphClass: 2
Flags: W
LayerCount: 2
UndoRedoHistory
Layer: 1
Undoes
EndUndoes
Redoes
EndRedoes
EndUndoRedoHistory
Fore
SplineSet
1007 1456 m 1,0,-1
 1854 1456 l 1,1,-1
 1854 1318 l 1,2,-1
 1179 1318 l 1,3,-1
 1179 820 l 1,4,-1
 1816 820 l 1,5,-1
 1816 672 l 1,6,-1
 1179 672 l 1,7,-1
 1179 138 l 1,8,-1
 1904 138 l 1,9,-1
 1904 0 l 1,10,-1
 1007 0 l 1,11,12
 918 -24 918 -24 813 -24 c 0,13,14
 680 -24 680 -24 566 16.5 c 128,-1,15
 452 57 452 57 370.5 128 c 128,-1,16
 289 199 289 199 231 294 c 128,-1,17
 173 389 173 389 144.5 499.5 c 128,-1,18
 116 610 116 610 116 728 c 0,19,20
 116 878 116 878 162 1012 c 128,-1,21
 208 1146 208 1146 293 1251 c 128,-1,22
 378 1356 378 1356 513 1418 c 128,-1,23
 648 1480 648 1480 813 1480 c 0,24,25
 918 1480 918 1480 1007 1456 c 1,0,-1
1007 165 m 1,26,-1
 1007 1292 l 1,27,28
 914 1330 914 1330 813 1330 c 0,29,30
 711 1330 711 1330 620 1291.5 c 128,-1,31
 529 1253 529 1253 457 1180 c 128,-1,32
 385 1107 385 1107 342.5 990.5 c 128,-1,33
 300 874 300 874 300 729 c 128,-1,34
 300 584 300 584 342.5 467 c 128,-1,35
 385 350 385 350 457 277 c 128,-1,36
 529 204 529 204 620 165 c 128,-1,37
 711 126 711 126 813 126 c 0,38,39
 916 126 916 126 1007 165 c 1,26,-1
EndSplineSet
EndChar

StartChar: oe
Encoding: 339 339 269
Width: 1903
GlyphClass: 2
Flags: W
LayerCount: 2
UndoRedoHistory
Layer: 1
Undoes
EndUndoes
Redoes
EndRedoes
EndUndoRedoHistory
Fore
SplineSet
613 114 m 0,0,1
 758 114 758 114 845.5 225 c 128,-1,2
 933 336 933 336 933 515 c 0,3,4
 933 696 933 696 845.5 806 c 128,-1,5
 758 916 758 916 612 916 c 0,6,7
 463 916 463 916 372.5 805 c 128,-1,8
 282 694 282 694 282 513 c 0,9,10
 282 335 282 335 373 224.5 c 128,-1,11
 464 114 464 114 613 114 c 0,0,1
1106 566 m 1,12,13
 1615 566 1615 566 1615 758 c 0,14,15
 1615 830 1615 830 1567.5 873 c 128,-1,16
 1520 916 1520 916 1435 916 c 0,17,18
 1304 916 1304 916 1210 823 c 128,-1,19
 1116 730 1116 730 1106 566 c 1,12,13
1433 -22 m 0,20,21
 1303 -22 1303 -22 1194 41 c 128,-1,22
 1085 104 1085 104 1018 222 c 1,23,24
 953 105 953 105 848.5 41.5 c 128,-1,25
 744 -22 744 -22 613 -22 c 0,26,27
 392 -22 392 -22 252 125 c 128,-1,28
 112 272 112 272 112 511 c 0,29,30
 112 751 112 751 252 901.5 c 128,-1,31
 392 1052 392 1052 612 1052 c 0,32,33
 744 1052 744 1052 850 986 c 128,-1,34
 956 920 956 920 1021 801 c 1,35,36
 1085 919 1085 919 1190.5 985.5 c 128,-1,37
 1296 1052 1296 1052 1434 1052 c 0,38,39
 1587 1052 1587 1052 1682.5 967 c 128,-1,40
 1778 882 1778 882 1778 755 c 0,41,42
 1778 667 1778 667 1721.5 604 c 128,-1,43
 1665 541 1665 541 1565.5 507.5 c 128,-1,44
 1466 474 1466 474 1354 459.5 c 128,-1,45
 1242 445 1242 445 1108 445 c 1,46,47
 1126 287 1126 287 1215.5 200.5 c 128,-1,48
 1305 114 1305 114 1444 114 c 0,49,50
 1514 114 1514 114 1577 134 c 128,-1,51
 1640 154 1640 154 1675 176 c 128,-1,52
 1710 198 1710 198 1751 232 c 1,53,-1
 1819 122 l 1,54,55
 1726 47 1726 47 1636.5 12.5 c 128,-1,56
 1547 -22 1547 -22 1433 -22 c 0,20,21
EndSplineSet
EndChar

StartChar: florin
Encoding: 402 402 311
Width: 1088
GlyphClass: 2
Flags: W
LayerCount: 2
UndoRedoHistory
Layer: 1
Undoes
EndUndoes
Redoes
EndRedoes
EndUndoRedoHistory
Fore
SplineSet
176 -242 m 0,0,1
 127 -242 127 -242 72 -226 c 1,2,-1
 84 -88 l 1,3,4
 123 -104 123 -104 162 -104 c 0,5,6
 295 -104 295 -104 332 97 c 2,7,-1
 480 906 l 1,8,-1
 321 906 l 1,9,-1
 339 1026 l 1,10,-1
 501 1026 l 1,11,-1
 534 1201 l 2,12,13
 549 1281 549 1281 568 1334 c 128,-1,14
 587 1387 587 1387 621 1434 c 128,-1,15
 655 1481 655 1481 710.5 1503.5 c 128,-1,16
 766 1526 766 1526 845 1526 c 0,17,18
 912 1526 912 1526 988 1507 c 1,19,-1
 980 1362 l 1,20,21
 924 1384 924 1384 871 1384 c 0,22,23
 789 1384 789 1384 751.5 1345.5 c 128,-1,24
 714 1307 714 1307 700 1229 c 2,25,-1
 665 1026 l 1,26,-1
 862 1026 l 1,27,-1
 844 906 l 1,28,-1
 645 906 l 1,29,-1
 522 210 l 2,30,31
 507 128 507 128 494 73.5 c 128,-1,32
 481 19 481 19 454 -46 c 128,-1,33
 427 -111 427 -111 393 -150 c 128,-1,34
 359 -189 359 -189 303.5 -215.5 c 128,-1,35
 248 -242 248 -242 176 -242 c 0,0,1
EndSplineSet
EndChar

StartChar: dotlessj
Encoding: 567 567 340
Width: 558
GlyphClass: 2
Flags: W
AnchorPoint: "Anchor-0" 259 1152 basechar 0
LayerCount: 2
UndoRedoHistory
Layer: 1
Undoes
EndUndoes
Redoes
EndRedoes
EndUndoRedoHistory
Fore
SplineSet
101 -464 m 0,0,1
 27 -464 27 -464 -50 -443 c 1,2,-1
 -35 -311 l 1,3,-1
 -20 -316 l 1,4,5
 -4 -320 -4 -320 24 -324.5 c 128,-1,6
 52 -329 52 -329 78 -329 c 0,7,8
 160 -329 160 -329 188 -276 c 128,-1,9
 216 -223 216 -223 216 -76 c 2,10,-1
 216 1026 l 1,11,-1
 381 1026 l 1,12,-1
 381 -84 l 2,13,14
 381 -290 381 -290 316.5 -377 c 128,-1,15
 252 -464 252 -464 101 -464 c 0,0,1
EndSplineSet
EndChar

StartChar: circumflex
Encoding: 710 710 341
Width: 709
GlyphClass: 2
Flags: W
LayerCount: 2
UndoRedoHistory
Layer: 1
Undoes
EndUndoes
Redoes
EndRedoes
EndUndoRedoHistory
Fore
SplineSet
273 1456 m 1,0,-1
 430 1456 l 1,1,-1
 659 1132 l 1,2,-1
 527 1132 l 1,3,-1
 349 1348 l 1,4,-1
 171 1132 l 1,5,-1
 45 1132 l 1,6,-1
 273 1456 l 1,0,-1
EndSplineSet
EndChar

StartChar: caron
Encoding: 711 711 342
Width: 709
GlyphClass: 2
Flags: W
LayerCount: 2
UndoRedoHistory
Layer: 1
Undoes
EndUndoes
Redoes
EndRedoes
EndUndoRedoHistory
Fore
SplineSet
278 1133 m 1,0,-1
 39 1456 l 1,1,-1
 186 1456 l 1,2,-1
 350 1241 l 1,3,-1
 518 1456 l 1,4,-1
 672 1456 l 1,5,-1
 434 1133 l 1,6,-1
 278 1133 l 1,0,-1
EndSplineSet
EndChar

StartChar: breve
Encoding: 728 728 343
Width: 639
GlyphClass: 2
Flags: W
AnchorPoint: "Anchor-0" 327 1046 mark 0
LayerCount: 2
UndoRedoHistory
Layer: 1
Undoes
EndUndoes
Redoes
EndRedoes
EndUndoRedoHistory
Fore
SplineSet
323 1221 m 0,0,1
 231 1221 231 1221 161 1282.5 c 128,-1,2
 91 1344 91 1344 82 1456 c 1,3,-1
 169 1456 l 1,4,5
 180 1394 180 1394 222 1360.5 c 128,-1,6
 264 1327 264 1327 318 1327 c 0,7,8
 374 1327 374 1327 420 1361 c 128,-1,9
 466 1395 466 1395 480 1456 c 1,10,-1
 566 1456 l 1,11,12
 557 1344 557 1344 486.5 1282.5 c 128,-1,13
 416 1221 416 1221 323 1221 c 0,0,1
EndSplineSet
EndChar

StartChar: dotaccent
Encoding: 729 729 344
Width: 534
GlyphClass: 2
Flags: W
AnchorPoint: "Anchor-0" 315 1030 mark 0
LayerCount: 2
UndoRedoHistory
Layer: 1
Undoes
EndUndoes
Redoes
EndRedoes
EndUndoRedoHistory
Fore
SplineSet
194 1293 m 1,0,-1
 194 1456 l 1,1,-1
 354 1456 l 1,2,-1
 354 1293 l 1,3,-1
 194 1293 l 1,0,-1
EndSplineSet
EndChar

StartChar: ring
Encoding: 730 730 345
Width: 616
GlyphClass: 2
Flags: W
AnchorPoint: "Anchor-0" 316 1152 mark 0
LayerCount: 2
UndoRedoHistory
Layer: 1
Undoes
EndUndoes
Redoes
EndRedoes
EndUndoRedoHistory
Fore
SplineSet
308 1195 m 0,0,1
 350 1195 350 1195 379.5 1226 c 128,-1,2
 409 1257 409 1257 409 1301 c 0,3,4
 409 1344 409 1344 379.5 1375 c 128,-1,5
 350 1406 350 1406 308 1406 c 0,6,7
 265 1406 265 1406 236 1375 c 128,-1,8
 207 1344 207 1344 207 1301 c 0,9,10
 207 1257 207 1257 236 1226 c 128,-1,11
 265 1195 265 1195 308 1195 c 0,0,1
308 1480 m 0,12,13
 388 1480 388 1480 443 1428.5 c 128,-1,14
 498 1377 498 1377 498 1300 c 0,15,16
 498 1222 498 1222 443 1171 c 128,-1,17
 388 1120 388 1120 308 1120 c 0,18,19
 229 1120 229 1120 173.5 1171 c 128,-1,20
 118 1222 118 1222 118 1300 c 0,21,22
 118 1377 118 1377 173.5 1428.5 c 128,-1,23
 229 1480 229 1480 308 1480 c 0,12,13
EndSplineSet
EndChar

StartChar: ogonek
Encoding: 731 731 346
Width: 518
GlyphClass: 2
Flags: W
AnchorPoint: "Anchor-2" 308 0 mark 0
LayerCount: 2
UndoRedoHistory
Layer: 1
Undoes
EndUndoes
Redoes
EndRedoes
EndUndoRedoHistory
Fore
SplineSet
276 -390 m 0,0,1
 179 -390 179 -390 118.5 -347.5 c 128,-1,2
 58 -305 58 -305 58 -225 c 0,3,4
 58 -188 58 -188 72 -155.5 c 128,-1,5
 86 -123 86 -123 104.5 -100.5 c 128,-1,6
 123 -78 123 -78 155.5 -55 c 128,-1,7
 188 -32 188 -32 212 -19 c 128,-1,8
 236 -6 236 -6 273 12 c 1,9,-1
 402 0 l 1,10,11
 396 -3 396 -3 385 -10 c 0,12,13
 347 -33 347 -33 319.5 -51.5 c 128,-1,14
 292 -70 292 -70 262 -94.5 c 128,-1,15
 232 -119 232 -119 215.5 -145.5 c 128,-1,16
 199 -172 199 -172 199 -199 c 0,17,18
 199 -236 199 -236 229 -258.5 c 128,-1,19
 259 -281 259 -281 299 -281 c 0,20,21
 374 -281 374 -281 453 -250 c 1,22,-1
 453 -361 l 1,23,24
 383 -390 383 -390 276 -390 c 0,0,1
EndSplineSet
EndChar

StartChar: tilde
Encoding: 732 732 347
Width: 673
GlyphClass: 2
Flags: W
AnchorPoint: "Anchor-0" 339 1152 mark 0
LayerCount: 2
UndoRedoHistory
Layer: 1
Undoes
EndUndoes
Redoes
EndRedoes
EndUndoRedoHistory
Fore
SplineSet
24 1203 m 1,0,1
 32 1296 32 1296 83.5 1357.5 c 128,-1,2
 135 1419 135 1419 223 1419 c 0,3,4
 266 1419 266 1419 313 1399 c 128,-1,5
 360 1379 360 1379 401.5 1359 c 128,-1,6
 443 1339 443 1339 473 1339 c 0,7,8
 510 1339 510 1339 532 1366 c 128,-1,9
 554 1393 554 1393 560 1435 c 1,10,11
 668 1435 l 1,12,13
 657 1341 657 1341 608.5 1277.5 c 128,-1,14
 560 1214 560 1214 473 1214 c 0,15,16
 425 1214 425 1214 346 1254 c 128,-1,17
 267 1294 267 1294 220 1294 c 0,18,19
 140 1294 140 1294 129 1203 c 1,20,-1
 24 1203 l 1,0,1
EndSplineSet
EndChar

StartChar: hungarumlaut
Encoding: 733 733 348
Width: 972
GlyphClass: 2
Flags: W
AnchorPoint: "Anchor-0" 316 1152 mark 0
LayerCount: 2
UndoRedoHistory
Layer: 1
Undoes
EndUndoes
Redoes
EndRedoes
EndUndoRedoHistory
Fore
SplineSet
438 1143 m 1,0,-1
 652 1456 l 1,1,-1
 828 1456 l 1,2,-1
 553 1143 l 1,3,-1
 438 1143 l 1,0,-1
172 1143 m 1,4,-1
 389 1456 l 1,5,-1
 559 1456 l 1,6,-1
 290 1143 l 1,7,-1
 172 1143 l 1,4,-1
EndSplineSet
EndChar

StartChar: dotaccentcmb
Encoding: 775 775 351
Width: 534
GlyphClass: 2
Flags: W
AnchorPoint: "Anchor-0" 315 1030 mark 0
LayerCount: 2
UndoRedoHistory
Layer: 1
Undoes
EndUndoes
Redoes
EndRedoes
EndUndoRedoHistory
Fore
SplineSet
194 1246 m 1,0,-1
 194 1409 l 1,1,-1
 354 1409 l 1,2,-1
 354 1246 l 1,3,-1
 194 1246 l 1,0,-1
EndSplineSet
EndChar

StartChar: dblgravecmb
Encoding: 783 783 352
Width: 4
GlyphClass: 2
Flags: W
AnchorPoint: "Anchor-0" 186 1048 mark 0
LayerCount: 2
UndoRedoHistory
Layer: 1
Undoes
EndUndoes
Redoes
EndRedoes
EndUndoRedoHistory
Fore
SplineSet
241 1143 m 1,0,-1
 -28 1456 l 1,1,-1
 142 1456 l 1,2,-1
 359 1143 l 1,3,-1
 241 1143 l 1,0,-1
-22 1143 m 1,4,-1
 -297 1456 l 1,5,-1
 -121 1456 l 1,6,-1
 93 1143 l 1,7,-1
 -22 1143 l 1,4,-1
EndSplineSet
EndChar

StartChar: uni0311
Encoding: 785 785 353
Width: 639
GlyphClass: 2
Flags: W
AnchorPoint: "Anchor-0" 318 1152 mark 0
LayerCount: 2
UndoRedoHistory
Layer: 1
Undoes
EndUndoes
Redoes
EndRedoes
EndUndoRedoHistory
Fore
SplineSet
42 1218 m 1,0,1
 61 1454 61 1454 326 1454 c 0,2,3
 451 1454 451 1454 523.5 1393.5 c 128,-1,4
 596 1333 596 1333 606 1218 c 1,5,-1
 520 1218 l 1,6,7
 505 1280 505 1280 451 1313.5 c 128,-1,8
 397 1347 397 1347 319 1347 c 0,9,10
 240 1347 240 1347 190 1314.5 c 128,-1,11
 140 1282 140 1282 129 1218 c 1,12,-1
 42 1218 l 1,0,1
EndSplineSet
EndChar

StartChar: uni0326
Encoding: 806 806 354
Width: 10
GlyphClass: 2
Flags: W
LayerCount: 2
UndoRedoHistory
Layer: 1
Undoes
EndUndoes
Redoes
EndRedoes
EndUndoRedoHistory
Fore
SplineSet
-183 -463 m 1,0,-1
 -76 0 l 1,1,-1
 111 0 l 1,2,-1
 -52 -463 l 1,3,-1
 -183 -463 l 1,0,-1
EndSplineSet
EndChar

StartChar: Delta
Encoding: 916 916 355
Width: 1294
GlyphClass: 2
Flags: W
LayerCount: 2
UndoRedoHistory
Layer: 1
Undoes
EndUndoes
Redoes
EndRedoes
EndUndoRedoHistory
Fore
SplineSet
245 135 m 1,0,-1
 1050 135 l 1,1,-1
 675 1187 l 1,2,-1
 643 1294 l 1,3,-1
 612 1187 l 1,4,-1
 245 135 l 1,0,-1
50 0 m 1,5,-1
 50 80 l 1,6,-1
 560 1456 l 1,7,-1
 735 1456 l 1,8,-1
 1244 80 l 1,9,-1
 1244 0 l 1,10,-1
 50 0 l 1,5,-1
EndSplineSet
EndChar

StartChar: uni03A9
Encoding: 937 937 356
Width: 1572
GlyphClass: 2
Flags: W
LayerCount: 2
UndoRedoHistory
Layer: 1
Undoes
EndUndoes
Redoes
EndRedoes
EndUndoRedoHistory
Fore
SplineSet
114 0 m 1,0,-1
 103 138 l 1,1,-1
 439 137 l 1,2,3
 300 244 300 244 212 423 c 128,-1,4
 124 602 124 602 124 807 c 0,5,6
 124 1126 124 1126 304 1303 c 128,-1,7
 484 1480 484 1480 798 1480 c 0,8,9
 1107 1480 1107 1480 1279 1299.5 c 128,-1,10
 1451 1119 1451 1119 1451 803 c 0,11,12
 1451 590 1451 590 1361 421 c 128,-1,13
 1271 252 1271 252 1131 137 c 1,14,-1
 1453 138 l 1,15,-1
 1444 0 l 1,16,-1
 937 0 l 1,17,-1
 933 121 l 1,18,19
 1081 224 1081 224 1177 404 c 128,-1,20
 1273 584 1273 584 1273 785 c 0,21,22
 1273 1041 1273 1041 1146 1185.5 c 128,-1,23
 1019 1330 1019 1330 794 1330 c 0,24,25
 675 1330 675 1330 580.5 1288.5 c 128,-1,26
 486 1247 486 1247 426 1173.5 c 128,-1,27
 366 1100 366 1100 334.5 1002.5 c 128,-1,28
 303 905 303 905 303 790 c 0,29,30
 303 567 303 567 396.5 394.5 c 128,-1,31
 490 222 490 222 638 121 c 1,32,-1
 641 0 l 1,33,-1
 114 0 l 1,0,-1
EndSplineSet
EndChar

StartChar: uni03BC
Encoding: 956 956 357
Width: 1239
GlyphClass: 2
Flags: W
LayerCount: 2
UndoRedoHistory
Layer: 1
Undoes
EndUndoes
Redoes
EndRedoes
EndUndoRedoHistory
Fore
SplineSet
541 -22 m 0,0,1
 425 -22 425 -22 342 26 c 1,2,-1
 342 -202 l 1,3,-1
 187 -202 l 1,4,-1
 185 582 l 1,5,6
 186 613 186 613 186 643 c 0,7,8
 186 698 186 698 182 748 c 0,9,10
 176 824 176 824 168 867 c 128,-1,11
 160 910 160 910 149 944.5 c 128,-1,12
 138 979 138 979 133.5 987.5 c 128,-1,13
 129 996 129 996 126 1000 c 1,14,-1
 291 1026 l 1,15,-1
 298 1015 l 2,16,17
 305 1004 305 1004 314.5 973 c 128,-1,18
 324 942 324 942 333 897 c 128,-1,19
 342 852 342 852 348 772 c 0,20,21
 352 720 352 720 351 661 c 0,22,23
 351 629 351 629 350 595 c 2,24,-1
 344 365 l 2,25,26
 344 358 344 358 344 352 c 0,27,28
 344 114 344 114 561 114 c 0,29,30
 688 114 688 114 775 216 c 128,-1,31
 862 318 862 318 862 482 c 2,32,-1
 862 1026 l 1,33,-1
 1026 1026 l 1,34,-1
 1026 328 l 2,35,36
 1026 211 1026 211 1053.5 166 c 128,-1,37
 1081 121 1081 121 1171 121 c 1,38,-1
 1142 -14 l 1,39,40
 1034 -14 1034 -14 968.5 27 c 128,-1,41
 903 68 903 68 881 161 c 1,42,43
 770 -22 770 -22 541 -22 c 0,0,1
EndSplineSet
EndChar

StartChar: pi
Encoding: 960 960 358
Width: 1278
GlyphClass: 2
Flags: W
LayerCount: 2
UndoRedoHistory
Layer: 1
Undoes
EndUndoes
Redoes
EndRedoes
EndUndoRedoHistory
Fore
SplineSet
1052 -22 m 0,0,1
 989 -22 989 -22 946.5 -2.5 c 128,-1,2
 904 17 904 17 881.5 56.5 c 128,-1,3
 859 96 859 96 850.5 145.5 c 128,-1,4
 842 195 842 195 842 265 c 2,5,-1
 842 893 l 1,6,-1
 527 893 l 1,7,8
 527 682 527 682 472.5 400 c 128,-1,9
 418 118 418 118 351 0 c 1,10,-1
 170 0 l 1,11,12
 257 153 257 153 316 426.5 c 128,-1,13
 375 700 375 700 375 893 c 1,14,15
 302 893 302 893 229 863.5 c 128,-1,16
 156 834 156 834 107 782 c 1,17,-1
 77 933 l 1,18,19
 199 1026 199 1026 420 1026 c 2,20,-1
 1205 1026 l 1,21,-1
 1205 893 l 1,22,-1
 1001 893 l 1,23,-1
 1001 242 l 2,24,25
 1001 172 1001 172 1021 136.5 c 128,-1,26
 1041 101 1041 101 1099 101 c 0,27,28
 1137 101 1137 101 1179 114 c 1,29,-1
 1189 -8 l 1,30,31
 1110 -22 1110 -22 1052 -22 c 0,0,1
EndSplineSet
EndChar

StartChar: endash
Encoding: 8211 8211 381
Width: 1071
GlyphClass: 2
Flags: W
LayerCount: 2
UndoRedoHistory
Layer: 1
Undoes
EndUndoes
Redoes
EndRedoes
EndUndoRedoHistory
Fore
SplineSet
4 489 m 1,0,-1
 4 626 l 1,1,-1
 1070 626 l 1,2,-1
 1070 489 l 1,3,-1
 4 489 l 1,0,-1
EndSplineSet
EndChar

StartChar: emdash
Encoding: 8212 8212 382
Width: 2114
GlyphClass: 2
Flags: W
LayerCount: 2
UndoRedoHistory
Layer: 1
Undoes
EndUndoes
Redoes
EndRedoes
EndUndoRedoHistory
Fore
SplineSet
7 489 m 1,0,-1
 7 626 l 1,1,-1
 2103 626 l 1,2,-1
 2103 489 l 1,3,-1
 7 489 l 1,0,-1
EndSplineSet
EndChar

StartChar: quoteleft
Encoding: 8216 8216 383
Width: 563
GlyphClass: 2
Flags: W
LayerCount: 2
UndoRedoHistory
Layer: 1
Undoes
EndUndoes
Redoes
EndRedoes
EndUndoRedoHistory
Fore
SplineSet
426 1456 m 1,0,-1
 322 1016 l 1,1,-1
 140 1016 l 1,2,-1
 294 1456 l 1,3,-1
 426 1456 l 1,0,-1
EndSplineSet
EndChar

StartChar: quoteright
Encoding: 8217 8217 384
Width: 563
GlyphClass: 2
Flags: W
LayerCount: 2
UndoRedoHistory
Layer: 1
Undoes
EndUndoes
Redoes
EndRedoes
EndUndoRedoHistory
Fore
SplineSet
150 1016 m 1,0,-1
 255 1456 l 1,1,-1
 436 1456 l 1,2,-1
 282 1016 l 1,3,-1
 150 1016 l 1,0,-1
EndSplineSet
EndChar

StartChar: quotesinglbase
Encoding: 8218 8218 385
Width: 563
GlyphClass: 2
Flags: W
LayerCount: 2
UndoRedoHistory
Layer: 1
Undoes
EndUndoes
Redoes
EndRedoes
EndUndoRedoHistory
Fore
SplineSet
135 -238 m 1,0,-1
 241 201 l 1,1,-1
 422 201 l 1,2,-1
 268 -238 l 1,3,-1
 135 -238 l 1,0,-1
EndSplineSet
EndChar

StartChar: quotedblleft
Encoding: 8220 8220 386
Width: 1034
GlyphClass: 2
Flags: W
LayerCount: 2
UndoRedoHistory
Layer: 1
Undoes
EndUndoes
Redoes
EndRedoes
EndUndoRedoHistory
Fore
SplineSet
538 1016 m 1,0,-1
 692 1456 l 1,1,-1
 825 1456 l 1,2,-1
 721 1016 l 1,3,-1
 538 1016 l 1,0,-1
189 1016 m 1,4,-1
 343 1456 l 1,5,-1
 476 1456 l 1,6,-1
 371 1016 l 1,7,-1
 189 1016 l 1,4,-1
EndSplineSet
EndChar

StartChar: quotedblright
Encoding: 8221 8221 387
Width: 1034
GlyphClass: 2
Flags: W
LayerCount: 2
UndoRedoHistory
Layer: 1
Undoes
EndUndoes
Redoes
EndRedoes
EndUndoRedoHistory
Fore
SplineSet
544 1016 m 1,0,-1
 649 1456 l 1,1,-1
 831 1456 l 1,2,-1
 677 1016 l 1,3,-1
 544 1016 l 1,0,-1
218 1016 m 1,4,-1
 322 1456 l 1,5,-1
 504 1456 l 1,6,-1
 351 1016 l 1,7,-1
 218 1016 l 1,4,-1
EndSplineSet
EndChar

StartChar: quotedblbase
Encoding: 8222 8222 388
Width: 1034
GlyphClass: 2
Flags: W
LayerCount: 2
UndoRedoHistory
Layer: 1
Undoes
EndUndoes
Redoes
EndRedoes
EndUndoRedoHistory
Fore
SplineSet
547 -238 m 1,0,-1
 651 201 l 1,1,-1
 834 201 l 1,2,-1
 680 -238 l 1,3,-1
 547 -238 l 1,0,-1
188 -238 m 1,4,-1
 293 201 l 1,5,-1
 475 201 l 1,6,-1
 322 -238 l 1,7,-1
 188 -238 l 1,4,-1
EndSplineSet
EndChar

StartChar: dagger
Encoding: 8224 8224 389
Width: 1024
GlyphClass: 2
Flags: W
LayerCount: 2
UndoRedoHistory
Layer: 1
Undoes
EndUndoes
Redoes
EndRedoes
EndUndoRedoHistory
Fore
SplineSet
440 0 m 1,0,-1
 440 904 l 1,1,-1
 117 904 l 1,2,-1
 117 1026 l 1,3,-1
 440 1026 l 1,4,-1
 440 1456 l 1,5,-1
 581 1456 l 1,6,-1
 581 1026 l 1,7,-1
 921 1026 l 1,8,-1
 921 904 l 1,9,-1
 581 904 l 1,10,-1
 581 0 l 1,11,-1
 440 0 l 1,0,-1
EndSplineSet
EndChar

StartChar: daggerdbl
Encoding: 8225 8225 390
Width: 1023
GlyphClass: 2
Flags: W
LayerCount: 2
UndoRedoHistory
Layer: 1
Undoes
EndUndoes
Redoes
EndRedoes
EndUndoRedoHistory
Fore
SplineSet
444 0 m 1,0,-1
 444 440 l 1,1,-1
 108 440 l 1,2,-1
 108 557 l 1,3,-1
 444 557 l 1,4,-1
 444 988 l 1,5,-1
 114 988 l 1,6,-1
 114 1110 l 1,7,-1
 444 1110 l 1,8,-1
 444 1456 l 1,9,-1
 588 1456 l 1,10,-1
 588 1110 l 1,11,-1
 918 1110 l 1,12,-1
 918 988 l 1,13,-1
 588 988 l 1,14,-1
 588 557 l 1,15,-1
 911 557 l 1,16,-1
 911 440 l 1,17,-1
 588 440 l 1,18,-1
 588 0 l 1,19,-1
 444 0 l 1,0,-1
EndSplineSet
EndChar

StartChar: bullet
Encoding: 8226 8226 391
Width: 991
GlyphClass: 2
Flags: W
LayerCount: 2
UndoRedoHistory
Layer: 1
Undoes
EndUndoes
Redoes
EndRedoes
EndUndoRedoHistory
Fore
SplineSet
499 427 m 0,0,1
 354 427 354 427 265.5 518 c 128,-1,2
 177 609 177 609 177 736 c 0,3,4
 177 833 177 833 226.5 907 c 128,-1,5
 276 981 276 981 349.5 1016.5 c 128,-1,6
 423 1052 423 1052 504 1052 c 0,7,8
 649 1052 649 1052 737.5 960 c 128,-1,9
 826 868 826 868 826 743 c 0,10,11
 826 597 826 597 735.5 512 c 128,-1,12
 645 427 645 427 499 427 c 0,0,1
EndSplineSet
EndChar

StartChar: ellipsis
Encoding: 8230 8230 392
Width: 1604
GlyphClass: 2
Flags: W
LayerCount: 2
UndoRedoHistory
Layer: 1
Undoes
EndUndoes
Redoes
EndRedoes
EndUndoRedoHistory
Fore
SplineSet
1223 0 m 1,0,-1
 1223 210 l 1,1,-1
 1440 210 l 1,2,-1
 1440 0 l 1,3,-1
 1223 0 l 1,0,-1
696 0 m 1,4,-1
 696 210 l 1,5,-1
 913 210 l 1,6,-1
 913 0 l 1,7,-1
 696 0 l 1,4,-1
169 0 m 1,8,-1
 169 210 l 1,9,-1
 386 210 l 1,10,-1
 386 0 l 1,11,-1
 169 0 l 1,8,-1
EndSplineSet
EndChar

StartChar: perthousand
Encoding: 8240 8240 393
Width: 2567
GlyphClass: 2
Flags: W
LayerCount: 2
UndoRedoHistory
Layer: 1
Undoes
EndUndoes
Redoes
EndRedoes
EndUndoRedoHistory
Fore
SplineSet
412 718 m 0,0,1
 248 718 248 718 158 826 c 128,-1,2
 68 934 68 934 68 1096 c 0,3,4
 68 1273 68 1273 164.5 1376.5 c 128,-1,5
 261 1480 261 1480 417 1480 c 0,6,7
 579 1480 579 1480 669.5 1376.5 c 128,-1,8
 760 1273 760 1273 760 1101 c 0,9,10
 760 925 760 925 663.5 821.5 c 128,-1,11
 567 718 567 718 412 718 c 0,0,1
1336 89 m 128,-1,13
 1436 89 1436 89 1486.5 165.5 c 128,-1,14
 1537 242 1537 242 1537 360 c 128,-1,15
 1537 478 1537 478 1487 551.5 c 128,-1,16
 1437 625 1437 625 1337 625 c 0,17,18
 1236 625 1236 625 1184.5 548 c 128,-1,19
 1133 471 1133 471 1133 353 c 0,20,21
 1133 232 1133 232 1184.5 160.5 c 128,-1,12
 1236 89 1236 89 1336 89 c 128,-1,13
415 831 m 128,-1,23
 515 831 515 831 565.5 907.5 c 128,-1,24
 616 984 616 984 616 1102 c 128,-1,25
 616 1220 616 1220 566 1293.5 c 128,-1,26
 516 1367 516 1367 416 1367 c 0,27,28
 315 1367 315 1367 263.5 1290 c 128,-1,29
 212 1213 212 1213 212 1095 c 0,30,31
 212 974 212 974 263.5 902.5 c 128,-1,22
 315 831 315 831 415 831 c 128,-1,23
1333 -24 m 0,32,33
 1169 -24 1169 -24 1079 84 c 128,-1,34
 989 192 989 192 989 354 c 0,35,36
 989 531 989 531 1085.5 634.5 c 128,-1,37
 1182 738 1182 738 1338 738 c 0,38,39
 1500 738 1500 738 1590.5 634.5 c 128,-1,40
 1681 531 1681 531 1681 359 c 0,41,42
 1681 183 1681 183 1584.5 79.5 c 128,-1,43
 1488 -24 1488 -24 1333 -24 c 0,32,33
346 0 m 1,44,-1
 1246 1456 l 1,45,-1
 1395 1456 l 1,46,-1
 500 0 l 1,47,-1
 346 0 l 1,44,-1
2151 -24 m 0,48,49
 1987 -24 1987 -24 1897 84 c 128,-1,50
 1807 192 1807 192 1807 354 c 0,51,52
 1807 531 1807 531 1903.5 634.5 c 128,-1,53
 2000 738 2000 738 2156 738 c 0,54,55
 2318 738 2318 738 2408.5 634.5 c 128,-1,56
 2499 531 2499 531 2499 359 c 0,57,58
 2499 183 2499 183 2402.5 79.5 c 128,-1,59
 2306 -24 2306 -24 2151 -24 c 0,48,49
2154 89 m 128,-1,61
 2254 89 2254 89 2304.5 165.5 c 128,-1,62
 2355 242 2355 242 2355 360 c 128,-1,63
 2355 478 2355 478 2305 551.5 c 128,-1,64
 2255 625 2255 625 2155 625 c 0,65,66
 2054 625 2054 625 2002.5 548 c 128,-1,67
 1951 471 1951 471 1951 353 c 0,68,69
 1951 232 1951 232 2002.5 160.5 c 128,-1,60
 2054 89 2054 89 2154 89 c 128,-1,61
EndSplineSet
EndChar

StartChar: guilsinglleft
Encoding: 8249 8249 394
Width: 652
GlyphClass: 2
Flags: W
LayerCount: 2
UndoRedoHistory
Layer: 1
Undoes
EndUndoes
Redoes
EndRedoes
EndUndoRedoHistory
Fore
SplineSet
384 171 m 1,0,-1
 115 541 l 1,1,-1
 389 914 l 1,2,-1
 548 914 l 1,3,-1
 285 541 l 1,4,-1
 540 171 l 1,5,-1
 384 171 l 1,0,-1
EndSplineSet
EndChar

StartChar: guilsinglright
Encoding: 8250 8250 395
Width: 652
GlyphClass: 2
Flags: W
LayerCount: 2
UndoRedoHistory
Layer: 1
Undoes
EndUndoes
Redoes
EndRedoes
EndUndoRedoHistory
Fore
SplineSet
306 914 m 1,0,-1
 577 542 l 1,1,-1
 300 171 l 1,2,-1
 143 171 l 1,3,-1
 405 542 l 1,4,-1
 151 914 l 1,5,-1
 306 914 l 1,0,-1
EndSplineSet
EndChar

StartChar: fraction
Encoding: 8260 8260 396
Width: 982
GlyphClass: 2
Flags: W
LayerCount: 2
UndoRedoHistory
Layer: 1
Undoes
EndUndoes
Redoes
EndRedoes
EndUndoRedoHistory
Fore
SplineSet
0 0 m 1,0,-1
 833 1456 l 1,1,-1
 982 1456 l 1,2,-1
 151 0 l 1,3,-1
 0 0 l 1,0,-1
EndSplineSet
EndChar

StartChar: uni2074
Encoding: 8308 8308 397
Width: 907
GlyphClass: 2
Flags: W
LayerCount: 2
UndoRedoHistory
Layer: 1
Undoes
EndUndoes
Redoes
EndRedoes
EndUndoRedoHistory
Fore
SplineSet
127 910 m 1,0,-1
 366 910 l 1,1,-1
 366 1244 l 1,2,-1
 127 910 l 1,0,-1
366 615 m 1,3,-1
 366 803 l 1,4,-1
 -12 803 l 1,5,-1
 -12 894 l 1,6,-1
 354 1412 l 1,7,-1
 488 1412 l 1,8,-1
 488 910 l 1,9,-1
 597 910 l 1,10,-1
 607 803 l 1,11,-1
 486 803 l 1,12,-1
 486 615 l 1,13,-1
 366 615 l 1,3,-1
EndSplineSet
EndChar

StartChar: Euro
Encoding: 8364 8364 398
Width: 1394
GlyphClass: 2
Flags: W
LayerCount: 2
UndoRedoHistory
Layer: 1
Undoes
EndUndoes
Redoes
EndRedoes
EndUndoRedoHistory
Fore
SplineSet
829 -24 m 0,0,1
 681 -24 681 -24 554.5 28 c 128,-1,2
 428 80 428 80 336.5 175 c 128,-1,3
 245 270 245 270 193 411 c 0,4,5
 174 462 174 462 162 516 c 1,6,-1
 13 516 l 1,7,-1
 33 644 l 1,8,-1
 144 644 l 1,9,10
 141 682 141 682 141 722 c 0,11,12
 141 759 141 759 144 794 c 1,13,-1
 10 794 l 1,14,-1
 32 922 l 1,15,-1
 162 922 l 1,16,17
 173 976 173 976 191 1026 c 0,18,19
 241 1166 241 1166 330.5 1266 c 128,-1,20
 420 1366 420 1366 548 1423 c 128,-1,21
 676 1480 676 1480 827 1480 c 0,22,23
 1092 1480 1092 1480 1280 1332 c 1,24,-1
 1202 1210 l 1,25,26
 1042 1330 1042 1330 845 1330 c 0,27,28
 722 1330 722 1330 622.5 1282.5 c 128,-1,29
 523 1235 523 1235 458.5 1152 c 128,-1,30
 394 1069 394 1069 359 959 c 0,31,32
 353 941 353 941 348 922 c 1,33,-1
 903 922 l 1,34,-1
 883 794 l 1,35,-1
 327 794 l 1,36,37
 324 759 324 759 324 722 c 0,38,39
 324 682 324 682 327 644 c 1,40,-1
 869 644 l 1,41,-1
 850 516 l 1,42,-1
 348 516 l 1,43,44
 382 385 382 385 462 290 c 0,45,46
 600 126 600 126 836 126 c 0,47,48
 1063 126 1063 126 1242 271 c 1,49,-1
 1302 129 l 1,50,51
 1105 -24 1105 -24 829 -24 c 0,0,1
EndSplineSet
EndChar

StartChar: trademark
Encoding: 8482 8482 399
Width: 1839
GlyphClass: 2
Flags: W
LayerCount: 2
UndoRedoHistory
Layer: 1
Undoes
EndUndoes
Redoes
EndRedoes
EndUndoRedoHistory
Fore
SplineSet
333 690 m 1,0,-1
 333 1354 l 1,1,-1
 80 1354 l 1,2,-1
 80 1455 l 1,3,-1
 707 1455 l 1,4,-1
 707 1354 l 1,5,-1
 457 1354 l 1,6,-1
 457 690 l 1,7,-1
 333 690 l 1,0,-1
814 690 m 1,8,-1
 814 1455 l 1,9,-1
 961 1455 l 1,10,-1
 1229 846 l 1,11,-1
 1508 1455 l 1,12,-1
 1646 1455 l 1,13,-1
 1646 690 l 1,14,-1
 1530 690 l 1,15,-1
 1530 1274 l 1,16,-1
 1280 719 l 1,17,-1
 1178 719 l 1,18,-1
 929 1273 l 1,19,-1
 929 690 l 1,20,-1
 814 690 l 1,8,-1
EndSplineSet
EndChar

StartChar: partialdiff
Encoding: 8706 8706 400
Width: 1153
GlyphClass: 2
Flags: W
LayerCount: 2
UndoRedoHistory
Layer: 1
Undoes
EndUndoes
Redoes
EndRedoes
EndUndoRedoHistory
Fore
SplineSet
495 113 m 0,0,1
 809 113 809 113 872 660 c 1,2,3
 837 756 837 756 769.5 815 c 128,-1,4
 702 874 702 874 605 874 c 0,5,6
 440 874 440 874 351 746.5 c 128,-1,7
 262 619 262 619 262 422 c 0,8,9
 262 284 262 284 325 198.5 c 128,-1,10
 388 113 388 113 495 113 c 0,0,1
492 -22 m 0,11,12
 362 -22 362 -22 270.5 39 c 128,-1,13
 179 100 179 100 136 199 c 128,-1,14
 93 298 93 298 93 425 c 0,15,16
 93 553 93 553 133 663.5 c 128,-1,17
 173 774 173 774 240 848.5 c 128,-1,18
 307 923 307 923 396 965 c 128,-1,19
 485 1007 485 1007 583 1007 c 0,20,21
 761 1007 761 1007 889 841 c 1,22,23
 889 851 889 851 889.5 878 c 128,-1,24
 890 905 890 905 890 916 c 0,25,26
 890 1126 890 1126 807.5 1236 c 128,-1,27
 725 1346 725 1346 562 1346 c 0,28,29
 434 1346 434 1346 299 1251 c 1,30,-1
 289 1389 l 1,31,32
 420 1480 420 1480 585 1480 c 0,33,34
 689 1480 689 1480 771 1447 c 128,-1,35
 853 1414 853 1414 906.5 1357.5 c 128,-1,36
 960 1301 960 1301 995.5 1220.5 c 128,-1,37
 1031 1140 1031 1140 1046 1050.5 c 128,-1,38
 1061 961 1061 961 1061 857 c 0,39,40
 1061 673 1061 673 1025.5 515 c 128,-1,41
 990 357 990 357 921 236.5 c 128,-1,42
 852 116 852 116 742 47 c 128,-1,43
 632 -22 632 -22 492 -22 c 0,11,12
EndSplineSet
EndChar

StartChar: product
Encoding: 8719 8719 401
Width: 1549
GlyphClass: 2
Flags: W
LayerCount: 2
UndoRedoHistory
Layer: 1
Undoes
EndUndoes
Redoes
EndRedoes
EndUndoRedoHistory
Fore
SplineSet
301 0 m 1,0,-1
 301 1311 l 1,1,-1
 100 1311 l 1,2,-1
 100 1456 l 1,3,-1
 1449 1456 l 1,4,-1
 1449 1311 l 1,5,-1
 1270 1311 l 1,6,-1
 1270 0 l 1,7,-1
 1092 0 l 1,8,-1
 1092 1311 l 1,9,-1
 476 1311 l 1,10,-1
 476 0 l 1,11,-1
 301 0 l 1,0,-1
EndSplineSet
EndChar

StartChar: summation
Encoding: 8721 8721 402
Width: 1175
GlyphClass: 2
Flags: W
LayerCount: 2
UndoRedoHistory
Layer: 1
Undoes
EndUndoes
Redoes
EndRedoes
EndUndoRedoHistory
Fore
SplineSet
156 0 m 1,0,-1
 156 123 l 1,1,-1
 564 739 l 1,2,-1
 178 1338 l 1,3,-1
 178 1456 l 1,4,-1
 1010 1456 l 1,5,-1
 1010 1314 l 1,6,-1
 386 1314 l 1,7,-1
 760 741 l 1,8,-1
 356 148 l 1,9,-1
 1055 148 l 1,10,-1
 1055 0 l 1,11,-1
 156 0 l 1,0,-1
EndSplineSet
EndChar

StartChar: minus
Encoding: 8722 8722 403
Width: 1445
GlyphClass: 2
Flags: W
LayerCount: 2
UndoRedoHistory
Layer: 1
Undoes
EndUndoes
Redoes
EndRedoes
EndUndoRedoHistory
Fore
SplineSet
208 496 m 1,0,-1
 208 633 l 1,1,-1
 1235 633 l 1,2,-1
 1235 496 l 1,3,-1
 208 496 l 1,0,-1
EndSplineSet
EndChar

StartChar: radical
Encoding: 8730 8730 404
Width: 1238
GlyphClass: 2
Flags: W
LayerCount: 2
UndoRedoHistory
Layer: 1
Undoes
EndUndoes
Redoes
EndRedoes
EndUndoRedoHistory
Fore
SplineSet
551 0 m 1,0,-1
 300 673 l 1,1,-1
 128 645 l 1,2,-1
 108 757 l 1,3,-1
 401 808 l 1,4,-1
 551 367 l 1,5,-1
 613 162 l 1,6,-1
 667 370 l 1,7,-1
 1008 1456 l 1,8,-1
 1138 1456 l 1,9,-1
 680 0 l 1,10,-1
 551 0 l 1,0,-1
EndSplineSet
EndChar

StartChar: infinity
Encoding: 8734 8734 405
Width: 1683
GlyphClass: 2
Flags: W
LayerCount: 2
UndoRedoHistory
Layer: 1
Undoes
EndUndoes
Redoes
EndRedoes
EndUndoRedoHistory
Fore
SplineSet
1232 355 m 0,0,1
 1337 355 1337 355 1389.5 426.5 c 128,-1,2
 1442 498 1442 498 1442 618 c 0,3,4
 1442 717 1442 717 1380 773 c 128,-1,5
 1318 829 1318 829 1227 829 c 0,6,7
 1181 829 1181 829 1139 813.5 c 128,-1,8
 1097 798 1097 798 1068 778.5 c 128,-1,9
 1039 759 1039 759 1006.5 722 c 128,-1,10
 974 685 974 685 956.5 660.5 c 128,-1,11
 939 636 939 636 911 592 c 1,12,13
 919 582 919 582 943 548.5 c 128,-1,14
 967 515 967 515 975.5 504 c 128,-1,15
 984 493 984 493 1006.5 466 c 128,-1,16
 1029 439 1029 439 1042.5 428 c 128,-1,17
 1056 417 1056 417 1080 399.5 c 128,-1,18
 1104 382 1104 382 1124.5 374.5 c 128,-1,19
 1145 367 1145 367 1173 361 c 128,-1,20
 1201 355 1201 355 1232 355 c 0,0,1
464 355 m 0,21,22
 583 355 583 355 676 454 c 0,23,24
 706 487 706 487 778 589 c 1,25,26
 751 630 751 630 728.5 659.5 c 128,-1,27
 706 689 706 689 673.5 723 c 128,-1,28
 641 757 641 757 610 778.5 c 128,-1,29
 579 800 579 800 538 814.5 c 128,-1,30
 497 829 497 829 454 829 c 0,31,32
 350 829 350 829 293 760 c 128,-1,33
 236 691 236 691 236 592 c 0,34,35
 236 484 236 484 301 419.5 c 128,-1,36
 366 355 366 355 464 355 c 0,21,22
461 236 m 0,37,38
 298 236 298 236 202 346.5 c 128,-1,39
 106 457 106 457 106 612 c 0,40,41
 106 764 106 764 204 854 c 128,-1,42
 302 944 302 944 456 944 c 0,43,44
 513 944 513 944 563 929.5 c 128,-1,45
 613 915 613 915 649.5 894 c 128,-1,46
 686 873 686 873 724.5 836.5 c 128,-1,47
 763 800 763 800 787.5 770 c 128,-1,48
 812 740 812 740 847 692 c 1,49,50
 888 747 888 747 922 785.5 c 128,-1,51
 956 824 956 824 1004 863.5 c 128,-1,52
 1052 903 1052 903 1109 923.5 c 128,-1,53
 1166 944 1166 944 1231 944 c 0,54,55
 1394 944 1394 944 1487.5 846 c 128,-1,56
 1581 748 1581 748 1581 595 c 0,57,58
 1581 485 1581 485 1529.5 401.5 c 128,-1,59
 1478 318 1478 318 1399 277 c 128,-1,60
 1320 236 1320 236 1229 236 c 0,61,62
 1125 236 1125 236 1033.5 297.5 c 128,-1,63
 942 359 942 359 845 488 c 1,64,65
 806 435 806 435 768.5 394.5 c 128,-1,66
 731 354 731 354 682.5 316 c 128,-1,67
 634 278 634 278 577.5 257 c 128,-1,68
 521 236 521 236 461 236 c 0,37,38
EndSplineSet
EndChar

StartChar: integral
Encoding: 8747 8747 406
Width: 794
GlyphClass: 2
Flags: W
LayerCount: 2
UndoRedoHistory
Layer: 1
Undoes
EndUndoes
Redoes
EndRedoes
EndUndoRedoHistory
Fore
SplineSet
180 -259 m 0,0,1
 122 -259 122 -259 44 -238 c 1,2,-1
 42 -109 l 1,3,4
 81 -124 81 -124 152 -124 c 0,5,6
 247 -124 247 -124 279.5 -72 c 128,-1,7
 312 -20 312 -20 312 93 c 2,8,-1
 312 1150 l 2,9,10
 312 1526 312 1526 610 1526 c 0,11,12
 654 1526 654 1526 746 1505 c 1,13,-1
 748 1376 l 1,14,15
 709 1391 709 1391 638 1391 c 0,16,17
 542 1391 542 1391 509 1338.5 c 128,-1,18
 476 1286 476 1286 476 1174 c 2,19,-1
 476 117 l 2,20,21
 476 -259 476 -259 180 -259 c 0,0,1
EndSplineSet
EndChar

StartChar: approxequal
Encoding: 8776 8776 407
Width: 1328
GlyphClass: 2
Flags: W
LayerCount: 2
UndoRedoHistory
Layer: 1
Undoes
EndUndoes
Redoes
EndRedoes
EndUndoRedoHistory
Fore
SplineSet
277 634 m 1,0,1
 162 661 l 1,2,3
 188 778 188 778 261.5 847.5 c 128,-1,4
 335 917 335 917 453 917 c 0,5,6
 515 917 515 917 582 891 c 128,-1,7
 649 865 649 865 696.5 834.5 c 128,-1,8
 744 804 744 804 797 778 c 128,-1,9
 850 752 850 752 887 752 c 0,10,11
 953 752 953 752 990 796 c 128,-1,12
 1027 840 1027 840 1053 918 c 1,13,-1
 1163 890 l 1,14,15
 1139 773 1139 773 1069 703.5 c 128,-1,16
 999 634 999 634 881 634 c 0,17,18
 819 634 819 634 754 660 c 128,-1,19
 689 686 689 686 644 716.5 c 128,-1,20
 599 747 599 747 545.5 773 c 128,-1,21
 492 799 492 799 449 799 c 0,22,23
 324 799 324 799 277 634 c 1,0,1
278 261 m 1,24,-1
 164 289 l 1,25,26
 192 404 192 404 265.5 475 c 128,-1,27
 339 546 339 546 455 546 c 0,28,29
 523 546 523 546 592 520 c 128,-1,30
 661 494 661 494 707.5 463 c 128,-1,31
 754 432 754 432 804.5 406 c 128,-1,32
 855 380 855 380 889 380 c 128,-1,33
 923 380 923 380 950.5 393.5 c 128,-1,34
 978 407 978 407 997.5 433 c 128,-1,35
 1017 459 1017 459 1029.5 484 c 128,-1,36
 1042 509 1042 509 1055 546 c 1,37,-1
 1165 518 l 1,38,39
 1138 401 1138 401 1069.5 331.5 c 128,-1,40
 1001 262 1001 262 883 262 c 0,41,42
 821 262 821 262 755.5 287.5 c 128,-1,43
 690 313 690 313 644.5 344 c 128,-1,44
 599 375 599 375 546 400.5 c 128,-1,45
 493 426 493 426 452 426 c 0,46,47
 325 426 325 426 278 261 c 1,24,-1
EndSplineSet
EndChar

StartChar: notequal
Encoding: 8800 8800 408
Width: 1339
GlyphClass: 2
Flags: W
LayerCount: 2
UndoRedoHistory
Layer: 1
Undoes
EndUndoes
Redoes
EndRedoes
EndUndoRedoHistory
Fore
SplineSet
465 46 m 1,0,-1
 345 64 l 1,1,-1
 471 325 l 1,2,-1
 170 325 l 1,3,-1
 170 445 l 1,4,-1
 529 445 l 1,5,-1
 670 728 l 1,6,-1
 170 728 l 1,7,-1
 170 849 l 1,8,-1
 725 849 l 1,9,-1
 856 1123 l 1,10,-1
 978 1105 l 1,11,-1
 854 849 l 1,12,-1
 1160 849 l 1,13,-1
 1162 728 l 1,14,-1
 798 728 l 1,15,-1
 656 445 l 1,16,-1
 1162 445 l 1,17,-1
 1162 325 l 1,18,-1
 599 325 l 1,19,-1
 465 46 l 1,0,-1
EndSplineSet
EndChar

StartChar: lessequal
Encoding: 8804 8804 409
Width: 1340
GlyphClass: 2
Flags: W
LayerCount: 2
UndoRedoHistory
Layer: 1
Undoes
EndUndoes
Redoes
EndRedoes
EndUndoRedoHistory
Fore
SplineSet
171 0 m 1,0,-1
 171 122 l 1,1,-1
 1164 122 l 1,2,-1
 1164 0 l 1,3,-1
 171 0 l 1,0,-1
1135 247 m 1,4,-1
 207 697 l 1,5,-1
 207 778 l 1,6,-1
 1135 1250 l 1,7,-1
 1135 1110 l 1,8,-1
 382 741 l 1,9,-1
 1135 388 l 1,10,-1
 1135 247 l 1,4,-1
EndSplineSet
EndChar

StartChar: greaterequal
Encoding: 8805 8805 410
Width: 1339
GlyphClass: 2
Flags: W
LayerCount: 2
UndoRedoHistory
Layer: 1
Undoes
EndUndoes
Redoes
EndRedoes
EndUndoRedoHistory
Fore
SplineSet
206 1252 m 1,0,-1
 1141 779 l 1,1,-1
 1141 699 l 1,2,-1
 202 249 l 1,3,-1
 202 390 l 1,4,-1
 963 738 l 1,5,-1
 206 1112 l 1,6,-1
 206 1252 l 1,0,-1
171 0 m 1,7,-1
 171 122 l 1,8,-1
 1160 122 l 1,9,-1
 1160 0 l 1,10,-1
 171 0 l 1,7,-1
EndSplineSet
EndChar

StartChar: lozenge
Encoding: 9674 9674 411
Width: 1197
GlyphClass: 2
Flags: W
LayerCount: 2
UndoRedoHistory
Layer: 1
Undoes
EndUndoes
Redoes
EndRedoes
EndUndoRedoHistory
Fore
SplineSet
542 0 m 1,0,-1
 100 716 l 1,1,-1
 550 1456 l 1,2,-1
 652 1456 l 1,3,-1
 1097 717 l 1,4,-1
 644 0 l 1,5,-1
 542 0 l 1,0,-1
593 143 m 1,6,-1
 946 716 l 1,7,-1
 602 1310 l 1,8,-1
 249 718 l 1,9,-1
 593 143 l 1,6,-1
EndSplineSet
EndChar

StartChar: uniF6C3
Encoding: 63171 63171 412
Width: 609
GlyphClass: 2
Flags: W
LayerCount: 2
UndoRedoHistory
Layer: 1
Undoes
EndUndoes
Redoes
EndRedoes
EndUndoRedoHistory
Fore
SplineSet
120 -463 m 1,0,-1
 227 0 l 1,1,-1
 414 0 l 1,2,-1
 251 -463 l 1,3,-1
 120 -463 l 1,0,-1
EndSplineSet
EndChar

StartChar: f.alt
Encoding: 65540 -1 415
Width: 711
GlyphClass: 2
Flags: W
LayerCount: 2
UndoRedoHistory
Layer: 1
Undoes
EndUndoes
Redoes
EndRedoes
EndUndoRedoHistory
Fore
SplineSet
173 -404 m 1,0,1
 153 -269 l 1,2,3
 220 -258 220 -258 243 -222 c 128,-1,4
 266 -186 266 -186 266 -76 c 2,5,-1
 266 919 l 1,6,-1
 64 919 l 1,7,-1
 64 1026 l 1,8,-1
 266 1026 l 1,9,-1
 266 1194 l 2,10,11
 266 1377 266 1377 363.5 1451.5 c 128,-1,12
 461 1526 461 1526 667 1526 c 2,13,-1
 721 1526 l 1,14,-1
 721 1406 l 1,15,16
 658 1406 658 1406 620 1403 c 128,-1,17
 582 1400 582 1400 540.5 1388.5 c 128,-1,18
 499 1377 499 1377 476.5 1355 c 128,-1,19
 454 1333 454 1333 439.5 1293.5 c 128,-1,20
 425 1254 425 1254 425 1196 c 2,21,-1
 425 1026 l 1,22,-1
 671 1026 l 1,23,-1
 671 919 l 1,24,-1
 425 919 l 1,25,-1
 425 -83 l 2,26,27
 425 -130 425 -130 421 -167 c 128,-1,28
 417 -204 417 -204 402 -249 c 128,-1,29
 387 -294 387 -294 361 -325 c 128,-1,30
 335 -356 335 -356 287 -378.5 c 128,-1,31
 239 -401 239 -401 173 -404 c 1,0,1
EndSplineSet
EndChar

StartChar: four.alt
Encoding: 65541 -1 416
Width: 1240
GlyphClass: 2
Flags: W
LayerCount: 2
UndoRedoHistory
Layer: 1
Undoes
EndUndoes
Redoes
EndRedoes
EndUndoRedoHistory
Fore
SplineSet
319 520 m 1,0,-1
 774 520 l 1,1,-1
 774 1287 l 1,2,-1
 651 1081 l 1,3,-1
 319 520 l 1,0,-1
774 0 m 1,4,-1
 774 386 l 1,5,-1
 125 386 l 1,6,-1
 125 515 l 1,7,-1
 698 1456 l 1,8,-1
 945 1456 l 1,9,-1
 945 520 l 1,10,-1
 1163 520 l 1,11,-1
 1163 386 l 1,12,-1
 946 386 l 1,13,-1
 946 0 l 1,14,-1
 774 0 l 1,4,-1
EndSplineSet
EndChar

StartChar: k.alt
Encoding: 65542 -1 417
Width: 1068
GlyphClass: 2
Flags: W
LayerCount: 2
UndoRedoHistory
Layer: 1
Undoes
EndUndoes
Redoes
EndRedoes
EndUndoRedoHistory
Fore
SplineSet
188 0 m 1,0,-1
 188 1526 l 1,1,-1
 351 1526 l 1,2,-1
 351 308 l 1,3,-1
 808 1026 l 1,4,-1
 985 1026 l 1,5,-1
 689 580 l 1,6,-1
 1053 0 l 1,7,-1
 872 0 l 1,8,-1
 602 445 l 1,9,-1
 313 0 l 1,10,-1
 188 0 l 1,0,-1
EndSplineSet
EndChar

StartChar: k.alt.2
Encoding: 65543 -1 418
Width: 1126
GlyphClass: 2
Flags: W
LayerCount: 2
UndoRedoHistory
Layer: 1
Undoes
EndUndoes
Redoes
EndRedoes
EndUndoRedoHistory
Fore
SplineSet
1120 131 m 1,0,1
 1108 -4 l 1,2,3
 1067 -21 1067 -21 1029 -24 c 0,4,5
 1021 -25 1021 -25 1014 -25 c 0,6,7
 984 -25 984 -25 957 -15 c 0,8,9
 923 -3 923 -3 894 15 c 128,-1,10
 865 33 865 33 833 66 c 128,-1,11
 801 99 801 99 776.5 129.5 c 128,-1,12
 752 160 752 160 718 206 c 2,13,-1
 582 390 l 1,14,-1
 317 27 l 1,15,16
 283 -15 283 -15 242 -15 c 0,17,18
 233 -15 233 -15 224 -13 c 0,19,20
 172 -2 172 -2 172 60 c 2,21,-1
 172 1526 l 1,22,-1
 336 1526 l 1,23,-1
 336 288 l 1,24,-1
 860 1026 l 1,25,-1
 1008 976 l 1,26,-1
 671 512 l 1,27,-1
 831 295 l 2,28,29
 835 289 835 289 844 277 c 0,30,31
 873 238 873 238 891.5 214 c 128,-1,32
 910 190 910 190 939.5 161.5 c 128,-1,33
 969 133 969 133 994 122 c 128,-1,34
 1019 111 1019 111 1052 111.5 c 128,-1,35
 1085 112 1085 112 1120 131 c 1,0,1
EndSplineSet
EndChar

StartChar: nine.alt
Encoding: 65544 -1 419
Width: 1176
GlyphClass: 2
Flags: W
LayerCount: 2
UndoRedoHistory
Layer: 1
Undoes
EndUndoes
Redoes
EndRedoes
EndUndoRedoHistory
Fore
SplineSet
572 701 m 0,0,1
 717 701 717 701 805 784 c 128,-1,2
 893 867 893 867 893 999 c 0,3,4
 893 1156 893 1156 804 1248 c 128,-1,5
 715 1340 715 1340 573 1340 c 0,6,7
 432 1340 432 1340 353 1248 c 128,-1,8
 274 1156 274 1156 274 1017 c 0,9,10
 274 868 274 868 352 784.5 c 128,-1,11
 430 701 430 701 572 701 c 0,0,1
517 -24 m 0,12,13
 412 -24 412 -24 337 7.5 c 128,-1,14
 262 39 262 39 193 104 c 1,15,-1
 247 232 l 1,16,17
 352 118 352 118 520 118 c 0,18,19
 621 118 621 118 698 167.5 c 128,-1,20
 775 217 775 217 818.5 302 c 128,-1,21
 862 387 862 387 883.5 490 c 128,-1,22
 905 593 905 593 905 711 c 2,23,-1
 905 735 l 1,24,25
 801 561 801 561 547 561 c 0,26,27
 339 561 339 561 218.5 687 c 128,-1,28
 98 813 98 813 98 1012 c 0,29,30
 98 1233 98 1233 234 1356.5 c 128,-1,31
 370 1480 370 1480 581 1480 c 0,32,33
 1080 1480 1080 1480 1080 786 c 0,34,35
 1080 615 1080 615 1043 468.5 c 128,-1,36
 1006 322 1006 322 937 212 c 128,-1,37
 868 102 868 102 760 39 c 128,-1,38
 652 -24 652 -24 517 -24 c 0,12,13
EndSplineSet
EndChar

StartChar: nine.alt.2
Encoding: 65545 -1 420
Width: 1244
GlyphClass: 2
Flags: W
LayerCount: 2
UndoRedoHistory
Layer: 1
Undoes
EndUndoes
Redoes
EndRedoes
EndUndoRedoHistory
Fore
SplineSet
641 659 m 0,0,1
 802 659 802 659 886.5 748.5 c 128,-1,2
 971 838 971 838 971 992 c 0,3,4
 971 1154 971 1154 891 1242.5 c 128,-1,5
 811 1331 811 1331 646 1331 c 0,6,7
 492 1331 492 1331 403 1241.5 c 128,-1,8
 314 1152 314 1152 314 994 c 0,9,10
 314 926 314 926 331.5 868 c 128,-1,11
 349 810 349 810 385.5 762 c 128,-1,12
 422 714 422 714 487.5 686.5 c 128,-1,13
 553 659 553 659 641 659 c 0,0,1
545 -76 m 1,14,-1
 415 0 l 1,15,-1
 808 575 l 1,16,17
 728 515 728 515 622 515 c 0,18,19
 403 515 403 515 272.5 651 c 128,-1,20
 142 787 142 787 142 995 c 0,21,22
 142 1208 142 1208 283 1344.5 c 128,-1,23
 424 1481 424 1481 635 1481 c 0,24,25
 760 1481 760 1481 858 1440.5 c 128,-1,26
 956 1400 956 1400 1016 1330.5 c 128,-1,27
 1076 1261 1076 1261 1107 1174.5 c 128,-1,28
 1138 1088 1138 1088 1138 991 c 0,29,30
 1138 798 1138 798 999 598 c 1,31,-1
 545 -76 l 1,14,-1
EndSplineSet
EndChar

StartChar: one.alt
Encoding: 65546 -1 421
Width: 1258
GlyphClass: 2
Flags: W
LayerCount: 2
UndoRedoHistory
Layer: 1
Undoes
EndUndoes
Redoes
EndRedoes
EndUndoRedoHistory
Fore
SplineSet
668 0 m 1,0,-1
 668 1288 l 1,1,2
 566 1211 566 1211 410 1146 c 1,3,-1
 369 1277 l 1,4,5
 541 1356 541 1356 675 1456 c 1,6,-1
 840 1456 l 1,7,-1
 840 0 l 1,8,-1
 668 0 l 1,0,-1
EndSplineSet
EndChar

